<svg width="301" height="301" viewBox="0 0 301 301" fill="none" xmlns="http://www.w3.org/2000/svg">
<g clip-path="url(#clip0_39_59)">
<path d="M92.9108 241.35H86.0228V219.029H93.216C95.3812 219.029 97.2339 219.476 98.7743 220.37C100.315 221.256 101.495 222.532 102.316 224.195C103.137 225.852 103.548 227.836 103.548 230.146C103.548 232.471 103.134 234.473 102.305 236.151C101.477 237.822 100.271 239.108 98.6871 240.009C97.1032 240.903 95.1777 241.35 92.9108 241.35ZM88.7257 238.952H92.7364C94.5819 238.952 96.1114 238.596 97.3248 237.884C98.5382 237.172 99.4427 236.159 100.039 234.843C100.634 233.528 100.932 231.963 100.932 230.146C100.932 228.344 100.638 226.793 100.049 225.492C99.4609 224.185 98.5817 223.182 97.412 222.484C96.2422 221.78 94.7854 221.427 93.0416 221.427H88.7257V238.952ZM107.948 241.35H105.115L113.31 219.029H116.1L124.296 241.35H121.463L114.793 222.561H114.618L107.948 241.35ZM108.995 232.631H120.416V235.029H108.995V232.631ZM127.773 241.35V219.029H135.576C137.131 219.029 138.414 219.298 139.424 219.836C140.434 220.366 141.186 221.082 141.68 221.983C142.174 222.877 142.421 223.868 142.421 224.958C142.421 225.917 142.25 226.709 141.909 227.334C141.574 227.959 141.131 228.453 140.579 228.816C140.034 229.18 139.442 229.449 138.802 229.623V229.841C139.485 229.885 140.172 230.124 140.862 230.56C141.553 230.996 142.13 231.621 142.595 232.435C143.06 233.249 143.293 234.244 143.293 235.421C143.293 236.54 143.038 237.546 142.53 238.44C142.021 239.334 141.218 240.042 140.121 240.565C139.024 241.088 137.596 241.35 135.838 241.35H127.773ZM130.476 238.952H135.838C137.604 238.952 138.857 238.611 139.598 237.928C140.346 237.238 140.721 236.402 140.721 235.421C140.721 234.665 140.528 233.968 140.143 233.329C139.758 232.682 139.209 232.166 138.497 231.781C137.785 231.389 136.942 231.192 135.969 231.192H130.476V238.952ZM130.476 228.838H135.489C136.303 228.838 137.037 228.678 137.691 228.359C138.352 228.039 138.875 227.589 139.26 227.007C139.653 226.426 139.849 225.743 139.849 224.958C139.849 223.977 139.507 223.146 138.824 222.463C138.141 221.772 137.059 221.427 135.576 221.427H130.476V228.838ZM148.649 241.35H145.816L154.012 219.029H156.802L164.997 241.35H162.164L155.494 222.561H155.319L148.649 241.35ZM149.696 232.631H161.118V235.029H149.696V232.631ZM186.174 219.029V241.35H183.558L171.395 223.825H171.177V241.35H168.474V219.029H171.09L183.296 236.598H183.514V219.029H186.174ZM192.498 241.35H189.664L197.86 219.029H200.65L208.846 241.35H206.012L199.342 222.561H199.168L192.498 241.35ZM193.544 232.631H204.966V235.029H193.544V232.631Z" fill="white"/>
<path d="M162.64 160C162.64 160 141.45 180.78 114.51 179.83C87.57 178.88 62.94 179.91 54 168.17C54 168.17 51.7 179.28 69.06 182.21C69.06 182.21 88.72 187.95 113.87 187.32C139.02 186.68 148.14 176.72 148.14 176.72C148.14 176.72 161.99 163.7 162.63 160H162.64Z" fill="white" stroke="white" stroke-width="0.25" stroke-miterlimit="10"/>
<path d="M236.19 132.79C236.19 132.79 233.13 143.64 214.87 146.7C197.63 149.59 175.26 153.85 162.51 166.04C160.82 167.65 159.12 169.24 157.3 170.7C153.77 173.52 148.32 177.98 147.22 179.51C145.74 181.56 169.18 164.97 179.54 161.23C181.26 160.61 182.9 159.8 184.52 158.95C187.18 157.56 193.57 155.41 208.88 153.21C234.67 149.51 236.2 132.78 236.2 132.78L236.19 132.79Z" fill="white"/>
<path d="M183.43 113.97C183.43 113.97 185.43 118.35 185.17 119.59C185.17 119.59 217.2 93.57 225.46 89.28C226.2 88.89 227.11 89.09 227.65 89.72C230.27 92.8 237.81 103.21 239.77 122.95C239.77 122.95 240.62 142.01 228.54 147.97L227.01 149.08C227.01 149.08 247.61 143.04 246.24 123.63C244.9 104.52 242.82 95.56 230.4 79.36C230.08 78.95 229.48 78.86 229.07 79.18L183.43 113.97Z" fill="white"/>
<path d="M234.01 84.02C234.01 84.02 232.79 95.81 239.17 102.58C239.17 102.58 245.63 115.92 245.9 119.31C246.17 122.7 246.3 99.16 234.01 84.02Z" fill="white"/>
<path d="M214.86 156.96C214.86 156.96 235.97 155.09 243.29 139.6C243.29 139.6 235.97 177.48 237.16 180.41C237.16 180.41 234.57 171.43 232.97 170.58L234.29 153.62C234.29 153.62 223.37 161.91 214.86 156.97V156.96Z" fill="white"/>
<path d="M192.44 159.24C192.44 159.24 197.29 161.79 196.95 169.11C196.61 176.43 196.97 185.62 196.97 185.62C196.97 185.62 226.06 185.79 229.46 185.62C229.46 185.62 233.55 183.92 233.89 183.41C234.23 182.9 231.51 183.75 230.66 183.58C229.81 183.41 232.6 179.97 232.6 179.97H202.23C202.23 179.97 204.1 162.14 198.32 158.22H191.68L192.45 159.24H192.44Z" fill="white"/>
<path d="M160.34 131.76C160.34 131.76 160.85 134.82 161.87 136.23C162.89 137.64 138.13 156.91 116.3 153.85C116.3 153.85 104.04 153.08 103.28 140.83C103.28 140.83 100.34 148.23 65.88 158.83C65.88 158.83 51.01 166.23 67.03 171.85C67.03 171.85 57.84 173.51 54.77 164.32C51.7 155.13 103.18 142.11 108.34 132.53C108.34 132.53 103.03 141.72 118.35 145.93C133.67 150.14 159.33 134.44 160.35 131.76H160.34Z" fill="white" stroke="white" stroke-width="0.25" stroke-miterlimit="10"/>
<path d="M192.59 105.26C192.59 105.26 191.91 99.52 192.04 94.41C192.17 89.3 192.51 82.75 193.27 80.67C193.27 80.67 188.76 85.1 187.13 93.28C186.86 94.64 186.76 96.03 186.75 97.42C186.73 100.75 186.7 107.71 186.76 109.95L192.59 105.27V105.26Z" fill="#99924B"/>
<path d="M188.11 118.97C188.11 118.97 188.37 124.75 187.87 129.83C187.37 134.91 182.75 143.71 181.83 145.73C181.83 145.73 190.45 139.35 192.68 131.31C193.05 129.97 193.25 128.6 193.36 127.21C193.62 123.89 194.16 116.95 194.26 114.71L188.11 118.95V118.97Z" fill="#99924B"/>
<path d="M175.02 119.99C175.02 119.99 176.93 111.69 177.83 111.31C178.73 110.93 184.98 123.31 183.06 129.44C181.14 135.57 177.32 140.04 174 140.16C170.68 140.28 163.91 139.39 162.51 132.5C161.11 125.61 160.85 115.52 160.85 115.52C160.85 115.52 161.62 78.88 157.15 69.69C157.15 69.69 159.32 61.39 161.11 60.88C162.9 60.37 166.6 78.5 166.34 93.18C166.08 107.86 163.68 130.32 171.32 130.84C178.96 131.36 178.21 128.8 178.21 128.8C178.21 128.8 177.95 124.84 175.02 119.99Z" fill="#99924B"/>
<path d="M147.96 106.72C147.96 106.72 150.06 98.42 151.03 98.04C152 97.66 158.85 110.04 156.76 116.17C154.66 122.3 150.48 126.77 146.84 126.89C143.2 127.01 135.81 126.12 134.27 119.23C132.73 112.34 132.45 102.25 132.45 102.25C132.45 102.25 133.29 65.61 128.4 56.42C128.4 56.42 130.77 48.12 132.73 47.61C134.69 47.1 138.74 65.23 138.46 79.91C138.18 94.59 135.54 117.05 143.91 117.57C152.28 118.09 151.45 115.53 151.45 115.53C151.45 115.53 151.17 111.57 147.96 106.72Z" fill="#99924B"/>
<path d="M145.4 78.22C145.43 78.08 145.58 78.02 145.7 78.09C147.04 78.85 152.83 82.18 152.83 83.42C152.83 84.49 150.39 88.37 149.22 90.16C148.91 90.64 148.24 90.73 147.82 90.34C146.48 89.12 143.72 86.71 141.72 85.67C141.15 85.38 141.01 84.64 141.41 84.15C142.73 82.53 145.11 79.49 145.4 78.22Z" fill="#99924B"/>
<path d="M168.68 143.69C168.71 143.55 168.86 143.49 168.98 143.56C170.32 144.32 176.11 147.65 176.11 148.89C176.11 149.96 173.67 153.84 172.5 155.63C172.19 156.11 171.52 156.2 171.1 155.81C169.76 154.59 167 152.18 165 151.14C164.43 150.85 164.29 150.11 164.69 149.62C166.01 148 168.39 144.96 168.68 143.69Z" fill="#99924B"/>
<path d="M226.78 128.87C222.79 134.48 213.93 137.98 213.93 137.98C213.93 137.98 199.04 147.17 194.7 141.3C190.36 135.43 197.85 120.79 197.85 120.79C197.85 120.79 195.38 132.03 197.68 133.73C197.68 133.73 199.72 137.48 210.53 132.03C210.53 132.03 223.47 125.31 225.34 123.35C227.21 121.39 218.79 117.31 217.51 116.54C216.23 115.77 207.21 110.75 204.74 106.07L211.04 100.54C211.04 100.54 214.38 103.35 217.36 103.69L217.72 104.66C217.72 104.66 214.96 105.01 213.34 103.39C213.34 103.39 213.47 105.6 215.94 106.54C218.41 107.48 226.45 110.71 228.62 115.18C229.6 117.2 229.08 125.65 226.79 128.88L226.78 128.87Z" fill="#99924B"/>
<path d="M206.17 97.28L204.07 99.49C204.07 99.49 203.8 95.32 203.97 95.3C205.08 95.17 207.19 96.54 206.17 97.27V97.28Z" fill="white"/>
<path d="M150.1 298.2C231.893 298.2 298.2 231.893 298.2 150.1C298.2 68.3066 231.893 2 150.1 2C68.3066 2 2 68.3066 2 150.1C2 231.893 68.3066 298.2 150.1 298.2Z" stroke="#99924B" stroke-width="4" stroke-miterlimit="10"/>
</g>
<defs>
<clipPath id="clip0_39_59">
<rect width="300.2" height="300.2" fill="white"/>
</clipPath>
</defs>
</svg>
