<svg width="284" height="315" viewBox="0 0 284 315" fill="none" xmlns="http://www.w3.org/2000/svg">
<g clip-path="url(#clip0_13_2)">
<path d="M152.21 0.5C224.624 0.50019 283.331 59.2862 283.331 131.62C283.331 203.954 224.743 262.621 152.439 262.74H152.21C79.7967 262.74 21.1002 204.034 21.1001 131.62V131.44L21.1128 129.748C22.1166 58.1944 80.4216 0.5 152.21 0.5ZM152.21 5.23047C82.4645 5.23047 25.9202 61.7137 25.8198 131.439V131.62C25.8199 201.426 82.4043 258.01 152.21 258.01H152.441C222.136 257.889 278.61 201.426 278.61 131.62C278.61 61.8139 221.956 5.23066 152.21 5.23047Z" fill="black" stroke="black"/>
<path d="M152.5 70.2832C119.034 70.5519 92 97.7609 92 131.29C92 164.986 119.314 192.3 153.01 192.3C182.851 192.3 207.688 170.871 212.976 142.561H244.235C238.684 188.012 199.951 223.21 153 223.21C102.236 223.21 61.0801 182.054 61.0801 131.29C61.0801 80.693 101.966 39.6423 152.5 39.373V70.2832Z" fill="black" stroke="black"/>
<mask id="path-3-inside-1_13_2" fill="white">
<path fill-rule="evenodd" clip-rule="evenodd" d="M212.55 142.06C207.47 170.34 182.74 191.8 153 191.8C152.81 191.8 152.63 191.8 152.44 191.79C151.95 191.79 151.45 191.78 150.96 191.76C150.9 191.76 150.85 191.76 150.79 191.75C150.31 191.74 149.83 191.71 149.35 191.68C148.33 191.62 147.32 191.54 146.32 191.43C146.3 191.43 146.28 191.42 146.25 191.42C145.76 191.37 145.28 191.31 144.79 191.24C144.29 191.17 143.8 191.1 143.3 191.02C142.31 190.86 141.33 190.68 140.35 190.47H140.32C139.84 190.36 139.36 190.25 138.88 190.14C138.4 190.02 137.92 189.9 137.44 189.78C136.96 189.65 136.48 189.52 136.01 189.38C135.53 189.24 135.06 189.09 134.59 188.94C134.12 188.8 133.66 188.64 133.19 188.48C132.73 188.32 132.27 188.15 131.81 187.98C131.35 187.81 130.89 187.63 130.44 187.45C129.98 187.27 129.53 187.08 129.08 186.89C128.63 186.69 128.19 186.49 127.75 186.29C126.42 185.68 125.12 185.02 123.84 184.32C123.42 184.09 122.99 183.85 122.58 183.61C122.16 183.36 121.74 183.11 121.32 182.86C120.91 182.6 120.51 182.35 120.1 182.08C119.7 181.82 119.3 181.55 118.9 181.28C118.5 181.01 118.1 180.73 117.71 180.45C117.32 180.17 116.93 179.88 116.55 179.59C116.16 179.3 115.78 179.01 115.41 178.71C115.03 178.41 114.65 178.1 114.28 177.79C113.91 177.49 113.55 177.17 113.19 176.86C112.82 176.54 112.47 176.22 112.11 175.89C111.76 175.57 111.41 175.24 111.06 174.9C110.71 174.57 110.37 174.23 110.03 173.89C109.69 173.55 109.36 173.2 109.03 172.85C108.7 172.5 108.37 172.15 108.05 171.79C107.72 171.44 107.41 171.07 107.09 170.71C106.78 170.34 106.47 169.98 106.16 169.6C105.86 169.23 105.56 168.85 105.26 168.47C104.67 167.71 104.09 166.94 103.54 166.15C103.26 165.76 102.99 165.36 102.72 164.96C102.18 164.16 101.66 163.34 101.16 162.51C100.91 162.1 100.66 161.68 100.42 161.26C99.6401 159.88 98.9001 158.47 98.2201 157.03C98.0701 156.71 97.9201 156.39 97.7801 156.06C97.4001 155.24 97.0501 154.4 96.7201 153.56C96.5101 153.04 96.3101 152.52 96.1201 151.98C95.9601 151.52 95.7901 151.06 95.6401 150.59C95.4801 150.13 95.3301 149.66 95.1801 149.19C94.9001 148.27 94.6301 147.35 94.3901 146.41C94.1401 145.42 93.9101 144.43 93.7101 143.42C93.5101 142.46 93.3401 141.49 93.1901 140.51C93.0101 139.34 92.8601 138.16 92.7601 136.96C92.6801 136.14 92.6201 135.32 92.5801 134.5C92.5201 133.43 92.4901 132.37 92.4901 131.29C92.4901 97.8801 119.58 70.7901 153 70.7901V38.8701C152.76 38.8701 152.52 38.8701 152.28 38.8801C151.49 38.8901 150.7 38.9001 149.91 38.9301C149.22 38.9501 148.52 38.9801 147.83 39.0201H147.74C147.53 39.0401 147.32 39.0501 147.11 39.0601C147.04 39.0601 146.98 39.0701 146.91 39.0701C146.35 39.1101 145.78 39.1601 145.23 39.2001H145.19C145.04 39.2001 144.89 39.2301 144.75 39.2401C144.2 39.2901 143.65 39.3401 143.11 39.4001C142.9 39.4201 142.69 39.4401 142.48 39.4701C141.88 39.5401 141.28 39.6101 140.69 39.6901H140.67C140.52 39.7101 140.37 39.7301 140.22 39.7501C139.62 39.8301 139.03 39.9201 138.44 40.0201C138.34 40.0301 138.23 40.0501 138.13 40.0701C137.43 40.1801 136.73 40.3001 136.03 40.4301C135.28 40.5701 134.53 40.7201 133.78 40.8801C133.04 41.0301 132.31 41.2001 131.58 41.3701C131.55 41.3801 131.51 41.3901 131.48 41.4001C130.8 41.5601 130.12 41.7201 129.45 41.9001C129.26 41.9501 129.06 42.0001 128.87 42.0601C128.36 42.1901 127.85 42.3301 127.35 42.4801C126.34 42.7701 125.33 43.0801 124.33 43.4201C124.26 43.4401 124.18 43.4601 124.11 43.4901C123.86 43.5601 123.61 43.6401 123.36 43.7301C123.23 43.7801 123.1 43.8201 122.96 43.8701C122.83 43.9101 122.7 43.9601 122.56 44.0101C122.54 44.0101 122.53 44.0101 122.51 44.0301C121.91 44.2301 121.31 44.4501 120.72 44.6701C120.02 44.9301 119.32 45.2001 118.63 45.4801C117.95 45.7501 117.28 46.0301 116.61 46.3201C116.58 46.3301 116.56 46.3401 116.53 46.3501C116.08 46.5401 115.63 46.7401 115.18 46.9401C115.08 46.9901 114.98 47.0301 114.88 47.0801C114.81 47.1101 114.73 47.1401 114.66 47.1801C114.12 47.4201 113.58 47.6701 113.05 47.9301C112.64 48.1301 112.23 48.3301 111.82 48.5401C111.42 48.7301 111.03 48.9301 110.63 49.1401C110.06 49.4301 109.49 49.7301 108.93 50.0401C108.28 50.3901 107.63 50.7501 107 51.1201C106.41 51.4501 105.83 51.8001 105.25 52.1501C103.92 52.9501 102.61 53.7901 101.33 54.6601C100.93 54.9301 100.53 55.2001 100.14 55.4801C99.7301 55.7601 99.3301 56.0501 98.9301 56.3401C98.1801 56.8801 97.4401 57.4301 96.7101 57.9901C96.6201 58.0601 96.5301 58.1301 96.4401 58.2001C96.1301 58.4401 95.8201 58.6801 95.5201 58.9201C93.9201 60.1901 92.3701 61.5101 90.8601 62.8801C90.3101 63.3801 89.7701 63.8801 89.2401 64.3901C88.7901 64.8201 88.3401 65.2601 87.9001 65.7001C87.7501 65.8501 87.6001 65.9901 87.4501 66.1401C87.0001 66.6001 86.5501 67.0601 86.1001 67.5301C85.7301 67.9101 85.3701 68.3001 85.0201 68.6901C84.9101 68.8001 84.8101 68.9201 84.7101 69.0301C84.5001 69.2601 84.2801 69.5001 84.0801 69.7301C83.5801 70.2701 83.1001 70.8201 82.6301 71.3801C82.4101 71.6401 82.1801 71.9001 81.9601 72.1701C81.8101 72.3601 81.6501 72.5401 81.5001 72.7301C81.2101 73.0801 80.9301 73.4201 80.6501 73.7801C80.4701 74.0001 80.3001 74.2301 80.1201 74.4601C79.5701 75.1601 79.0301 75.8701 78.5001 76.5901C78.4301 76.6801 78.3701 76.7701 78.3001 76.8701C77.7901 77.5601 77.2901 78.2701 76.8001 78.9801C76.7901 78.9901 76.7901 79.0001 76.7801 79.0101C76.2901 79.7201 75.8101 80.4401 75.3401 81.1701C75.2701 81.2701 75.2101 81.3801 75.1401 81.4801C74.6701 82.2201 74.2001 82.9701 73.7501 83.7301C73.7401 83.7301 73.7401 83.7401 73.7401 83.7401C73.7301 83.7501 73.7201 83.7701 73.7201 83.7801C73.3701 84.3501 73.0401 84.9101 72.7201 85.4801C72.4401 85.9701 72.1601 86.4601 71.8901 86.9601C71.6501 87.4101 71.4101 87.8601 71.1601 88.3101C71.1301 88.3801 71.0901 88.4501 71.0601 88.5201C70.8101 89.0001 70.5601 89.4801 70.3201 89.9601C70.0601 90.4601 69.8201 90.9701 69.5701 91.4801C69.2601 92.1201 68.9601 92.7701 68.6701 93.4201C67.4501 96.1401 66.3501 98.9301 65.3901 101.78C65.1501 102.49 64.9201 103.21 64.7001 103.93C64.6101 104.22 64.5201 104.51 64.4401 104.81C64.3101 105.21 64.1901 105.62 64.0801 106.03C63.8701 106.75 63.6801 107.47 63.4901 108.19C63.3001 108.93 63.1201 109.67 62.9501 110.42C62.7801 111.14 62.6201 111.87 62.4701 112.6C62.4601 112.63 62.4601 112.66 62.4501 112.69C62.3401 113.26 62.2301 113.82 62.1201 114.39C62.0801 114.6 62.0501 114.8 62.0101 115.01C61.9201 115.51 61.8301 116.02 61.7601 116.52C61.6901 116.94 61.6201 117.37 61.5601 117.8C61.4201 118.77 61.2901 119.74 61.1801 120.73C61.1301 121.1 61.0901 121.47 61.0601 121.84C61.0001 122.4 60.9501 122.96 60.9101 123.52C60.8601 124.16 60.8101 124.8 60.7701 125.45C60.7301 125.95 60.7001 126.46 60.6801 126.97C60.6601 127.47 60.6401 127.96 60.6301 128.45C60.5901 129.39 60.5801 130.34 60.5801 131.29C60.5801 133.83 60.6801 136.35 60.8901 138.84C60.9701 139.93 61.0801 141.01 61.2101 142.09C61.2401 142.41 61.2801 142.74 61.3201 143.06C61.5201 144.58 61.7501 146.09 62.0101 147.59C62.0401 147.75 62.0701 147.9 62.1001 148.05C62.2101 148.68 62.3301 149.3 62.4601 149.92C62.9201 152.19 63.4701 154.43 64.1001 156.64C64.5001 158.05 64.9401 159.45 65.4001 160.83C65.6201 161.49 65.8501 162.15 66.0901 162.8C66.1501 162.98 66.2201 163.15 66.2801 163.32C66.5101 163.95 66.7501 164.57 66.9901 165.18C67.5201 166.53 68.0901 167.88 68.6901 169.2C68.9901 169.88 69.3101 170.56 69.6301 171.23C69.9701 171.95 70.3301 172.66 70.6901 173.37C71.3401 174.65 72.0301 175.91 72.7401 177.15C73.1101 177.79 73.4801 178.43 73.8701 179.06C74.2401 179.69 74.6301 180.31 75.0301 180.93C77.0201 184.06 79.1901 187.05 81.5401 189.91C81.8501 190.29 82.1601 190.66 82.4901 191.04C83.3001 192 84.1201 192.94 84.9701 193.85C85.3401 194.26 85.7201 194.66 86.1001 195.06C90.8101 200 96.0601 204.42 101.76 208.22C102.23 208.54 102.71 208.86 103.19 209.16C104.96 210.3 106.78 211.37 108.63 212.39C109.1 212.65 109.57 212.9 110.05 213.15C110.89 213.59 111.74 214.02 112.59 214.44C113.26 214.76 113.93 215.08 114.61 215.39C115.29 215.7 115.97 216 116.66 216.3C117.17 216.52 117.69 216.73 118.21 216.94C119.08 217.3 119.95 217.64 120.83 217.96C121.53 218.23 122.24 218.48 122.95 218.72C123.67 218.97 124.38 219.2 125.1 219.43C125.62 219.6 126.15 219.76 126.68 219.91C127.6 220.19 128.53 220.45 129.46 220.69C130.13 220.87 130.79 221.03 131.46 221.19C131.56 221.22 131.65 221.24 131.74 221.26C132.42 221.42 133.09 221.57 133.77 221.71C133.83 221.72 133.88 221.74 133.94 221.75C136.17 222.21 138.44 222.6 140.73 222.91C141.49 223.01 142.26 223.1 143.04 223.18C143.81 223.26 144.59 223.34 145.36 223.4C146.9 223.53 148.45 223.61 150.01 223.67H150.09C150.87 223.69 151.65 223.71 152.44 223.71C152.63 223.72 152.81 223.72 153 223.72C153.74 223.72 154.48 223.71 155.22 223.69C155.79 223.68 156.37 223.66 156.94 223.64C157.2 223.63 157.45 223.62 157.7 223.6C158.08 223.58 158.45 223.56 158.83 223.54C159.11 223.52 159.4 223.5 159.68 223.48C160.53 223.42 161.38 223.35 162.22 223.26C162.71 223.22 163.2 223.16 163.69 223.11C163.83 223.09 163.97 223.08 164.11 223.06C164.71 222.99 165.31 222.91 165.91 222.82C166.02 222.81 166.12 222.8 166.23 222.78C166.9 222.68 167.56 222.58 168.22 222.47C168.9 222.36 169.57 222.24 170.25 222.11C170.84 222 171.44 221.88 172.03 221.75C172.32 221.69 172.61 221.63 172.89 221.57C173.36 221.47 173.83 221.36 174.3 221.25C174.76 221.14 175.21 221.03 175.67 220.91C176.04 220.82 176.41 220.73 176.78 220.63C177.46 220.45 178.14 220.26 178.81 220.06C179.28 219.93 179.76 219.79 180.23 219.64C180.61 219.52 180.99 219.41 181.37 219.28C182.41 218.95 183.45 218.59 184.47 218.22C185.13 217.98 185.78 217.74 186.43 217.49C187.16 217.2 187.89 216.91 188.61 216.61C189.16 216.38 189.7 216.15 190.24 215.91C190.37 215.85 190.5 215.8 190.63 215.74C191.07 215.54 191.5 215.35 191.93 215.14C192.16 215.04 192.39 214.93 192.62 214.82C193.16 214.57 193.69 214.31 194.22 214.04C195.17 213.56 196.12 213.07 197.05 212.56C197.49 212.32 197.93 212.08 198.37 211.83C198.6 211.7 198.82 211.58 199.04 211.45C199.53 211.17 200.02 210.88 200.5 210.59C200.7 210.47 200.89 210.35 201.09 210.23C201.73 209.84 202.36 209.45 202.99 209.04C203.34 208.82 203.7 208.59 204.04 208.35C204.09 208.32 204.13 208.29 204.18 208.26C204.43 208.09 204.69 207.92 204.94 207.75C205.51 207.37 206.07 206.97 206.63 206.57C207.31 206.08 207.99 205.59 208.66 205.08C209.22 204.66 209.78 204.23 210.33 203.79C210.33 203.79 210.337 203.783 210.35 203.77C211.29 203.03 212.21 202.27 213.12 201.49C213.64 201.04 214.16 200.59 214.67 200.13C215.34 199.54 215.99 198.93 216.64 198.31C216.99 197.98 217.33 197.65 217.68 197.31C218.2 196.8 218.72 196.28 219.22 195.76C219.73 195.24 220.23 194.72 220.72 194.18C221.14 193.74 221.54 193.29 221.94 192.84C222.33 192.42 222.7 191.99 223.08 191.55C223.51 191.05 223.93 190.54 224.35 190.03C224.6 189.74 224.84 189.45 225.08 189.14C225.09 189.12 225.11 189.09 225.13 189.07C225.39 188.75 225.65 188.43 225.9 188.1C226.24 187.67 226.57 187.24 226.89 186.81C227.17 186.44 227.44 186.07 227.71 185.7C228.08 185.19 228.44 184.69 228.8 184.17C228.93 183.99 229.05 183.81 229.18 183.63C229.53 183.13 229.87 182.62 230.2 182.11C230.22 182.08 230.24 182.05 230.26 182.02C230.67 181.41 231.06 180.79 231.44 180.17C231.84 179.54 232.22 178.91 232.6 178.27C232.78 177.98 232.95 177.68 233.12 177.38C233.3 177.08 233.46 176.78 233.63 176.48C233.97 175.88 234.3 175.28 234.62 174.67C234.89 174.18 235.14 173.69 235.39 173.19C235.58 172.83 235.76 172.48 235.93 172.12C236.2 171.58 236.46 171.03 236.72 170.48C237 169.89 237.28 169.28 237.54 168.68C237.59 168.58 237.64 168.47 237.68 168.36C237.9 167.87 238.11 167.38 238.31 166.88C238.4 166.66 238.49 166.45 238.58 166.23C238.71 165.91 238.84 165.59 238.97 165.26C239.08 165 239.18 164.75 239.27 164.49C239.37 164.23 239.47 163.97 239.57 163.71C239.87 162.92 240.16 162.12 240.43 161.31C240.63 160.73 240.82 160.15 241.01 159.57C241.04 159.47 241.08 159.37 241.1 159.28C241.28 158.71 241.45 158.15 241.62 157.58C241.64 157.52 241.66 157.45 241.68 157.39C241.69 157.37 241.7 157.35 241.7 157.33C241.89 156.67 242.08 156.01 242.25 155.35C242.26 155.34 242.26 155.32 242.26 155.31C242.37 154.9 242.48 154.49 242.58 154.08C242.6 154.02 242.61 153.96 242.63 153.9C242.73 153.5 242.83 153.1 242.92 152.7C242.94 152.64 242.96 152.58 242.97 152.51C243.11 151.93 243.24 151.35 243.36 150.76C243.5 150.14 243.62 149.53 243.74 148.9C243.8 148.62 243.85 148.33 243.9 148.04C243.96 147.75 244 147.46 244.05 147.18C244.07 147.1 244.08 147.03 244.09 146.96C244.21 146.28 244.32 145.6 244.42 144.91C244.47 144.56 244.52 144.22 244.57 143.87C244.62 143.52 244.66 143.17 244.7 142.82C244.71 142.81 244.71 142.79 244.71 142.78C244.74 142.54 244.77 142.3 244.8 142.06H212.55ZM153 223C152.81 223 152.63 223 152.44 222.99C102.05 222.7 61.2901 181.75 61.2901 131.29C61.2901 80.8301 101.96 39.9801 152.28 39.5901V70.0801C118.8 70.4601 91.7801 97.7201 91.7801 131.29C91.7801 164.86 118.89 192.22 152.44 192.51C152.63 192.51 152.81 192.51 153 192.51C182.89 192.51 207.77 171.09 213.15 142.77H243.99C238.34 188 199.75 222.99 153 222.99V223Z"/>
</mask>
<path fill-rule="evenodd" clip-rule="evenodd" d="M212.55 142.06C207.47 170.34 182.74 191.8 153 191.8C152.81 191.8 152.63 191.8 152.44 191.79C151.95 191.79 151.45 191.78 150.96 191.76C150.9 191.76 150.85 191.76 150.79 191.75C150.31 191.74 149.83 191.71 149.35 191.68C148.33 191.62 147.32 191.54 146.32 191.43C146.3 191.43 146.28 191.42 146.25 191.42C145.76 191.37 145.28 191.31 144.79 191.24C144.29 191.17 143.8 191.1 143.3 191.02C142.31 190.86 141.33 190.68 140.35 190.47H140.32C139.84 190.36 139.36 190.25 138.88 190.14C138.4 190.02 137.92 189.9 137.44 189.78C136.96 189.65 136.48 189.52 136.01 189.38C135.53 189.24 135.06 189.09 134.59 188.94C134.12 188.8 133.66 188.64 133.19 188.48C132.73 188.32 132.27 188.15 131.81 187.98C131.35 187.81 130.89 187.63 130.44 187.45C129.98 187.27 129.53 187.08 129.08 186.89C128.63 186.69 128.19 186.49 127.75 186.29C126.42 185.68 125.12 185.02 123.84 184.32C123.42 184.09 122.99 183.85 122.58 183.61C122.16 183.36 121.74 183.11 121.32 182.86C120.91 182.6 120.51 182.35 120.1 182.08C119.7 181.82 119.3 181.55 118.9 181.28C118.5 181.01 118.1 180.73 117.71 180.45C117.32 180.17 116.93 179.88 116.55 179.59C116.16 179.3 115.78 179.01 115.41 178.71C115.03 178.41 114.65 178.1 114.28 177.79C113.91 177.49 113.55 177.17 113.19 176.86C112.82 176.54 112.47 176.22 112.11 175.89C111.76 175.57 111.41 175.24 111.06 174.9C110.71 174.57 110.37 174.23 110.03 173.89C109.69 173.55 109.36 173.2 109.03 172.85C108.7 172.5 108.37 172.15 108.05 171.79C107.72 171.44 107.41 171.07 107.09 170.71C106.78 170.34 106.47 169.98 106.16 169.6C105.86 169.23 105.56 168.85 105.26 168.47C104.67 167.71 104.09 166.94 103.54 166.15C103.26 165.76 102.99 165.36 102.72 164.96C102.18 164.16 101.66 163.34 101.16 162.51C100.91 162.1 100.66 161.68 100.42 161.26C99.6401 159.88 98.9001 158.47 98.2201 157.03C98.0701 156.71 97.9201 156.39 97.7801 156.06C97.4001 155.24 97.0501 154.4 96.7201 153.56C96.5101 153.04 96.3101 152.52 96.1201 151.98C95.9601 151.52 95.7901 151.06 95.6401 150.59C95.4801 150.13 95.3301 149.66 95.1801 149.19C94.9001 148.27 94.6301 147.35 94.3901 146.41C94.1401 145.42 93.9101 144.43 93.7101 143.42C93.5101 142.46 93.3401 141.49 93.1901 140.51C93.0101 139.34 92.8601 138.16 92.7601 136.96C92.6801 136.14 92.6201 135.32 92.5801 134.5C92.5201 133.43 92.4901 132.37 92.4901 131.29C92.4901 97.8801 119.58 70.7901 153 70.7901V38.8701C152.76 38.8701 152.52 38.8701 152.28 38.8801C151.49 38.8901 150.7 38.9001 149.91 38.9301C149.22 38.9501 148.52 38.9801 147.83 39.0201H147.74C147.53 39.0401 147.32 39.0501 147.11 39.0601C147.04 39.0601 146.98 39.0701 146.91 39.0701C146.35 39.1101 145.78 39.1601 145.23 39.2001H145.19C145.04 39.2001 144.89 39.2301 144.75 39.2401C144.2 39.2901 143.65 39.3401 143.11 39.4001C142.9 39.4201 142.69 39.4401 142.48 39.4701C141.88 39.5401 141.28 39.6101 140.69 39.6901H140.67C140.52 39.7101 140.37 39.7301 140.22 39.7501C139.62 39.8301 139.03 39.9201 138.44 40.0201C138.34 40.0301 138.23 40.0501 138.13 40.0701C137.43 40.1801 136.73 40.3001 136.03 40.4301C135.28 40.5701 134.53 40.7201 133.78 40.8801C133.04 41.0301 132.31 41.2001 131.58 41.3701C131.55 41.3801 131.51 41.3901 131.48 41.4001C130.8 41.5601 130.12 41.7201 129.45 41.9001C129.26 41.9501 129.06 42.0001 128.87 42.0601C128.36 42.1901 127.85 42.3301 127.35 42.4801C126.34 42.7701 125.33 43.0801 124.33 43.4201C124.26 43.4401 124.18 43.4601 124.11 43.4901C123.86 43.5601 123.61 43.6401 123.36 43.7301C123.23 43.7801 123.1 43.8201 122.96 43.8701C122.83 43.9101 122.7 43.9601 122.56 44.0101C122.54 44.0101 122.53 44.0101 122.51 44.0301C121.91 44.2301 121.31 44.4501 120.72 44.6701C120.02 44.9301 119.32 45.2001 118.63 45.4801C117.95 45.7501 117.28 46.0301 116.61 46.3201C116.58 46.3301 116.56 46.3401 116.53 46.3501C116.08 46.5401 115.63 46.7401 115.18 46.9401C115.08 46.9901 114.98 47.0301 114.88 47.0801C114.81 47.1101 114.73 47.1401 114.66 47.1801C114.12 47.4201 113.58 47.6701 113.05 47.9301C112.64 48.1301 112.23 48.3301 111.82 48.5401C111.42 48.7301 111.03 48.9301 110.63 49.1401C110.06 49.4301 109.49 49.7301 108.93 50.0401C108.28 50.3901 107.63 50.7501 107 51.1201C106.41 51.4501 105.83 51.8001 105.25 52.1501C103.92 52.9501 102.61 53.7901 101.33 54.6601C100.93 54.9301 100.53 55.2001 100.14 55.4801C99.7301 55.7601 99.3301 56.0501 98.9301 56.3401C98.1801 56.8801 97.4401 57.4301 96.7101 57.9901C96.6201 58.0601 96.5301 58.1301 96.4401 58.2001C96.1301 58.4401 95.8201 58.6801 95.5201 58.9201C93.9201 60.1901 92.3701 61.5101 90.8601 62.8801C90.3101 63.3801 89.7701 63.8801 89.2401 64.3901C88.7901 64.8201 88.3401 65.2601 87.9001 65.7001C87.7501 65.8501 87.6001 65.9901 87.4501 66.1401C87.0001 66.6001 86.5501 67.0601 86.1001 67.5301C85.7301 67.9101 85.3701 68.3001 85.0201 68.6901C84.9101 68.8001 84.8101 68.9201 84.7101 69.0301C84.5001 69.2601 84.2801 69.5001 84.0801 69.7301C83.5801 70.2701 83.1001 70.8201 82.6301 71.3801C82.4101 71.6401 82.1801 71.9001 81.9601 72.1701C81.8101 72.3601 81.6501 72.5401 81.5001 72.7301C81.2101 73.0801 80.9301 73.4201 80.6501 73.7801C80.4701 74.0001 80.3001 74.2301 80.1201 74.4601C79.5701 75.1601 79.0301 75.8701 78.5001 76.5901C78.4301 76.6801 78.3701 76.7701 78.3001 76.8701C77.7901 77.5601 77.2901 78.2701 76.8001 78.9801C76.7901 78.9901 76.7901 79.0001 76.7801 79.0101C76.2901 79.7201 75.8101 80.4401 75.3401 81.1701C75.2701 81.2701 75.2101 81.3801 75.1401 81.4801C74.6701 82.2201 74.2001 82.9701 73.7501 83.7301C73.7401 83.7301 73.7401 83.7401 73.7401 83.7401C73.7301 83.7501 73.7201 83.7701 73.7201 83.7801C73.3701 84.3501 73.0401 84.9101 72.7201 85.4801C72.4401 85.9701 72.1601 86.4601 71.8901 86.9601C71.6501 87.4101 71.4101 87.8601 71.1601 88.3101C71.1301 88.3801 71.0901 88.4501 71.0601 88.5201C70.8101 89.0001 70.5601 89.4801 70.3201 89.9601C70.0601 90.4601 69.8201 90.9701 69.5701 91.4801C69.2601 92.1201 68.9601 92.7701 68.6701 93.4201C67.4501 96.1401 66.3501 98.9301 65.3901 101.78C65.1501 102.49 64.9201 103.21 64.7001 103.93C64.6101 104.22 64.5201 104.51 64.4401 104.81C64.3101 105.21 64.1901 105.62 64.0801 106.03C63.8701 106.75 63.6801 107.47 63.4901 108.19C63.3001 108.93 63.1201 109.67 62.9501 110.42C62.7801 111.14 62.6201 111.87 62.4701 112.6C62.4601 112.63 62.4601 112.66 62.4501 112.69C62.3401 113.26 62.2301 113.82 62.1201 114.39C62.0801 114.6 62.0501 114.8 62.0101 115.01C61.9201 115.51 61.8301 116.02 61.7601 116.52C61.6901 116.94 61.6201 117.37 61.5601 117.8C61.4201 118.77 61.2901 119.74 61.1801 120.73C61.1301 121.1 61.0901 121.47 61.0601 121.84C61.0001 122.4 60.9501 122.96 60.9101 123.52C60.8601 124.16 60.8101 124.8 60.7701 125.45C60.7301 125.95 60.7001 126.46 60.6801 126.97C60.6601 127.47 60.6401 127.96 60.6301 128.45C60.5901 129.39 60.5801 130.34 60.5801 131.29C60.5801 133.83 60.6801 136.35 60.8901 138.84C60.9701 139.93 61.0801 141.01 61.2101 142.09C61.2401 142.41 61.2801 142.74 61.3201 143.06C61.5201 144.58 61.7501 146.09 62.0101 147.59C62.0401 147.75 62.0701 147.9 62.1001 148.05C62.2101 148.68 62.3301 149.3 62.4601 149.92C62.9201 152.19 63.4701 154.43 64.1001 156.64C64.5001 158.05 64.9401 159.45 65.4001 160.83C65.6201 161.49 65.8501 162.15 66.0901 162.8C66.1501 162.98 66.2201 163.15 66.2801 163.32C66.5101 163.95 66.7501 164.57 66.9901 165.18C67.5201 166.53 68.0901 167.88 68.6901 169.2C68.9901 169.88 69.3101 170.56 69.6301 171.23C69.9701 171.95 70.3301 172.66 70.6901 173.37C71.3401 174.65 72.0301 175.91 72.7401 177.15C73.1101 177.79 73.4801 178.43 73.8701 179.06C74.2401 179.69 74.6301 180.31 75.0301 180.93C77.0201 184.06 79.1901 187.05 81.5401 189.91C81.8501 190.29 82.1601 190.66 82.4901 191.04C83.3001 192 84.1201 192.94 84.9701 193.85C85.3401 194.26 85.7201 194.66 86.1001 195.06C90.8101 200 96.0601 204.42 101.76 208.22C102.23 208.54 102.71 208.86 103.19 209.16C104.96 210.3 106.78 211.37 108.63 212.39C109.1 212.65 109.57 212.9 110.05 213.15C110.89 213.59 111.74 214.02 112.59 214.44C113.26 214.76 113.93 215.08 114.61 215.39C115.29 215.7 115.97 216 116.66 216.3C117.17 216.52 117.69 216.73 118.21 216.94C119.08 217.3 119.95 217.64 120.83 217.96C121.53 218.23 122.24 218.48 122.95 218.72C123.67 218.97 124.38 219.2 125.1 219.43C125.62 219.6 126.15 219.76 126.68 219.91C127.6 220.19 128.53 220.45 129.46 220.69C130.13 220.87 130.79 221.03 131.46 221.19C131.56 221.22 131.65 221.24 131.74 221.26C132.42 221.42 133.09 221.57 133.77 221.71C133.83 221.72 133.88 221.74 133.94 221.75C136.17 222.21 138.44 222.6 140.73 222.91C141.49 223.01 142.26 223.1 143.04 223.18C143.81 223.26 144.59 223.34 145.36 223.4C146.9 223.53 148.45 223.61 150.01 223.67H150.09C150.87 223.69 151.65 223.71 152.44 223.71C152.63 223.72 152.81 223.72 153 223.72C153.74 223.72 154.48 223.71 155.22 223.69C155.79 223.68 156.37 223.66 156.94 223.64C157.2 223.63 157.45 223.62 157.7 223.6C158.08 223.58 158.45 223.56 158.83 223.54C159.11 223.52 159.4 223.5 159.68 223.48C160.53 223.42 161.38 223.35 162.22 223.26C162.71 223.22 163.2 223.16 163.69 223.11C163.83 223.09 163.97 223.08 164.11 223.06C164.71 222.99 165.31 222.91 165.91 222.82C166.02 222.81 166.12 222.8 166.23 222.78C166.9 222.68 167.56 222.58 168.22 222.47C168.9 222.36 169.57 222.24 170.25 222.11C170.84 222 171.44 221.88 172.03 221.75C172.32 221.69 172.61 221.63 172.89 221.57C173.36 221.47 173.83 221.36 174.3 221.25C174.76 221.14 175.21 221.03 175.67 220.91C176.04 220.82 176.41 220.73 176.78 220.63C177.46 220.45 178.14 220.26 178.81 220.06C179.28 219.93 179.76 219.79 180.23 219.64C180.61 219.52 180.99 219.41 181.37 219.28C182.41 218.95 183.45 218.59 184.47 218.22C185.13 217.98 185.78 217.74 186.43 217.49C187.16 217.2 187.89 216.91 188.61 216.61C189.16 216.38 189.7 216.15 190.24 215.91C190.37 215.85 190.5 215.8 190.63 215.74C191.07 215.54 191.5 215.35 191.93 215.14C192.16 215.04 192.39 214.93 192.62 214.82C193.16 214.57 193.69 214.31 194.22 214.04C195.17 213.56 196.12 213.07 197.05 212.56C197.49 212.32 197.93 212.08 198.37 211.83C198.6 211.7 198.82 211.58 199.04 211.45C199.53 211.17 200.02 210.88 200.5 210.59C200.7 210.47 200.89 210.35 201.09 210.23C201.73 209.84 202.36 209.45 202.99 209.04C203.34 208.82 203.7 208.59 204.04 208.35C204.09 208.32 204.13 208.29 204.18 208.26C204.43 208.09 204.69 207.92 204.94 207.75C205.51 207.37 206.07 206.97 206.63 206.57C207.31 206.08 207.99 205.59 208.66 205.08C209.22 204.66 209.78 204.23 210.33 203.79C210.33 203.79 210.337 203.783 210.35 203.77C211.29 203.03 212.21 202.27 213.12 201.49C213.64 201.04 214.16 200.59 214.67 200.13C215.34 199.54 215.99 198.93 216.64 198.31C216.99 197.98 217.33 197.65 217.68 197.31C218.2 196.8 218.72 196.28 219.22 195.76C219.73 195.24 220.23 194.72 220.72 194.18C221.14 193.74 221.54 193.29 221.94 192.84C222.33 192.42 222.7 191.99 223.08 191.55C223.51 191.05 223.93 190.54 224.35 190.03C224.6 189.74 224.84 189.45 225.08 189.14C225.09 189.12 225.11 189.09 225.13 189.07C225.39 188.75 225.65 188.43 225.9 188.1C226.24 187.67 226.57 187.24 226.89 186.81C227.17 186.44 227.44 186.07 227.71 185.7C228.08 185.19 228.44 184.69 228.8 184.17C228.93 183.99 229.05 183.81 229.18 183.63C229.53 183.13 229.87 182.62 230.2 182.11C230.22 182.08 230.24 182.05 230.26 182.02C230.67 181.41 231.06 180.79 231.44 180.17C231.84 179.54 232.22 178.91 232.6 178.27C232.78 177.98 232.95 177.68 233.12 177.38C233.3 177.08 233.46 176.78 233.63 176.48C233.97 175.88 234.3 175.28 234.62 174.67C234.89 174.18 235.14 173.69 235.39 173.19C235.58 172.83 235.76 172.48 235.93 172.12C236.2 171.58 236.46 171.03 236.72 170.48C237 169.89 237.28 169.28 237.54 168.68C237.59 168.58 237.64 168.47 237.68 168.36C237.9 167.87 238.11 167.38 238.31 166.88C238.4 166.66 238.49 166.45 238.58 166.23C238.71 165.91 238.84 165.59 238.97 165.26C239.08 165 239.18 164.75 239.27 164.49C239.37 164.23 239.47 163.97 239.57 163.71C239.87 162.92 240.16 162.12 240.43 161.31C240.63 160.73 240.82 160.15 241.01 159.57C241.04 159.47 241.08 159.37 241.1 159.28C241.28 158.71 241.45 158.15 241.62 157.58C241.64 157.52 241.66 157.45 241.68 157.39C241.69 157.37 241.7 157.35 241.7 157.33C241.89 156.67 242.08 156.01 242.25 155.35C242.26 155.34 242.26 155.32 242.26 155.31C242.37 154.9 242.48 154.49 242.58 154.08C242.6 154.02 242.61 153.96 242.63 153.9C242.73 153.5 242.83 153.1 242.92 152.7C242.94 152.64 242.96 152.58 242.97 152.51C243.11 151.93 243.24 151.35 243.36 150.76C243.5 150.14 243.62 149.53 243.74 148.9C243.8 148.62 243.85 148.33 243.9 148.04C243.96 147.75 244 147.46 244.05 147.18C244.07 147.1 244.08 147.03 244.09 146.96C244.21 146.28 244.32 145.6 244.42 144.91C244.47 144.56 244.52 144.22 244.57 143.87C244.62 143.52 244.66 143.17 244.7 142.82C244.71 142.81 244.71 142.79 244.71 142.78C244.74 142.54 244.77 142.3 244.8 142.06H212.55ZM153 223C152.81 223 152.63 223 152.44 222.99C102.05 222.7 61.2901 181.75 61.2901 131.29C61.2901 80.8301 101.96 39.9801 152.28 39.5901V70.0801C118.8 70.4601 91.7801 97.7201 91.7801 131.29C91.7801 164.86 118.89 192.22 152.44 192.51C152.63 192.51 152.81 192.51 153 192.51C182.89 192.51 207.77 171.09 213.15 142.77H243.99C238.34 188 199.75 222.99 153 222.99V223Z" fill="black" stroke="black" stroke-width="2" mask="url(#path-3-inside-1_13_2)"/>
<path d="M152.5 70.2832C119.034 70.5519 92 97.7609 92 131.29C92 164.986 119.314 192.3 153.01 192.3C182.851 192.3 207.688 170.871 212.976 142.561H244.235C238.674 188.012 199.951 223.21 153 223.21C102.236 223.21 61.0801 182.054 61.0801 131.29C61.0801 80.693 101.966 39.6423 152.5 39.373V70.2832Z" fill="black" stroke="black"/>
<mask id="path-5-inside-2_13_2" fill="white">
<path fill-rule="evenodd" clip-rule="evenodd" d="M212.55 142.06C207.47 170.34 182.74 191.8 153 191.8C152.81 191.8 152.63 191.8 152.44 191.79C151.95 191.79 151.45 191.78 150.96 191.76C150.9 191.76 150.85 191.76 150.79 191.75C150.31 191.74 149.83 191.71 149.35 191.68C148.33 191.62 147.32 191.54 146.32 191.43C146.3 191.43 146.28 191.42 146.25 191.42C145.76 191.37 145.28 191.31 144.79 191.24C144.29 191.17 143.8 191.1 143.3 191.02C142.31 190.86 141.33 190.68 140.35 190.47H140.32C139.84 190.36 139.36 190.25 138.88 190.14C138.4 190.02 137.92 189.9 137.44 189.78C136.96 189.65 136.48 189.52 136.01 189.38C135.53 189.24 135.06 189.09 134.59 188.94C134.12 188.8 133.66 188.64 133.19 188.48C132.73 188.32 132.27 188.15 131.81 187.98C131.35 187.81 130.89 187.63 130.44 187.45C129.98 187.27 129.53 187.08 129.08 186.89C128.63 186.69 128.19 186.49 127.75 186.29C126.42 185.68 125.12 185.02 123.84 184.32C123.42 184.09 122.99 183.85 122.58 183.61C122.16 183.36 121.74 183.11 121.32 182.86C120.91 182.6 120.51 182.35 120.1 182.08C119.7 181.82 119.3 181.55 118.9 181.28C118.5 181.01 118.1 180.73 117.71 180.45C117.32 180.17 116.93 179.88 116.55 179.59C116.16 179.3 115.78 179.01 115.41 178.71C115.03 178.41 114.65 178.1 114.28 177.79C113.91 177.49 113.55 177.17 113.19 176.86C112.82 176.54 112.47 176.22 112.11 175.89C111.76 175.57 111.41 175.24 111.06 174.9C110.71 174.57 110.37 174.23 110.03 173.89C109.69 173.55 109.36 173.2 109.03 172.85C108.7 172.5 108.37 172.15 108.05 171.79C107.72 171.44 107.41 171.07 107.09 170.71C106.78 170.34 106.47 169.98 106.16 169.6C105.86 169.23 105.56 168.85 105.26 168.47C104.67 167.71 104.09 166.94 103.54 166.15C103.26 165.76 102.99 165.36 102.72 164.96C102.18 164.16 101.66 163.34 101.16 162.51C100.91 162.1 100.66 161.68 100.42 161.26C99.6401 159.88 98.9001 158.47 98.2201 157.03C98.0701 156.71 97.9201 156.39 97.7801 156.06C97.4001 155.24 97.0501 154.4 96.7201 153.56C96.5101 153.04 96.3101 152.52 96.1201 151.98C95.9601 151.52 95.7901 151.06 95.6401 150.59C95.4801 150.13 95.3301 149.66 95.1801 149.19C94.9001 148.27 94.6301 147.35 94.3901 146.41C94.1401 145.42 93.9101 144.43 93.7101 143.42C93.5101 142.46 93.3401 141.49 93.1901 140.51C93.0101 139.34 92.8601 138.16 92.7601 136.96C92.6801 136.14 92.6201 135.32 92.5801 134.5C92.5201 133.43 92.4901 132.37 92.4901 131.29C92.4901 97.8801 119.58 70.7901 153 70.7901V38.8701C152.76 38.8701 152.52 38.8701 152.28 38.8801C151.49 38.8901 150.7 38.9001 149.91 38.9301C149.22 38.9501 148.52 38.9801 147.83 39.0201H147.74C147.53 39.0401 147.32 39.0501 147.11 39.0601C147.04 39.0601 146.98 39.0701 146.91 39.0701C146.35 39.1101 145.78 39.1601 145.23 39.2001H145.19C145.04 39.2001 144.89 39.2301 144.75 39.2401C144.2 39.2901 143.65 39.3401 143.11 39.4001C142.9 39.4201 142.69 39.4401 142.48 39.4701C141.88 39.5401 141.28 39.6101 140.69 39.6901H140.67C140.52 39.7101 140.37 39.7301 140.22 39.7501C139.62 39.8301 139.03 39.9201 138.44 40.0201C138.34 40.0301 138.23 40.0501 138.13 40.0701C137.43 40.1801 136.73 40.3001 136.03 40.4301C135.28 40.5701 134.53 40.7201 133.78 40.8801C133.04 41.0301 132.31 41.2001 131.58 41.3701C131.55 41.3801 131.51 41.3901 131.48 41.4001C130.8 41.5601 130.12 41.7201 129.45 41.9001C129.26 41.9501 129.06 42.0001 128.87 42.0601C128.36 42.1901 127.85 42.3301 127.35 42.4801C126.34 42.7701 125.33 43.0801 124.33 43.4201C124.26 43.4401 124.18 43.4601 124.11 43.4901C123.86 43.5601 123.61 43.6401 123.36 43.7301C123.23 43.7801 123.1 43.8201 122.96 43.8701C122.83 43.9101 122.7 43.9601 122.56 44.0101C122.54 44.0101 122.53 44.0101 122.51 44.0301C121.91 44.2301 121.31 44.4501 120.72 44.6701C120.02 44.9301 119.32 45.2001 118.63 45.4801C117.95 45.7501 117.28 46.0301 116.61 46.3201C116.58 46.3301 116.56 46.3401 116.53 46.3501C116.08 46.5401 115.63 46.7401 115.18 46.9401C115.08 46.9901 114.98 47.0301 114.88 47.0801C114.81 47.1101 114.73 47.1401 114.66 47.1801C114.12 47.4201 113.58 47.6701 113.05 47.9301C112.64 48.1301 112.23 48.3301 111.82 48.5401C111.42 48.7301 111.03 48.9301 110.63 49.1401C110.06 49.4301 109.49 49.7301 108.93 50.0401C108.28 50.3901 107.63 50.7501 107 51.1201C106.41 51.4501 105.83 51.8001 105.25 52.1501C103.92 52.9501 102.61 53.7901 101.33 54.6601C100.93 54.9301 100.53 55.2001 100.14 55.4801C99.7301 55.7601 99.3301 56.0501 98.9301 56.3401C98.1801 56.8801 97.4401 57.4301 96.7101 57.9901C96.6201 58.0601 96.5301 58.1301 96.4401 58.2001C96.1301 58.4401 95.8201 58.6801 95.5201 58.9201C93.9201 60.1901 92.3701 61.5101 90.8601 62.8801C90.3101 63.3801 89.7701 63.8801 89.2401 64.3901C88.7901 64.8201 88.3401 65.2601 87.9001 65.7001C87.7501 65.8501 87.6001 65.9901 87.4501 66.1401C87.0001 66.6001 86.5501 67.0601 86.1001 67.5301C85.7301 67.9101 85.3701 68.3001 85.0201 68.6901C84.9101 68.8001 84.8101 68.9201 84.7101 69.0301C84.5001 69.2601 84.2801 69.5001 84.0801 69.7301C83.5801 70.2701 83.1001 70.8201 82.6301 71.3801C82.4101 71.6401 82.1801 71.9001 81.9601 72.1701C81.8101 72.3601 81.6501 72.5401 81.5001 72.7301C81.2101 73.0801 80.9301 73.4201 80.6501 73.7801C80.4701 74.0001 80.3001 74.2301 80.1201 74.4601C79.5701 75.1601 79.0301 75.8701 78.5001 76.5901C78.4301 76.6801 78.3701 76.7701 78.3001 76.8701C77.7901 77.5601 77.2901 78.2701 76.8001 78.9801C76.7901 78.9901 76.7901 79.0001 76.7801 79.0101C76.2901 79.7201 75.8101 80.4401 75.3401 81.1701C75.2701 81.2701 75.2101 81.3801 75.1401 81.4801C74.6701 82.2201 74.2001 82.9701 73.7501 83.7301C73.7401 83.7301 73.7401 83.7401 73.7401 83.7401C73.7301 83.7501 73.7201 83.7701 73.7201 83.7801C73.3701 84.3501 73.0401 84.9101 72.7201 85.4801C72.4401 85.9701 72.1601 86.4601 71.8901 86.9601C71.6501 87.4101 71.4101 87.8601 71.1601 88.3101C71.1301 88.3801 71.0901 88.4501 71.0601 88.5201C70.8101 89.0001 70.5601 89.4801 70.3201 89.9601C70.0601 90.4601 69.8201 90.9701 69.5701 91.4801C69.2601 92.1201 68.9601 92.7701 68.6701 93.4201C67.4501 96.1401 66.3501 98.9301 65.3901 101.78C65.1501 102.49 64.9201 103.21 64.7001 103.93C64.6101 104.22 64.5201 104.51 64.4401 104.81C64.3101 105.21 64.1901 105.62 64.0801 106.03C63.8701 106.75 63.6801 107.47 63.4901 108.19C63.3001 108.93 63.1201 109.67 62.9501 110.42C62.7801 111.14 62.6201 111.87 62.4701 112.6C62.4601 112.63 62.4601 112.66 62.4501 112.69C62.3401 113.26 62.2301 113.82 62.1201 114.39C62.0801 114.6 62.0501 114.8 62.0101 115.01C61.9201 115.51 61.8301 116.02 61.7601 116.52C61.6901 116.94 61.6201 117.37 61.5601 117.8C61.4201 118.77 61.2901 119.74 61.1801 120.73C61.1301 121.1 61.0901 121.47 61.0601 121.84C61.0001 122.4 60.9501 122.96 60.9101 123.52C60.8601 124.16 60.8101 124.8 60.7701 125.45C60.7301 125.95 60.7001 126.46 60.6801 126.97C60.6601 127.47 60.6401 127.96 60.6301 128.45C60.5901 129.39 60.5801 130.34 60.5801 131.29C60.5801 133.83 60.6801 136.35 60.8901 138.84C60.9701 139.93 61.0801 141.01 61.2101 142.09C61.2401 142.41 61.2801 142.74 61.3201 143.06C61.5201 144.58 61.7501 146.09 62.0101 147.59C62.0401 147.75 62.0701 147.9 62.1001 148.05C62.2101 148.68 62.3301 149.3 62.4601 149.92C62.9201 152.19 63.4701 154.43 64.1001 156.64C64.5001 158.05 64.9401 159.45 65.4001 160.83C65.6201 161.49 65.8501 162.15 66.0901 162.8C66.1501 162.98 66.2201 163.15 66.2801 163.32C66.5101 163.95 66.7501 164.57 66.9901 165.18C67.5201 166.53 68.0901 167.88 68.6901 169.2C68.9901 169.88 69.3101 170.56 69.6301 171.23C69.9701 171.95 70.3301 172.66 70.6901 173.37C71.3401 174.65 72.0301 175.91 72.7401 177.15C73.1101 177.79 73.4801 178.43 73.8701 179.06C74.2401 179.69 74.6301 180.31 75.0301 180.93C77.0201 184.06 79.1901 187.05 81.5401 189.91C81.8501 190.29 82.1601 190.66 82.4901 191.04C83.3001 192 84.1201 192.94 84.9701 193.85C85.3401 194.26 85.7201 194.66 86.1001 195.06C90.8101 200 96.0601 204.42 101.76 208.22C102.23 208.54 102.71 208.86 103.19 209.16C104.96 210.3 106.78 211.37 108.63 212.39C109.1 212.65 109.57 212.9 110.05 213.15C110.89 213.59 111.74 214.02 112.59 214.44C113.26 214.76 113.93 215.08 114.61 215.39C115.29 215.7 115.97 216 116.66 216.3C117.17 216.52 117.69 216.73 118.21 216.94C119.08 217.3 119.95 217.64 120.83 217.96C121.53 218.23 122.24 218.48 122.95 218.72C123.67 218.97 124.38 219.2 125.1 219.43C125.62 219.6 126.15 219.76 126.68 219.91C127.6 220.19 128.53 220.45 129.46 220.69C130.13 220.87 130.79 221.03 131.46 221.19C131.56 221.22 131.65 221.24 131.74 221.26C132.42 221.42 133.09 221.57 133.77 221.71C133.83 221.72 133.88 221.74 133.94 221.75C136.17 222.21 138.44 222.6 140.73 222.91C141.49 223.01 142.26 223.1 143.04 223.18C143.81 223.26 144.59 223.34 145.36 223.4C146.9 223.53 148.45 223.61 150.01 223.67H150.09C150.87 223.69 151.65 223.71 152.44 223.71C152.63 223.72 152.81 223.72 153 223.72C153.74 223.72 154.48 223.71 155.22 223.69C155.79 223.68 156.37 223.66 156.94 223.64C157.2 223.63 157.45 223.62 157.7 223.6C158.08 223.58 158.45 223.56 158.83 223.54C159.11 223.52 159.4 223.5 159.68 223.48C160.53 223.42 161.38 223.35 162.22 223.26C162.71 223.22 163.2 223.16 163.69 223.11C163.83 223.09 163.97 223.08 164.11 223.06C164.71 222.99 165.31 222.91 165.91 222.82C166.02 222.81 166.12 222.8 166.23 222.78C166.9 222.68 167.56 222.58 168.22 222.47C168.9 222.36 169.57 222.24 170.25 222.11C170.84 222 171.44 221.88 172.03 221.75C172.32 221.69 172.61 221.63 172.89 221.57C173.36 221.47 173.83 221.36 174.3 221.25C174.76 221.14 175.21 221.03 175.67 220.91C176.04 220.82 176.41 220.73 176.78 220.63C177.46 220.45 178.14 220.26 178.81 220.06C179.28 219.93 179.76 219.79 180.23 219.64C180.61 219.52 180.99 219.41 181.37 219.28C182.41 218.95 183.45 218.59 184.47 218.22C185.13 217.98 185.78 217.74 186.43 217.49C187.16 217.2 187.89 216.91 188.61 216.61C189.16 216.38 189.7 216.15 190.24 215.91C190.37 215.85 190.5 215.8 190.63 215.74C191.07 215.54 191.5 215.35 191.93 215.14C192.16 215.04 192.39 214.93 192.62 214.82C193.16 214.57 193.69 214.31 194.22 214.04C195.17 213.56 196.12 213.07 197.05 212.56C197.49 212.32 197.93 212.08 198.37 211.83C198.6 211.7 198.82 211.58 199.04 211.45C199.53 211.17 200.02 210.88 200.5 210.59C200.7 210.47 200.89 210.35 201.09 210.23C201.73 209.84 202.36 209.45 202.99 209.04C203.34 208.82 203.7 208.59 204.04 208.35C204.09 208.32 204.13 208.29 204.18 208.26C204.43 208.09 204.69 207.92 204.94 207.75C205.51 207.37 206.07 206.97 206.63 206.57C207.31 206.08 207.99 205.59 208.66 205.08C209.22 204.66 209.78 204.23 210.33 203.79C210.33 203.79 210.337 203.783 210.35 203.77C211.29 203.03 212.21 202.27 213.12 201.49C213.64 201.04 214.16 200.59 214.67 200.13C215.34 199.54 215.99 198.93 216.64 198.31C216.99 197.98 217.33 197.65 217.68 197.31C218.2 196.8 218.72 196.28 219.22 195.76C219.73 195.24 220.23 194.72 220.72 194.18C221.14 193.74 221.54 193.29 221.94 192.84C222.33 192.42 222.7 191.99 223.08 191.55C223.51 191.05 223.93 190.54 224.35 190.03C224.6 189.74 224.84 189.45 225.08 189.14C225.09 189.12 225.11 189.09 225.13 189.07C225.39 188.75 225.65 188.43 225.9 188.1C226.24 187.67 226.57 187.24 226.89 186.81C227.17 186.44 227.44 186.07 227.71 185.7C228.08 185.19 228.44 184.69 228.8 184.17C228.93 183.99 229.05 183.81 229.18 183.63C229.53 183.13 229.87 182.62 230.2 182.11C230.22 182.08 230.24 182.05 230.26 182.02C230.67 181.41 231.06 180.79 231.44 180.17C231.84 179.54 232.22 178.91 232.6 178.27C232.78 177.98 232.95 177.68 233.12 177.38C233.3 177.08 233.46 176.78 233.63 176.48C233.97 175.88 234.3 175.28 234.62 174.67C234.89 174.18 235.14 173.69 235.39 173.19C235.58 172.83 235.76 172.48 235.93 172.12C236.2 171.58 236.46 171.03 236.72 170.48C237 169.89 237.28 169.28 237.54 168.68C237.59 168.58 237.64 168.47 237.68 168.36C237.9 167.87 238.11 167.38 238.31 166.88C238.4 166.66 238.49 166.45 238.58 166.23C238.71 165.91 238.84 165.59 238.97 165.26C239.08 165 239.18 164.75 239.27 164.49C239.37 164.23 239.47 163.97 239.57 163.71C239.87 162.92 240.16 162.12 240.43 161.31C240.63 160.73 240.82 160.15 241.01 159.57C241.04 159.47 241.08 159.37 241.1 159.28C241.28 158.71 241.45 158.15 241.62 157.58C241.64 157.52 241.66 157.45 241.68 157.39C241.69 157.37 241.7 157.35 241.7 157.33C241.89 156.67 242.08 156.01 242.25 155.35C242.26 155.34 242.26 155.32 242.26 155.31C242.37 154.9 242.48 154.49 242.58 154.08C242.6 154.02 242.61 153.96 242.63 153.9C242.73 153.5 242.83 153.1 242.92 152.7C242.94 152.64 242.96 152.58 242.97 152.51C243.11 151.93 243.24 151.35 243.36 150.76C243.5 150.14 243.62 149.53 243.74 148.9C243.8 148.62 243.85 148.33 243.9 148.04C243.96 147.75 244 147.46 244.05 147.18C244.07 147.1 244.08 147.03 244.09 146.96C244.21 146.28 244.32 145.6 244.42 144.91C244.47 144.56 244.52 144.22 244.57 143.87C244.62 143.52 244.66 143.17 244.7 142.82C244.71 142.81 244.71 142.79 244.71 142.78C244.74 142.54 244.77 142.3 244.8 142.06H212.55ZM153 223C152.81 223 152.63 223 152.44 222.99C102.05 222.7 61.2901 181.75 61.2901 131.29C61.2901 80.8301 101.96 39.9801 152.28 39.5901V70.0801C118.8 70.4601 91.7801 97.7201 91.7801 131.29C91.7801 164.86 118.89 192.22 152.44 192.51C152.63 192.51 152.81 192.51 153 192.51C182.89 192.51 207.77 171.09 213.15 142.77H243.99C238.34 188 199.75 222.99 153 222.99V223Z"/>
</mask>
<path fill-rule="evenodd" clip-rule="evenodd" d="M212.55 142.06C207.47 170.34 182.74 191.8 153 191.8C152.81 191.8 152.63 191.8 152.44 191.79C151.95 191.79 151.45 191.78 150.96 191.76C150.9 191.76 150.85 191.76 150.79 191.75C150.31 191.74 149.83 191.71 149.35 191.68C148.33 191.62 147.32 191.54 146.32 191.43C146.3 191.43 146.28 191.42 146.25 191.42C145.76 191.37 145.28 191.31 144.79 191.24C144.29 191.17 143.8 191.1 143.3 191.02C142.31 190.86 141.33 190.68 140.35 190.47H140.32C139.84 190.36 139.36 190.25 138.88 190.14C138.4 190.02 137.92 189.9 137.44 189.78C136.96 189.65 136.48 189.52 136.01 189.38C135.53 189.24 135.06 189.09 134.59 188.94C134.12 188.8 133.66 188.64 133.19 188.48C132.73 188.32 132.27 188.15 131.81 187.98C131.35 187.81 130.89 187.63 130.44 187.45C129.98 187.27 129.53 187.08 129.08 186.89C128.63 186.69 128.19 186.49 127.75 186.29C126.42 185.68 125.12 185.02 123.84 184.32C123.42 184.09 122.99 183.85 122.58 183.61C122.16 183.36 121.74 183.11 121.32 182.86C120.91 182.6 120.51 182.35 120.1 182.08C119.7 181.82 119.3 181.55 118.9 181.28C118.5 181.01 118.1 180.73 117.71 180.45C117.32 180.17 116.93 179.88 116.55 179.59C116.16 179.3 115.78 179.01 115.41 178.71C115.03 178.41 114.65 178.1 114.28 177.79C113.91 177.49 113.55 177.17 113.19 176.86C112.82 176.54 112.47 176.22 112.11 175.89C111.76 175.57 111.41 175.24 111.06 174.9C110.71 174.57 110.37 174.23 110.03 173.89C109.69 173.55 109.36 173.2 109.03 172.85C108.7 172.5 108.37 172.15 108.05 171.79C107.72 171.44 107.41 171.07 107.09 170.71C106.78 170.34 106.47 169.98 106.16 169.6C105.86 169.23 105.56 168.85 105.26 168.47C104.67 167.71 104.09 166.94 103.54 166.15C103.26 165.76 102.99 165.36 102.72 164.96C102.18 164.16 101.66 163.34 101.16 162.51C100.91 162.1 100.66 161.68 100.42 161.26C99.6401 159.88 98.9001 158.47 98.2201 157.03C98.0701 156.71 97.9201 156.39 97.7801 156.06C97.4001 155.24 97.0501 154.4 96.7201 153.56C96.5101 153.04 96.3101 152.52 96.1201 151.98C95.9601 151.52 95.7901 151.06 95.6401 150.59C95.4801 150.13 95.3301 149.66 95.1801 149.19C94.9001 148.27 94.6301 147.35 94.3901 146.41C94.1401 145.42 93.9101 144.43 93.7101 143.42C93.5101 142.46 93.3401 141.49 93.1901 140.51C93.0101 139.34 92.8601 138.16 92.7601 136.96C92.6801 136.14 92.6201 135.32 92.5801 134.5C92.5201 133.43 92.4901 132.37 92.4901 131.29C92.4901 97.8801 119.58 70.7901 153 70.7901V38.8701C152.76 38.8701 152.52 38.8701 152.28 38.8801C151.49 38.8901 150.7 38.9001 149.91 38.9301C149.22 38.9501 148.52 38.9801 147.83 39.0201H147.74C147.53 39.0401 147.32 39.0501 147.11 39.0601C147.04 39.0601 146.98 39.0701 146.91 39.0701C146.35 39.1101 145.78 39.1601 145.23 39.2001H145.19C145.04 39.2001 144.89 39.2301 144.75 39.2401C144.2 39.2901 143.65 39.3401 143.11 39.4001C142.9 39.4201 142.69 39.4401 142.48 39.4701C141.88 39.5401 141.28 39.6101 140.69 39.6901H140.67C140.52 39.7101 140.37 39.7301 140.22 39.7501C139.62 39.8301 139.03 39.9201 138.44 40.0201C138.34 40.0301 138.23 40.0501 138.13 40.0701C137.43 40.1801 136.73 40.3001 136.03 40.4301C135.28 40.5701 134.53 40.7201 133.78 40.8801C133.04 41.0301 132.31 41.2001 131.58 41.3701C131.55 41.3801 131.51 41.3901 131.48 41.4001C130.8 41.5601 130.12 41.7201 129.45 41.9001C129.26 41.9501 129.06 42.0001 128.87 42.0601C128.36 42.1901 127.85 42.3301 127.35 42.4801C126.34 42.7701 125.33 43.0801 124.33 43.4201C124.26 43.4401 124.18 43.4601 124.11 43.4901C123.86 43.5601 123.61 43.6401 123.36 43.7301C123.23 43.7801 123.1 43.8201 122.96 43.8701C122.83 43.9101 122.7 43.9601 122.56 44.0101C122.54 44.0101 122.53 44.0101 122.51 44.0301C121.91 44.2301 121.31 44.4501 120.72 44.6701C120.02 44.9301 119.32 45.2001 118.63 45.4801C117.95 45.7501 117.28 46.0301 116.61 46.3201C116.58 46.3301 116.56 46.3401 116.53 46.3501C116.08 46.5401 115.63 46.7401 115.18 46.9401C115.08 46.9901 114.98 47.0301 114.88 47.0801C114.81 47.1101 114.73 47.1401 114.66 47.1801C114.12 47.4201 113.58 47.6701 113.05 47.9301C112.64 48.1301 112.23 48.3301 111.82 48.5401C111.42 48.7301 111.03 48.9301 110.63 49.1401C110.06 49.4301 109.49 49.7301 108.93 50.0401C108.28 50.3901 107.63 50.7501 107 51.1201C106.41 51.4501 105.83 51.8001 105.25 52.1501C103.92 52.9501 102.61 53.7901 101.33 54.6601C100.93 54.9301 100.53 55.2001 100.14 55.4801C99.7301 55.7601 99.3301 56.0501 98.9301 56.3401C98.1801 56.8801 97.4401 57.4301 96.7101 57.9901C96.6201 58.0601 96.5301 58.1301 96.4401 58.2001C96.1301 58.4401 95.8201 58.6801 95.5201 58.9201C93.9201 60.1901 92.3701 61.5101 90.8601 62.8801C90.3101 63.3801 89.7701 63.8801 89.2401 64.3901C88.7901 64.8201 88.3401 65.2601 87.9001 65.7001C87.7501 65.8501 87.6001 65.9901 87.4501 66.1401C87.0001 66.6001 86.5501 67.0601 86.1001 67.5301C85.7301 67.9101 85.3701 68.3001 85.0201 68.6901C84.9101 68.8001 84.8101 68.9201 84.7101 69.0301C84.5001 69.2601 84.2801 69.5001 84.0801 69.7301C83.5801 70.2701 83.1001 70.8201 82.6301 71.3801C82.4101 71.6401 82.1801 71.9001 81.9601 72.1701C81.8101 72.3601 81.6501 72.5401 81.5001 72.7301C81.2101 73.0801 80.9301 73.4201 80.6501 73.7801C80.4701 74.0001 80.3001 74.2301 80.1201 74.4601C79.5701 75.1601 79.0301 75.8701 78.5001 76.5901C78.4301 76.6801 78.3701 76.7701 78.3001 76.8701C77.7901 77.5601 77.2901 78.2701 76.8001 78.9801C76.7901 78.9901 76.7901 79.0001 76.7801 79.0101C76.2901 79.7201 75.8101 80.4401 75.3401 81.1701C75.2701 81.2701 75.2101 81.3801 75.1401 81.4801C74.6701 82.2201 74.2001 82.9701 73.7501 83.7301C73.7401 83.7301 73.7401 83.7401 73.7401 83.7401C73.7301 83.7501 73.7201 83.7701 73.7201 83.7801C73.3701 84.3501 73.0401 84.9101 72.7201 85.4801C72.4401 85.9701 72.1601 86.4601 71.8901 86.9601C71.6501 87.4101 71.4101 87.8601 71.1601 88.3101C71.1301 88.3801 71.0901 88.4501 71.0601 88.5201C70.8101 89.0001 70.5601 89.4801 70.3201 89.9601C70.0601 90.4601 69.8201 90.9701 69.5701 91.4801C69.2601 92.1201 68.9601 92.7701 68.6701 93.4201C67.4501 96.1401 66.3501 98.9301 65.3901 101.78C65.1501 102.49 64.9201 103.21 64.7001 103.93C64.6101 104.22 64.5201 104.51 64.4401 104.81C64.3101 105.21 64.1901 105.62 64.0801 106.03C63.8701 106.75 63.6801 107.47 63.4901 108.19C63.3001 108.93 63.1201 109.67 62.9501 110.42C62.7801 111.14 62.6201 111.87 62.4701 112.6C62.4601 112.63 62.4601 112.66 62.4501 112.69C62.3401 113.26 62.2301 113.82 62.1201 114.39C62.0801 114.6 62.0501 114.8 62.0101 115.01C61.9201 115.51 61.8301 116.02 61.7601 116.52C61.6901 116.94 61.6201 117.37 61.5601 117.8C61.4201 118.77 61.2901 119.74 61.1801 120.73C61.1301 121.1 61.0901 121.47 61.0601 121.84C61.0001 122.4 60.9501 122.96 60.9101 123.52C60.8601 124.16 60.8101 124.8 60.7701 125.45C60.7301 125.95 60.7001 126.46 60.6801 126.97C60.6601 127.47 60.6401 127.96 60.6301 128.45C60.5901 129.39 60.5801 130.34 60.5801 131.29C60.5801 133.83 60.6801 136.35 60.8901 138.84C60.9701 139.93 61.0801 141.01 61.2101 142.09C61.2401 142.41 61.2801 142.74 61.3201 143.06C61.5201 144.58 61.7501 146.09 62.0101 147.59C62.0401 147.75 62.0701 147.9 62.1001 148.05C62.2101 148.68 62.3301 149.3 62.4601 149.92C62.9201 152.19 63.4701 154.43 64.1001 156.64C64.5001 158.05 64.9401 159.45 65.4001 160.83C65.6201 161.49 65.8501 162.15 66.0901 162.8C66.1501 162.98 66.2201 163.15 66.2801 163.32C66.5101 163.95 66.7501 164.57 66.9901 165.18C67.5201 166.53 68.0901 167.88 68.6901 169.2C68.9901 169.88 69.3101 170.56 69.6301 171.23C69.9701 171.95 70.3301 172.66 70.6901 173.37C71.3401 174.65 72.0301 175.91 72.7401 177.15C73.1101 177.79 73.4801 178.43 73.8701 179.06C74.2401 179.69 74.6301 180.31 75.0301 180.93C77.0201 184.06 79.1901 187.05 81.5401 189.91C81.8501 190.29 82.1601 190.66 82.4901 191.04C83.3001 192 84.1201 192.94 84.9701 193.85C85.3401 194.26 85.7201 194.66 86.1001 195.06C90.8101 200 96.0601 204.42 101.76 208.22C102.23 208.54 102.71 208.86 103.19 209.16C104.96 210.3 106.78 211.37 108.63 212.39C109.1 212.65 109.57 212.9 110.05 213.15C110.89 213.59 111.74 214.02 112.59 214.44C113.26 214.76 113.93 215.08 114.61 215.39C115.29 215.7 115.97 216 116.66 216.3C117.17 216.52 117.69 216.73 118.21 216.94C119.08 217.3 119.95 217.64 120.83 217.96C121.53 218.23 122.24 218.48 122.95 218.72C123.67 218.97 124.38 219.2 125.1 219.43C125.62 219.6 126.15 219.76 126.68 219.91C127.6 220.19 128.53 220.45 129.46 220.69C130.13 220.87 130.79 221.03 131.46 221.19C131.56 221.22 131.65 221.24 131.74 221.26C132.42 221.42 133.09 221.57 133.77 221.71C133.83 221.72 133.88 221.74 133.94 221.75C136.17 222.21 138.44 222.6 140.73 222.91C141.49 223.01 142.26 223.1 143.04 223.18C143.81 223.26 144.59 223.34 145.36 223.4C146.9 223.53 148.45 223.61 150.01 223.67H150.09C150.87 223.69 151.65 223.71 152.44 223.71C152.63 223.72 152.81 223.72 153 223.72C153.74 223.72 154.48 223.71 155.22 223.69C155.79 223.68 156.37 223.66 156.94 223.64C157.2 223.63 157.45 223.62 157.7 223.6C158.08 223.58 158.45 223.56 158.83 223.54C159.11 223.52 159.4 223.5 159.68 223.48C160.53 223.42 161.38 223.35 162.22 223.26C162.71 223.22 163.2 223.16 163.69 223.11C163.83 223.09 163.97 223.08 164.11 223.06C164.71 222.99 165.31 222.91 165.91 222.82C166.02 222.81 166.12 222.8 166.23 222.78C166.9 222.68 167.56 222.58 168.22 222.47C168.9 222.36 169.57 222.24 170.25 222.11C170.84 222 171.44 221.88 172.03 221.75C172.32 221.69 172.61 221.63 172.89 221.57C173.36 221.47 173.83 221.36 174.3 221.25C174.76 221.14 175.21 221.03 175.67 220.91C176.04 220.82 176.41 220.73 176.78 220.63C177.46 220.45 178.14 220.26 178.81 220.06C179.28 219.93 179.76 219.79 180.23 219.64C180.61 219.52 180.99 219.41 181.37 219.28C182.41 218.95 183.45 218.59 184.47 218.22C185.13 217.98 185.78 217.74 186.43 217.49C187.16 217.2 187.89 216.91 188.61 216.61C189.16 216.38 189.7 216.15 190.24 215.91C190.37 215.85 190.5 215.8 190.63 215.74C191.07 215.54 191.5 215.35 191.93 215.14C192.16 215.04 192.39 214.93 192.62 214.82C193.16 214.57 193.69 214.31 194.22 214.04C195.17 213.56 196.12 213.07 197.05 212.56C197.49 212.32 197.93 212.08 198.37 211.83C198.6 211.7 198.82 211.58 199.04 211.45C199.53 211.17 200.02 210.88 200.5 210.59C200.7 210.47 200.89 210.35 201.09 210.23C201.73 209.84 202.36 209.45 202.99 209.04C203.34 208.82 203.7 208.59 204.04 208.35C204.09 208.32 204.13 208.29 204.18 208.26C204.43 208.09 204.69 207.92 204.94 207.75C205.51 207.37 206.07 206.97 206.63 206.57C207.31 206.08 207.99 205.59 208.66 205.08C209.22 204.66 209.78 204.23 210.33 203.79C210.33 203.79 210.337 203.783 210.35 203.77C211.29 203.03 212.21 202.27 213.12 201.49C213.64 201.04 214.16 200.59 214.67 200.13C215.34 199.54 215.99 198.93 216.64 198.31C216.99 197.98 217.33 197.65 217.68 197.31C218.2 196.8 218.72 196.28 219.22 195.76C219.73 195.24 220.23 194.72 220.72 194.18C221.14 193.74 221.54 193.29 221.94 192.84C222.33 192.42 222.7 191.99 223.08 191.55C223.51 191.05 223.93 190.54 224.35 190.03C224.6 189.74 224.84 189.45 225.08 189.14C225.09 189.12 225.11 189.09 225.13 189.07C225.39 188.75 225.65 188.43 225.9 188.1C226.24 187.67 226.57 187.24 226.89 186.81C227.17 186.44 227.44 186.07 227.71 185.7C228.08 185.19 228.44 184.69 228.8 184.17C228.93 183.99 229.05 183.81 229.18 183.63C229.53 183.13 229.87 182.62 230.2 182.11C230.22 182.08 230.24 182.05 230.26 182.02C230.67 181.41 231.06 180.79 231.44 180.17C231.84 179.54 232.22 178.91 232.6 178.27C232.78 177.98 232.95 177.68 233.12 177.38C233.3 177.08 233.46 176.78 233.63 176.48C233.97 175.88 234.3 175.28 234.62 174.67C234.89 174.18 235.14 173.69 235.39 173.19C235.58 172.83 235.76 172.48 235.93 172.12C236.2 171.58 236.46 171.03 236.72 170.48C237 169.89 237.28 169.28 237.54 168.68C237.59 168.58 237.64 168.47 237.68 168.36C237.9 167.87 238.11 167.38 238.31 166.88C238.4 166.66 238.49 166.45 238.58 166.23C238.71 165.91 238.84 165.59 238.97 165.26C239.08 165 239.18 164.75 239.27 164.49C239.37 164.23 239.47 163.97 239.57 163.71C239.87 162.92 240.16 162.12 240.43 161.31C240.63 160.73 240.82 160.15 241.01 159.57C241.04 159.47 241.08 159.37 241.1 159.28C241.28 158.71 241.45 158.15 241.62 157.58C241.64 157.52 241.66 157.45 241.68 157.39C241.69 157.37 241.7 157.35 241.7 157.33C241.89 156.67 242.08 156.01 242.25 155.35C242.26 155.34 242.26 155.32 242.26 155.31C242.37 154.9 242.48 154.49 242.58 154.08C242.6 154.02 242.61 153.96 242.63 153.9C242.73 153.5 242.83 153.1 242.92 152.7C242.94 152.64 242.96 152.58 242.97 152.51C243.11 151.93 243.24 151.35 243.36 150.76C243.5 150.14 243.62 149.53 243.74 148.9C243.8 148.62 243.85 148.33 243.9 148.04C243.96 147.75 244 147.46 244.05 147.18C244.07 147.1 244.08 147.03 244.09 146.96C244.21 146.28 244.32 145.6 244.42 144.91C244.47 144.56 244.52 144.22 244.57 143.87C244.62 143.52 244.66 143.17 244.7 142.82C244.71 142.81 244.71 142.79 244.71 142.78C244.74 142.54 244.77 142.3 244.8 142.06H212.55ZM153 223C152.81 223 152.63 223 152.44 222.99C102.05 222.7 61.2901 181.75 61.2901 131.29C61.2901 80.8301 101.96 39.9801 152.28 39.5901V70.0801C118.8 70.4601 91.7801 97.7201 91.7801 131.29C91.7801 164.86 118.89 192.22 152.44 192.51C152.63 192.51 152.81 192.51 153 192.51C182.89 192.51 207.77 171.09 213.15 142.77H243.99C238.34 188 199.75 222.99 153 222.99V223Z" fill="black" stroke="black" stroke-width="2" mask="url(#path-5-inside-2_13_2)"/>
<path d="M153 92.48C174.434 92.4801 191.81 109.846 191.81 131.29C191.81 152.733 174.434 170.11 153 170.11C152.809 170.11 152.641 170.11 152.466 170.101L152.457 170.1H152.447C131.259 169.814 114.18 152.724 114.18 131.29C114.18 109.856 131.557 92.48 153 92.48ZM143.3 148.34H150.78V116.02H143.3V148.34ZM154.1 148.34H161.581V116.02H154.1V148.34Z" fill="black" stroke="black"/>
<mask id="path-7-inside-3_13_2" fill="white">
<path fill-rule="evenodd" clip-rule="evenodd" d="M153 91.98C131.28 91.98 113.68 109.58 113.68 131.29C113.68 153 130.98 170.31 152.44 170.6C152.63 170.61 152.81 170.61 153 170.61C174.71 170.61 192.31 153.01 192.31 131.29C192.31 109.57 174.71 91.98 153 91.98ZM153 169.9C152.81 169.9 152.63 169.9 152.44 169.9C131.38 169.61 114.39 152.43 114.39 131.3C114.39 110.17 131.68 92.7 153 92.7C174.32 92.7 191.6 109.98 191.6 131.3C191.6 152.62 174.31 169.91 153 169.91V169.9Z"/>
</mask>
<path fill-rule="evenodd" clip-rule="evenodd" d="M153 91.98C131.28 91.98 113.68 109.58 113.68 131.29C113.68 153 130.98 170.31 152.44 170.6C152.63 170.61 152.81 170.61 153 170.61C174.71 170.61 192.31 153.01 192.31 131.29C192.31 109.57 174.71 91.98 153 91.98ZM153 169.9C152.81 169.9 152.63 169.9 152.44 169.9C131.38 169.61 114.39 152.43 114.39 131.3C114.39 110.17 131.68 92.7 153 92.7C174.32 92.7 191.6 109.98 191.6 131.3C191.6 152.62 174.31 169.91 153 169.91V169.9Z" fill="black"/>
<path d="M152.44 170.6L152.493 169.601L152.473 169.6L152.454 169.6L152.44 170.6ZM153 169.9H154V168.9H153V169.9ZM152.44 169.9L152.426 170.9H152.44V169.9ZM153 169.91H152V170.91H153V169.91ZM153 91.98V90.98C130.728 90.98 112.68 109.028 112.68 131.29H113.68H114.68C114.68 110.132 131.832 92.98 153 92.98V91.98ZM113.68 131.29H112.68C112.68 153.55 130.423 171.303 152.427 171.6L152.44 170.6L152.454 169.6C131.537 169.317 114.68 152.45 114.68 131.29H113.68ZM152.44 170.6L152.388 171.599C152.608 171.61 152.814 171.61 153 171.61V170.61V169.61C152.806 169.61 152.652 169.61 152.493 169.601L152.44 170.6ZM153 170.61V171.61C175.263 171.61 193.31 153.562 193.31 131.29H192.31H191.31C191.31 152.458 174.158 169.61 153 169.61V170.61ZM192.31 131.29H193.31C193.31 109.018 175.262 90.98 153 90.98V91.98V92.98C174.158 92.98 191.31 110.122 191.31 131.29H192.31ZM153 169.9V168.9C153 168.9 152.999 168.9 152.999 168.9C152.999 168.9 152.998 168.9 152.998 168.9C152.998 168.9 152.997 168.9 152.997 168.9C152.996 168.9 152.996 168.9 152.996 168.9C152.995 168.9 152.995 168.9 152.995 168.9C152.994 168.9 152.994 168.9 152.993 168.9C152.993 168.9 152.993 168.9 152.992 168.9C152.992 168.9 152.992 168.9 152.991 168.9C152.991 168.9 152.991 168.9 152.99 168.9C152.99 168.9 152.989 168.9 152.989 168.9C152.989 168.9 152.988 168.9 152.988 168.9C152.988 168.9 152.987 168.9 152.987 168.9C152.986 168.9 152.986 168.9 152.986 168.9C152.985 168.9 152.985 168.9 152.985 168.9C152.984 168.9 152.984 168.9 152.984 168.9C152.983 168.9 152.983 168.9 152.982 168.9C152.982 168.9 152.982 168.9 152.981 168.9C152.981 168.9 152.981 168.9 152.98 168.9C152.98 168.9 152.979 168.9 152.979 168.9C152.979 168.9 152.978 168.9 152.978 168.9C152.978 168.9 152.977 168.9 152.977 168.9C152.976 168.9 152.976 168.9 152.976 168.9C152.975 168.9 152.975 168.9 152.975 168.9C152.974 168.9 152.974 168.9 152.974 168.9C152.973 168.9 152.973 168.9 152.972 168.9C152.972 168.9 152.972 168.9 152.971 168.9C152.971 168.9 152.971 168.9 152.97 168.9C152.97 168.9 152.969 168.9 152.969 168.9C152.969 168.9 152.968 168.9 152.968 168.9C152.968 168.9 152.967 168.9 152.967 168.9C152.967 168.9 152.966 168.9 152.966 168.9C152.965 168.9 152.965 168.9 152.965 168.9C152.964 168.9 152.964 168.9 152.964 168.9C152.963 168.9 152.963 168.9 152.962 168.9C152.962 168.9 152.962 168.9 152.961 168.9C152.961 168.9 152.961 168.9 152.96 168.9C152.96 168.9 152.96 168.9 152.959 168.9C152.959 168.9 152.958 168.9 152.958 168.9C152.958 168.9 152.957 168.9 152.957 168.9C152.957 168.9 152.956 168.9 152.956 168.9C152.955 168.9 152.955 168.9 152.955 168.9C152.954 168.9 152.954 168.9 152.954 168.9C152.953 168.9 152.953 168.9 152.953 168.9C152.952 168.9 152.952 168.9 152.951 168.9C152.951 168.9 152.951 168.9 152.95 168.9C152.95 168.9 152.95 168.9 152.949 168.9C152.949 168.9 152.948 168.9 152.948 168.9C152.948 168.9 152.947 168.9 152.947 168.9C152.947 168.9 152.946 168.9 152.946 168.9C152.946 168.9 152.945 168.9 152.945 168.9C152.944 168.9 152.944 168.9 152.944 168.9C152.943 168.9 152.943 168.9 152.943 168.9C152.942 168.9 152.942 168.9 152.941 168.9C152.941 168.9 152.941 168.9 152.94 168.9C152.94 168.9 152.94 168.9 152.939 168.9C152.939 168.9 152.939 168.9 152.938 168.9C152.938 168.9 152.937 168.9 152.937 168.9C152.937 168.9 152.936 168.9 152.936 168.9C152.936 168.9 152.935 168.9 152.935 168.9C152.934 168.9 152.934 168.9 152.934 168.9C152.933 168.9 152.933 168.9 152.933 168.9C152.932 168.9 152.932 168.9 152.932 168.9C152.931 168.9 152.931 168.9 152.93 168.9C152.93 168.9 152.93 168.9 152.929 168.9C152.929 168.9 152.929 168.9 152.928 168.9C152.928 168.9 152.928 168.9 152.927 168.9C152.927 168.9 152.926 168.9 152.926 168.9C152.926 168.9 152.925 168.9 152.925 168.9C152.925 168.9 152.924 168.9 152.924 168.9C152.923 168.9 152.923 168.9 152.923 168.9C152.922 168.9 152.922 168.9 152.922 168.9C152.921 168.9 152.921 168.9 152.921 168.9C152.92 168.9 152.92 168.9 152.919 168.9C152.919 168.9 152.919 168.9 152.918 168.9C152.918 168.9 152.918 168.9 152.917 168.9C152.917 168.9 152.917 168.9 152.916 168.9C152.916 168.9 152.915 168.9 152.915 168.9C152.915 168.9 152.914 168.9 152.914 168.9C152.914 168.9 152.913 168.9 152.913 168.9C152.913 168.9 152.912 168.9 152.912 168.9C152.911 168.9 152.911 168.9 152.911 168.9C152.91 168.9 152.91 168.9 152.91 168.9C152.909 168.9 152.909 168.9 152.908 168.9C152.908 168.9 152.908 168.9 152.907 168.9C152.907 168.9 152.907 168.9 152.906 168.9C152.906 168.9 152.906 168.9 152.905 168.9C152.905 168.9 152.904 168.9 152.904 168.9C152.904 168.9 152.903 168.9 152.903 168.9C152.903 168.9 152.902 168.9 152.902 168.9C152.902 168.9 152.901 168.9 152.901 168.9C152.9 168.9 152.9 168.9 152.9 168.9C152.899 168.9 152.899 168.9 152.899 168.9C152.898 168.9 152.898 168.9 152.898 168.9C152.897 168.9 152.897 168.9 152.896 168.9C152.896 168.9 152.896 168.9 152.895 168.9C152.895 168.9 152.895 168.9 152.894 168.9C152.894 168.9 152.893 168.9 152.893 168.9C152.893 168.9 152.892 168.9 152.892 168.9C152.892 168.9 152.891 168.9 152.891 168.9C152.891 168.9 152.89 168.9 152.89 168.9C152.889 168.9 152.889 168.9 152.889 168.9C152.888 168.9 152.888 168.9 152.888 168.9C152.887 168.9 152.887 168.9 152.887 168.9C152.886 168.9 152.886 168.9 152.885 168.9C152.885 168.9 152.885 168.9 152.884 168.9C152.884 168.9 152.884 168.9 152.883 168.9C152.883 168.9 152.883 168.9 152.882 168.9C152.882 168.9 152.881 168.9 152.881 168.9C152.881 168.9 152.88 168.9 152.88 168.9C152.88 168.9 152.879 168.9 152.879 168.9C152.879 168.9 152.878 168.9 152.878 168.9C152.877 168.9 152.877 168.9 152.877 168.9C152.876 168.9 152.876 168.9 152.876 168.9C152.875 168.9 152.875 168.9 152.875 168.9C152.874 168.9 152.874 168.9 152.873 168.9C152.873 168.9 152.873 168.9 152.872 168.9C152.872 168.9 152.872 168.9 152.871 168.9C152.871 168.9 152.871 168.9 152.87 168.9C152.87 168.9 152.869 168.9 152.869 168.9C152.869 168.9 152.868 168.9 152.868 168.9C152.868 168.9 152.867 168.9 152.867 168.9C152.867 168.9 152.866 168.9 152.866 168.9C152.865 168.9 152.865 168.9 152.865 168.9C152.864 168.9 152.864 168.9 152.864 168.9C152.863 168.9 152.863 168.9 152.863 168.9C152.862 168.9 152.862 168.9 152.861 168.9C152.861 168.9 152.861 168.9 152.86 168.9C152.86 168.9 152.86 168.9 152.859 168.9C152.859 168.9 152.859 168.9 152.858 168.9C152.858 168.9 152.857 168.9 152.857 168.9C152.857 168.9 152.856 168.9 152.856 168.9C152.856 168.9 152.855 168.9 152.855 168.9C152.855 168.9 152.854 168.9 152.854 168.9C152.853 168.9 152.853 168.9 152.853 168.9C152.852 168.9 152.852 168.9 152.852 168.9C152.851 168.9 152.851 168.9 152.851 168.9C152.85 168.9 152.85 168.9 152.849 168.9C152.849 168.9 152.849 168.9 152.848 168.9C152.848 168.9 152.848 168.9 152.847 168.9C152.847 168.9 152.847 168.9 152.846 168.9C152.846 168.9 152.845 168.9 152.845 168.9C152.845 168.9 152.844 168.9 152.844 168.9C152.844 168.9 152.843 168.9 152.843 168.9C152.843 168.9 152.842 168.9 152.842 168.9C152.841 168.9 152.841 168.9 152.841 168.9C152.84 168.9 152.84 168.9 152.84 168.9C152.839 168.9 152.839 168.9 152.839 168.9C152.838 168.9 152.838 168.9 152.837 168.9C152.837 168.9 152.837 168.9 152.836 168.9C152.836 168.9 152.836 168.9 152.835 168.9C152.835 168.9 152.835 168.9 152.834 168.9C152.834 168.9 152.833 168.9 152.833 168.9C152.833 168.9 152.832 168.9 152.832 168.9C152.832 168.9 152.831 168.9 152.831 168.9C152.831 168.9 152.83 168.9 152.83 168.9C152.829 168.9 152.829 168.9 152.829 168.9C152.828 168.9 152.828 168.9 152.828 168.9C152.827 168.9 152.827 168.9 152.827 168.9C152.826 168.9 152.826 168.9 152.825 168.9C152.825 168.9 152.825 168.9 152.824 168.9C152.824 168.9 152.824 168.9 152.823 168.9C152.823 168.9 152.823 168.9 152.822 168.9C152.822 168.9 152.821 168.9 152.821 168.9C152.821 168.9 152.82 168.9 152.82 168.9C152.82 168.9 152.819 168.9 152.819 168.9C152.819 168.9 152.818 168.9 152.818 168.9C152.817 168.9 152.817 168.9 152.817 168.9C152.816 168.9 152.816 168.9 152.816 168.9C152.815 168.9 152.815 168.9 152.815 168.9C152.814 168.9 152.814 168.9 152.813 168.9C152.813 168.9 152.813 168.9 152.812 168.9C152.812 168.9 152.812 168.9 152.811 168.9C152.811 168.9 152.811 168.9 152.81 168.9C152.81 168.9 152.81 168.9 152.809 168.9C152.809 168.9 152.808 168.9 152.808 168.9C152.808 168.9 152.807 168.9 152.807 168.9C152.807 168.9 152.806 168.9 152.806 168.9C152.806 168.9 152.805 168.9 152.805 168.9C152.804 168.9 152.804 168.9 152.804 168.9C152.803 168.9 152.803 168.9 152.803 168.9C152.802 168.9 152.802 168.9 152.802 168.9C152.801 168.9 152.801 168.9 152.8 168.9C152.8 168.9 152.8 168.9 152.799 168.9C152.799 168.9 152.799 168.9 152.798 168.9C152.798 168.9 152.798 168.9 152.797 168.9C152.797 168.9 152.796 168.9 152.796 168.9C152.796 168.9 152.795 168.9 152.795 168.9C152.795 168.9 152.794 168.9 152.794 168.9C152.794 168.9 152.793 168.9 152.793 168.9C152.792 168.9 152.792 168.9 152.792 168.9C152.791 168.9 152.791 168.9 152.791 168.9C152.79 168.9 152.79 168.9 152.79 168.9C152.789 168.9 152.789 168.9 152.789 168.9C152.788 168.9 152.788 168.9 152.787 168.9C152.787 168.9 152.787 168.9 152.786 168.9C152.786 168.9 152.786 168.9 152.785 168.9C152.785 168.9 152.785 168.9 152.784 168.9C152.784 168.9 152.783 168.9 152.783 168.9C152.783 168.9 152.782 168.9 152.782 168.9C152.782 168.9 152.781 168.9 152.781 168.9C152.781 168.9 152.78 168.9 152.78 168.9C152.779 168.9 152.779 168.9 152.779 168.9C152.778 168.9 152.778 168.9 152.778 168.9C152.777 168.9 152.777 168.9 152.777 168.9C152.776 168.9 152.776 168.9 152.775 168.9C152.775 168.9 152.775 168.9 152.774 168.9C152.774 168.9 152.774 168.9 152.773 168.9C152.773 168.9 152.773 168.9 152.772 168.9C152.772 168.9 152.771 168.9 152.771 168.9C152.771 168.9 152.77 168.9 152.77 168.9C152.77 168.9 152.769 168.9 152.769 168.9C152.769 168.9 152.768 168.9 152.768 168.9C152.768 168.9 152.767 168.9 152.767 168.9C152.766 168.9 152.766 168.9 152.766 168.9C152.765 168.9 152.765 168.9 152.765 168.9C152.764 168.9 152.764 168.9 152.764 168.9C152.763 168.9 152.763 168.9 152.762 168.9C152.762 168.9 152.762 168.9 152.761 168.9C152.761 168.9 152.761 168.9 152.76 168.9C152.76 168.9 152.76 168.9 152.759 168.9C152.759 168.9 152.758 168.9 152.758 168.9C152.758 168.9 152.757 168.9 152.757 168.9C152.757 168.9 152.756 168.9 152.756 168.9C152.756 168.9 152.755 168.9 152.755 168.9C152.755 168.9 152.754 168.9 152.754 168.9C152.753 168.9 152.753 168.9 152.753 168.9C152.752 168.9 152.752 168.9 152.752 168.9C152.751 168.9 152.751 168.9 152.751 168.9C152.75 168.9 152.75 168.9 152.749 168.9C152.749 168.9 152.749 168.9 152.748 168.9C152.748 168.9 152.748 168.9 152.747 168.9C152.747 168.9 152.747 168.9 152.746 168.9C152.746 168.9 152.745 168.9 152.745 168.9C152.745 168.9 152.744 168.9 152.744 168.9C152.744 168.9 152.743 168.9 152.743 168.9C152.743 168.9 152.742 168.9 152.742 168.9C152.741 168.9 152.741 168.9 152.741 168.9C152.74 168.9 152.74 168.9 152.74 168.9C152.739 168.9 152.739 168.9 152.739 168.9C152.738 168.9 152.738 168.9 152.738 168.9C152.737 168.9 152.737 168.9 152.736 168.9C152.736 168.9 152.736 168.9 152.735 168.9C152.735 168.9 152.735 168.9 152.734 168.9C152.734 168.9 152.734 168.9 152.733 168.9C152.733 168.9 152.732 168.9 152.732 168.9C152.732 168.9 152.731 168.9 152.731 168.9C152.731 168.9 152.73 168.9 152.73 168.9C152.73 168.9 152.729 168.9 152.729 168.9C152.728 168.9 152.728 168.9 152.728 168.9C152.727 168.9 152.727 168.9 152.727 168.9C152.726 168.9 152.726 168.9 152.726 168.9C152.725 168.9 152.725 168.9 152.725 168.9C152.724 168.9 152.724 168.9 152.723 168.9C152.723 168.9 152.723 168.9 152.722 168.9C152.722 168.9 152.722 168.9 152.721 168.9C152.721 168.9 152.721 168.9 152.72 168.9C152.72 168.9 152.719 168.9 152.719 168.9C152.719 168.9 152.718 168.9 152.718 168.9C152.718 168.9 152.717 168.9 152.717 168.9C152.717 168.9 152.716 168.9 152.716 168.9C152.715 168.9 152.715 168.9 152.715 168.9C152.714 168.9 152.714 168.9 152.714 168.9C152.713 168.9 152.713 168.9 152.713 168.9C152.712 168.9 152.712 168.9 152.712 168.9C152.711 168.9 152.711 168.9 152.71 168.9C152.71 168.9 152.71 168.9 152.709 168.9C152.709 168.9 152.709 168.9 152.708 168.9C152.708 168.9 152.708 168.9 152.707 168.9C152.707 168.9 152.706 168.9 152.706 168.9C152.706 168.9 152.705 168.9 152.705 168.9C152.705 168.9 152.704 168.9 152.704 168.9C152.704 168.9 152.703 168.9 152.703 168.9C152.702 168.9 152.702 168.9 152.702 168.9C152.701 168.9 152.701 168.9 152.701 168.9C152.7 168.9 152.7 168.9 152.7 168.9C152.699 168.9 152.699 168.9 152.698 168.9C152.698 168.9 152.698 168.9 152.697 168.9C152.697 168.9 152.697 168.9 152.696 168.9C152.696 168.9 152.696 168.9 152.695 168.9C152.695 168.9 152.695 168.9 152.694 168.9C152.694 168.9 152.693 168.9 152.693 168.9C152.693 168.9 152.692 168.9 152.692 168.9C152.692 168.9 152.691 168.9 152.691 168.9C152.691 168.9 152.69 168.9 152.69 168.9C152.689 168.9 152.689 168.9 152.689 168.9C152.688 168.9 152.688 168.9 152.688 168.9C152.687 168.9 152.687 168.9 152.687 168.9C152.686 168.9 152.686 168.9 152.685 168.9C152.685 168.9 152.685 168.9 152.684 168.9C152.684 168.9 152.684 168.9 152.683 168.9C152.683 168.9 152.683 168.9 152.682 168.9C152.682 168.9 152.682 168.9 152.681 168.9C152.681 168.9 152.68 168.9 152.68 168.9C152.68 168.9 152.679 168.9 152.679 168.9C152.679 168.9 152.678 168.9 152.678 168.9C152.678 168.9 152.677 168.9 152.677 168.9C152.676 168.9 152.676 168.9 152.676 168.9C152.675 168.9 152.675 168.9 152.675 168.9C152.674 168.9 152.674 168.9 152.674 168.9C152.673 168.9 152.673 168.9 152.672 168.9C152.672 168.9 152.672 168.9 152.671 168.9C152.671 168.9 152.671 168.9 152.67 168.9C152.67 168.9 152.67 168.9 152.669 168.9C152.669 168.9 152.668 168.9 152.668 168.9C152.668 168.9 152.667 168.9 152.667 168.9C152.667 168.9 152.666 168.9 152.666 168.9C152.666 168.9 152.665 168.9 152.665 168.9C152.665 168.9 152.664 168.9 152.664 168.9C152.663 168.9 152.663 168.9 152.663 168.9C152.662 168.9 152.662 168.9 152.662 168.9C152.661 168.9 152.661 168.9 152.661 168.9C152.66 168.9 152.66 168.9 152.659 168.9C152.659 168.9 152.659 168.9 152.658 168.9C152.658 168.9 152.658 168.9 152.657 168.9C152.657 168.9 152.657 168.9 152.656 168.9C152.656 168.9 152.655 168.9 152.655 168.9C152.655 168.9 152.654 168.9 152.654 168.9C152.654 168.9 152.653 168.9 152.653 168.9C152.653 168.9 152.652 168.9 152.652 168.9C152.651 168.9 152.651 168.9 152.651 168.9C152.65 168.9 152.65 168.9 152.65 168.9C152.649 168.9 152.649 168.9 152.649 168.9C152.648 168.9 152.648 168.9 152.648 168.9C152.647 168.9 152.647 168.9 152.646 168.9C152.646 168.9 152.646 168.9 152.645 168.9C152.645 168.9 152.645 168.9 152.644 168.9C152.644 168.9 152.644 168.9 152.643 168.9C152.643 168.9 152.642 168.9 152.642 168.9C152.642 168.9 152.641 168.9 152.641 168.9C152.641 168.9 152.64 168.9 152.64 168.9C152.64 168.9 152.639 168.9 152.639 168.9C152.638 168.9 152.638 168.9 152.638 168.9C152.637 168.9 152.637 168.9 152.637 168.9C152.636 168.9 152.636 168.9 152.636 168.9C152.635 168.9 152.635 168.9 152.634 168.9C152.634 168.9 152.634 168.9 152.633 168.9C152.633 168.9 152.633 168.9 152.632 168.9C152.632 168.9 152.632 168.9 152.631 168.9C152.631 168.9 152.63 168.9 152.63 168.9C152.63 168.9 152.629 168.9 152.629 168.9C152.629 168.9 152.628 168.9 152.628 168.9C152.628 168.9 152.627 168.9 152.627 168.9C152.626 168.9 152.626 168.9 152.626 168.9C152.625 168.9 152.625 168.9 152.625 168.9C152.624 168.9 152.624 168.9 152.624 168.9C152.623 168.9 152.623 168.9 152.623 168.9C152.622 168.9 152.622 168.9 152.621 168.9C152.621 168.9 152.621 168.9 152.62 168.9C152.62 168.9 152.62 168.9 152.619 168.9C152.619 168.9 152.619 168.9 152.618 168.9C152.618 168.9 152.617 168.9 152.617 168.9C152.617 168.9 152.616 168.9 152.616 168.9C152.616 168.9 152.615 168.9 152.615 168.9C152.615 168.9 152.614 168.9 152.614 168.9C152.613 168.9 152.613 168.9 152.613 168.9C152.612 168.9 152.612 168.9 152.612 168.9C152.611 168.9 152.611 168.9 152.611 168.9C152.61 168.9 152.61 168.9 152.609 168.9C152.609 168.9 152.609 168.9 152.608 168.9C152.608 168.9 152.608 168.9 152.607 168.9C152.607 168.9 152.607 168.9 152.606 168.9C152.606 168.9 152.605 168.9 152.605 168.9C152.605 168.9 152.604 168.9 152.604 168.9C152.604 168.9 152.603 168.9 152.603 168.9C152.603 168.9 152.602 168.9 152.602 168.9C152.601 168.9 152.601 168.9 152.601 168.9C152.6 168.9 152.6 168.9 152.6 168.9C152.599 168.9 152.599 168.9 152.599 168.9C152.598 168.9 152.598 168.9 152.597 168.9C152.597 168.9 152.597 168.9 152.596 168.9C152.596 168.9 152.596 168.9 152.595 168.9C152.595 168.9 152.595 168.9 152.594 168.9C152.594 168.9 152.593 168.9 152.593 168.9C152.593 168.9 152.592 168.9 152.592 168.9C152.592 168.9 152.591 168.9 152.591 168.9C152.591 168.9 152.59 168.9 152.59 168.9C152.589 168.9 152.589 168.9 152.589 168.9C152.588 168.9 152.588 168.9 152.588 168.9C152.587 168.9 152.587 168.9 152.587 168.9C152.586 168.9 152.586 168.9 152.585 168.9C152.585 168.9 152.585 168.9 152.584 168.9C152.584 168.9 152.584 168.9 152.583 168.9C152.583 168.9 152.583 168.9 152.582 168.9C152.582 168.9 152.581 168.9 152.581 168.9C152.581 168.9 152.58 168.9 152.58 168.9C152.58 168.9 152.579 168.9 152.579 168.9C152.579 168.9 152.578 168.9 152.578 168.9C152.577 168.9 152.577 168.9 152.577 168.9C152.576 168.9 152.576 168.9 152.576 168.9C152.575 168.9 152.575 168.9 152.575 168.9C152.574 168.9 152.574 168.9 152.573 168.9C152.573 168.9 152.573 168.9 152.572 168.9C152.572 168.9 152.572 168.9 152.571 168.9C152.571 168.9 152.571 168.9 152.57 168.9C152.57 168.9 152.569 168.9 152.569 168.9C152.569 168.9 152.568 168.9 152.568 168.9C152.568 168.9 152.567 168.9 152.567 168.9C152.567 168.9 152.566 168.9 152.566 168.9C152.565 168.9 152.565 168.9 152.565 168.9C152.564 168.9 152.564 168.9 152.564 168.9C152.563 168.9 152.563 168.9 152.563 168.9C152.562 168.9 152.562 168.9 152.561 168.9C152.561 168.9 152.561 168.9 152.56 168.9C152.56 168.9 152.56 168.9 152.559 168.9C152.559 168.9 152.559 168.9 152.558 168.9C152.558 168.9 152.557 168.9 152.557 168.9C152.557 168.9 152.556 168.9 152.556 168.9C152.556 168.9 152.555 168.9 152.555 168.9C152.555 168.9 152.554 168.9 152.554 168.9C152.553 168.9 152.553 168.9 152.553 168.9C152.552 168.9 152.552 168.9 152.552 168.9C152.551 168.9 152.551 168.9 152.551 168.9C152.55 168.9 152.55 168.9 152.549 168.9C152.549 168.9 152.549 168.9 152.548 168.9C152.548 168.9 152.548 168.9 152.547 168.9C152.547 168.9 152.546 168.9 152.546 168.9C152.546 168.9 152.545 168.9 152.545 168.9C152.545 168.9 152.544 168.9 152.544 168.9C152.544 168.9 152.543 168.9 152.543 168.9C152.542 168.9 152.542 168.9 152.542 168.9C152.541 168.9 152.541 168.9 152.541 168.9C152.54 168.9 152.54 168.9 152.54 168.9C152.539 168.9 152.539 168.9 152.538 168.9C152.538 168.9 152.538 168.9 152.537 168.9C152.537 168.9 152.537 168.9 152.536 168.9C152.536 168.9 152.536 168.9 152.535 168.9C152.535 168.9 152.534 168.9 152.534 168.9C152.534 168.9 152.533 168.9 152.533 168.9C152.533 168.9 152.532 168.9 152.532 168.9C152.532 168.9 152.531 168.9 152.531 168.9C152.53 168.9 152.53 168.9 152.53 168.9C152.529 168.9 152.529 168.9 152.529 168.9C152.528 168.9 152.528 168.9 152.527 168.9C152.527 168.9 152.527 168.9 152.526 168.9C152.526 168.9 152.526 168.9 152.525 168.9C152.525 168.9 152.525 168.9 152.524 168.9C152.524 168.9 152.523 168.9 152.523 168.9C152.523 168.9 152.522 168.9 152.522 168.9C152.522 168.9 152.521 168.9 152.521 168.9C152.521 168.9 152.52 168.9 152.52 168.9C152.519 168.9 152.519 168.9 152.519 168.9C152.518 168.9 152.518 168.9 152.518 168.9C152.517 168.9 152.517 168.9 152.516 168.9C152.516 168.9 152.516 168.9 152.515 168.9C152.515 168.9 152.515 168.9 152.514 168.9C152.514 168.9 152.514 168.9 152.513 168.9C152.513 168.9 152.512 168.9 152.512 168.9C152.512 168.9 152.511 168.9 152.511 168.9C152.511 168.9 152.51 168.9 152.51 168.9C152.51 168.9 152.509 168.9 152.509 168.9C152.508 168.9 152.508 168.9 152.508 168.9C152.507 168.9 152.507 168.9 152.507 168.9C152.506 168.9 152.506 168.9 152.505 168.9C152.505 168.9 152.505 168.9 152.504 168.9C152.504 168.9 152.504 168.9 152.503 168.9C152.503 168.9 152.503 168.9 152.502 168.9C152.502 168.9 152.501 168.9 152.501 168.9C152.501 168.9 152.5 168.9 152.5 168.9C152.5 168.9 152.499 168.9 152.499 168.9C152.499 168.9 152.498 168.9 152.498 168.9C152.497 168.9 152.497 168.9 152.497 168.9C152.496 168.9 152.496 168.9 152.496 168.9C152.495 168.9 152.495 168.9 152.494 168.9C152.494 168.9 152.494 168.9 152.493 168.9C152.493 168.9 152.493 168.9 152.492 168.9C152.492 168.9 152.492 168.9 152.491 168.9C152.491 168.9 152.49 168.9 152.49 168.9C152.49 168.9 152.489 168.9 152.489 168.9C152.489 168.9 152.488 168.9 152.488 168.9C152.487 168.9 152.487 168.9 152.487 168.9C152.486 168.9 152.486 168.9 152.486 168.9C152.485 168.9 152.485 168.9 152.485 168.9C152.484 168.9 152.484 168.9 152.483 168.9C152.483 168.9 152.483 168.9 152.482 168.9C152.482 168.9 152.482 168.9 152.481 168.9C152.481 168.9 152.48 168.9 152.48 168.9C152.48 168.9 152.479 168.9 152.479 168.9C152.479 168.9 152.478 168.9 152.478 168.9C152.478 168.9 152.477 168.9 152.477 168.9C152.476 168.9 152.476 168.9 152.476 168.9C152.475 168.9 152.475 168.9 152.475 168.9C152.474 168.9 152.474 168.9 152.473 168.9C152.473 168.9 152.473 168.9 152.472 168.9C152.472 168.9 152.472 168.9 152.471 168.9C152.471 168.9 152.471 168.9 152.47 168.9C152.47 168.9 152.469 168.9 152.469 168.9C152.469 168.9 152.468 168.9 152.468 168.9C152.468 168.9 152.467 168.9 152.467 168.9C152.466 168.9 152.466 168.9 152.466 168.9C152.465 168.9 152.465 168.9 152.465 168.9C152.464 168.9 152.464 168.9 152.464 168.9C152.463 168.9 152.463 168.9 152.462 168.9C152.462 168.9 152.462 168.9 152.461 168.9C152.461 168.9 152.461 168.9 152.46 168.9C152.46 168.9 152.459 168.9 152.459 168.9C152.459 168.9 152.458 168.9 152.458 168.9C152.458 168.9 152.457 168.9 152.457 168.9C152.456 168.9 152.456 168.9 152.456 168.9C152.455 168.9 152.455 168.9 152.455 168.9C152.454 168.9 152.454 168.9 152.454 168.9C152.453 168.9 152.453 168.9 152.452 168.9C152.452 168.9 152.452 168.9 152.451 168.9C152.451 168.9 152.451 168.9 152.45 168.9C152.45 168.9 152.449 168.9 152.449 168.9C152.449 168.9 152.448 168.9 152.448 168.9C152.448 168.9 152.447 168.9 152.447 168.9C152.446 168.9 152.446 168.9 152.446 168.9C152.445 168.9 152.445 168.9 152.445 168.9C152.444 168.9 152.444 168.9 152.444 168.9C152.443 168.9 152.443 168.9 152.442 168.9C152.442 168.9 152.442 168.9 152.441 168.9C152.441 168.9 152.441 168.9 152.44 168.9V169.9V170.9C152.441 170.9 152.441 170.9 152.441 170.9C152.442 170.9 152.442 170.9 152.442 170.9C152.443 170.9 152.443 170.9 152.444 170.9C152.444 170.9 152.444 170.9 152.445 170.9C152.445 170.9 152.445 170.9 152.446 170.9C152.446 170.9 152.446 170.9 152.447 170.9C152.447 170.9 152.448 170.9 152.448 170.9C152.448 170.9 152.449 170.9 152.449 170.9C152.449 170.9 152.45 170.9 152.45 170.9C152.451 170.9 152.451 170.9 152.451 170.9C152.452 170.9 152.452 170.9 152.452 170.9C152.453 170.9 152.453 170.9 152.454 170.9C152.454 170.9 152.454 170.9 152.455 170.9C152.455 170.9 152.455 170.9 152.456 170.9C152.456 170.9 152.456 170.9 152.457 170.9C152.457 170.9 152.458 170.9 152.458 170.9C152.458 170.9 152.459 170.9 152.459 170.9C152.459 170.9 152.46 170.9 152.46 170.9C152.461 170.9 152.461 170.9 152.461 170.9C152.462 170.9 152.462 170.9 152.462 170.9C152.463 170.9 152.463 170.9 152.464 170.9C152.464 170.9 152.464 170.9 152.465 170.9C152.465 170.9 152.465 170.9 152.466 170.9C152.466 170.9 152.466 170.9 152.467 170.9C152.467 170.9 152.468 170.9 152.468 170.9C152.468 170.9 152.469 170.9 152.469 170.9C152.469 170.9 152.47 170.9 152.47 170.9C152.471 170.9 152.471 170.9 152.471 170.9C152.472 170.9 152.472 170.9 152.472 170.9C152.473 170.9 152.473 170.9 152.473 170.9C152.474 170.9 152.474 170.9 152.475 170.9C152.475 170.9 152.475 170.9 152.476 170.9C152.476 170.9 152.476 170.9 152.477 170.9C152.477 170.9 152.478 170.9 152.478 170.9C152.478 170.9 152.479 170.9 152.479 170.9C152.479 170.9 152.48 170.9 152.48 170.9C152.48 170.9 152.481 170.9 152.481 170.9C152.482 170.9 152.482 170.9 152.482 170.9C152.483 170.9 152.483 170.9 152.483 170.9C152.484 170.9 152.484 170.9 152.485 170.9C152.485 170.9 152.485 170.9 152.486 170.9C152.486 170.9 152.486 170.9 152.487 170.9C152.487 170.9 152.487 170.9 152.488 170.9C152.488 170.9 152.489 170.9 152.489 170.9C152.489 170.9 152.49 170.9 152.49 170.9C152.49 170.9 152.491 170.9 152.491 170.9C152.492 170.9 152.492 170.9 152.492 170.9C152.493 170.9 152.493 170.9 152.493 170.9C152.494 170.9 152.494 170.9 152.494 170.9C152.495 170.9 152.495 170.9 152.496 170.9C152.496 170.9 152.496 170.9 152.497 170.9C152.497 170.9 152.497 170.9 152.498 170.9C152.498 170.9 152.499 170.9 152.499 170.9C152.499 170.9 152.5 170.9 152.5 170.9C152.5 170.9 152.501 170.9 152.501 170.9C152.501 170.9 152.502 170.9 152.502 170.9C152.503 170.9 152.503 170.9 152.503 170.9C152.504 170.9 152.504 170.9 152.504 170.9C152.505 170.9 152.505 170.9 152.505 170.9C152.506 170.9 152.506 170.9 152.507 170.9C152.507 170.9 152.507 170.9 152.508 170.9C152.508 170.9 152.508 170.9 152.509 170.9C152.509 170.9 152.51 170.9 152.51 170.9C152.51 170.9 152.511 170.9 152.511 170.9C152.511 170.9 152.512 170.9 152.512 170.9C152.512 170.9 152.513 170.9 152.513 170.9C152.514 170.9 152.514 170.9 152.514 170.9C152.515 170.9 152.515 170.9 152.515 170.9C152.516 170.9 152.516 170.9 152.516 170.9C152.517 170.9 152.517 170.9 152.518 170.9C152.518 170.9 152.518 170.9 152.519 170.9C152.519 170.9 152.519 170.9 152.52 170.9C152.52 170.9 152.521 170.9 152.521 170.9C152.521 170.9 152.522 170.9 152.522 170.9C152.522 170.9 152.523 170.9 152.523 170.9C152.523 170.9 152.524 170.9 152.524 170.9C152.525 170.9 152.525 170.9 152.525 170.9C152.526 170.9 152.526 170.9 152.526 170.9C152.527 170.9 152.527 170.9 152.527 170.9C152.528 170.9 152.528 170.9 152.529 170.9C152.529 170.9 152.529 170.9 152.53 170.9C152.53 170.9 152.53 170.9 152.531 170.9C152.531 170.9 152.532 170.9 152.532 170.9C152.532 170.9 152.533 170.9 152.533 170.9C152.533 170.9 152.534 170.9 152.534 170.9C152.534 170.9 152.535 170.9 152.535 170.9C152.536 170.9 152.536 170.9 152.536 170.9C152.537 170.9 152.537 170.9 152.537 170.9C152.538 170.9 152.538 170.9 152.538 170.9C152.539 170.9 152.539 170.9 152.54 170.9C152.54 170.9 152.54 170.9 152.541 170.9C152.541 170.9 152.541 170.9 152.542 170.9C152.542 170.9 152.542 170.9 152.543 170.9C152.543 170.9 152.544 170.9 152.544 170.9C152.544 170.9 152.545 170.9 152.545 170.9C152.545 170.9 152.546 170.9 152.546 170.9C152.546 170.9 152.547 170.9 152.547 170.9C152.548 170.9 152.548 170.9 152.548 170.9C152.549 170.9 152.549 170.9 152.549 170.9C152.55 170.9 152.55 170.9 152.551 170.9C152.551 170.9 152.551 170.9 152.552 170.9C152.552 170.9 152.552 170.9 152.553 170.9C152.553 170.9 152.553 170.9 152.554 170.9C152.554 170.9 152.555 170.9 152.555 170.9C152.555 170.9 152.556 170.9 152.556 170.9C152.556 170.9 152.557 170.9 152.557 170.9C152.557 170.9 152.558 170.9 152.558 170.9C152.559 170.9 152.559 170.9 152.559 170.9C152.56 170.9 152.56 170.9 152.56 170.9C152.561 170.9 152.561 170.9 152.561 170.9C152.562 170.9 152.562 170.9 152.563 170.9C152.563 170.9 152.563 170.9 152.564 170.9C152.564 170.9 152.564 170.9 152.565 170.9C152.565 170.9 152.565 170.9 152.566 170.9C152.566 170.9 152.567 170.9 152.567 170.9C152.567 170.9 152.568 170.9 152.568 170.9C152.568 170.9 152.569 170.9 152.569 170.9C152.569 170.9 152.57 170.9 152.57 170.9C152.571 170.9 152.571 170.9 152.571 170.9C152.572 170.9 152.572 170.9 152.572 170.9C152.573 170.9 152.573 170.9 152.573 170.9C152.574 170.9 152.574 170.9 152.575 170.9C152.575 170.9 152.575 170.9 152.576 170.9C152.576 170.9 152.576 170.9 152.577 170.9C152.577 170.9 152.577 170.9 152.578 170.9C152.578 170.9 152.579 170.9 152.579 170.9C152.579 170.9 152.58 170.9 152.58 170.9C152.58 170.9 152.581 170.9 152.581 170.9C152.581 170.9 152.582 170.9 152.582 170.9C152.583 170.9 152.583 170.9 152.583 170.9C152.584 170.9 152.584 170.9 152.584 170.9C152.585 170.9 152.585 170.9 152.585 170.9C152.586 170.9 152.586 170.9 152.587 170.9C152.587 170.9 152.587 170.9 152.588 170.9C152.588 170.9 152.588 170.9 152.589 170.9C152.589 170.9 152.589 170.9 152.59 170.9C152.59 170.9 152.591 170.9 152.591 170.9C152.591 170.9 152.592 170.9 152.592 170.9C152.592 170.9 152.593 170.9 152.593 170.9C152.593 170.9 152.594 170.9 152.594 170.9C152.595 170.9 152.595 170.9 152.595 170.9C152.596 170.9 152.596 170.9 152.596 170.9C152.597 170.9 152.597 170.9 152.597 170.9C152.598 170.9 152.598 170.9 152.599 170.9C152.599 170.9 152.599 170.9 152.6 170.9C152.6 170.9 152.6 170.9 152.601 170.9C152.601 170.9 152.601 170.9 152.602 170.9C152.602 170.9 152.603 170.9 152.603 170.9C152.603 170.9 152.604 170.9 152.604 170.9C152.604 170.9 152.605 170.9 152.605 170.9C152.605 170.9 152.606 170.9 152.606 170.9C152.607 170.9 152.607 170.9 152.607 170.9C152.608 170.9 152.608 170.9 152.608 170.9C152.609 170.9 152.609 170.9 152.609 170.9C152.61 170.9 152.61 170.9 152.611 170.9C152.611 170.9 152.611 170.9 152.612 170.9C152.612 170.9 152.612 170.9 152.613 170.9C152.613 170.9 152.613 170.9 152.614 170.9C152.614 170.9 152.615 170.9 152.615 170.9C152.615 170.9 152.616 170.9 152.616 170.9C152.616 170.9 152.617 170.9 152.617 170.9C152.617 170.9 152.618 170.9 152.618 170.9C152.619 170.9 152.619 170.9 152.619 170.9C152.62 170.9 152.62 170.9 152.62 170.9C152.621 170.9 152.621 170.9 152.621 170.9C152.622 170.9 152.622 170.9 152.623 170.9C152.623 170.9 152.623 170.9 152.624 170.9C152.624 170.9 152.624 170.9 152.625 170.9C152.625 170.9 152.625 170.9 152.626 170.9C152.626 170.9 152.626 170.9 152.627 170.9C152.627 170.9 152.628 170.9 152.628 170.9C152.628 170.9 152.629 170.9 152.629 170.9C152.629 170.9 152.63 170.9 152.63 170.9C152.63 170.9 152.631 170.9 152.631 170.9C152.632 170.9 152.632 170.9 152.632 170.9C152.633 170.9 152.633 170.9 152.633 170.9C152.634 170.9 152.634 170.9 152.634 170.9C152.635 170.9 152.635 170.9 152.636 170.9C152.636 170.9 152.636 170.9 152.637 170.9C152.637 170.9 152.637 170.9 152.638 170.9C152.638 170.9 152.638 170.9 152.639 170.9C152.639 170.9 152.64 170.9 152.64 170.9C152.64 170.9 152.641 170.9 152.641 170.9C152.641 170.9 152.642 170.9 152.642 170.9C152.642 170.9 152.643 170.9 152.643 170.9C152.644 170.9 152.644 170.9 152.644 170.9C152.645 170.9 152.645 170.9 152.645 170.9C152.646 170.9 152.646 170.9 152.646 170.9C152.647 170.9 152.647 170.9 152.648 170.9C152.648 170.9 152.648 170.9 152.649 170.9C152.649 170.9 152.649 170.9 152.65 170.9C152.65 170.9 152.65 170.9 152.651 170.9C152.651 170.9 152.651 170.9 152.652 170.9C152.652 170.9 152.653 170.9 152.653 170.9C152.653 170.9 152.654 170.9 152.654 170.9C152.654 170.9 152.655 170.9 152.655 170.9C152.655 170.9 152.656 170.9 152.656 170.9C152.657 170.9 152.657 170.9 152.657 170.9C152.658 170.9 152.658 170.9 152.658 170.9C152.659 170.9 152.659 170.9 152.659 170.9C152.66 170.9 152.66 170.9 152.661 170.9C152.661 170.9 152.661 170.9 152.662 170.9C152.662 170.9 152.662 170.9 152.663 170.9C152.663 170.9 152.663 170.9 152.664 170.9C152.664 170.9 152.665 170.9 152.665 170.9C152.665 170.9 152.666 170.9 152.666 170.9C152.666 170.9 152.667 170.9 152.667 170.9C152.667 170.9 152.668 170.9 152.668 170.9C152.668 170.9 152.669 170.9 152.669 170.9C152.67 170.9 152.67 170.9 152.67 170.9C152.671 170.9 152.671 170.9 152.671 170.9C152.672 170.9 152.672 170.9 152.672 170.9C152.673 170.9 152.673 170.9 152.674 170.9C152.674 170.9 152.674 170.9 152.675 170.9C152.675 170.9 152.675 170.9 152.676 170.9C152.676 170.9 152.676 170.9 152.677 170.9C152.677 170.9 152.678 170.9 152.678 170.9C152.678 170.9 152.679 170.9 152.679 170.9C152.679 170.9 152.68 170.9 152.68 170.9C152.68 170.9 152.681 170.9 152.681 170.9C152.682 170.9 152.682 170.9 152.682 170.9C152.683 170.9 152.683 170.9 152.683 170.9C152.684 170.9 152.684 170.9 152.684 170.9C152.685 170.9 152.685 170.9 152.685 170.9C152.686 170.9 152.686 170.9 152.687 170.9C152.687 170.9 152.687 170.9 152.688 170.9C152.688 170.9 152.688 170.9 152.689 170.9C152.689 170.9 152.689 170.9 152.69 170.9C152.69 170.9 152.691 170.9 152.691 170.9C152.691 170.9 152.692 170.9 152.692 170.9C152.692 170.9 152.693 170.9 152.693 170.9C152.693 170.9 152.694 170.9 152.694 170.9C152.695 170.9 152.695 170.9 152.695 170.9C152.696 170.9 152.696 170.9 152.696 170.9C152.697 170.9 152.697 170.9 152.697 170.9C152.698 170.9 152.698 170.9 152.698 170.9C152.699 170.9 152.699 170.9 152.7 170.9C152.7 170.9 152.7 170.9 152.701 170.9C152.701 170.9 152.701 170.9 152.702 170.9C152.702 170.9 152.702 170.9 152.703 170.9C152.703 170.9 152.704 170.9 152.704 170.9C152.704 170.9 152.705 170.9 152.705 170.9C152.705 170.9 152.706 170.9 152.706 170.9C152.706 170.9 152.707 170.9 152.707 170.9C152.708 170.9 152.708 170.9 152.708 170.9C152.709 170.9 152.709 170.9 152.709 170.9C152.71 170.9 152.71 170.9 152.71 170.9C152.711 170.9 152.711 170.9 152.712 170.9C152.712 170.9 152.712 170.9 152.713 170.9C152.713 170.9 152.713 170.9 152.714 170.9C152.714 170.9 152.714 170.9 152.715 170.9C152.715 170.9 152.715 170.9 152.716 170.9C152.716 170.9 152.717 170.9 152.717 170.9C152.717 170.9 152.718 170.9 152.718 170.9C152.718 170.9 152.719 170.9 152.719 170.9C152.719 170.9 152.72 170.9 152.72 170.9C152.721 170.9 152.721 170.9 152.721 170.9C152.722 170.9 152.722 170.9 152.722 170.9C152.723 170.9 152.723 170.9 152.723 170.9C152.724 170.9 152.724 170.9 152.725 170.9C152.725 170.9 152.725 170.9 152.726 170.9C152.726 170.9 152.726 170.9 152.727 170.9C152.727 170.9 152.727 170.9 152.728 170.9C152.728 170.9 152.728 170.9 152.729 170.9C152.729 170.9 152.73 170.9 152.73 170.9C152.73 170.9 152.731 170.9 152.731 170.9C152.731 170.9 152.732 170.9 152.732 170.9C152.732 170.9 152.733 170.9 152.733 170.9C152.734 170.9 152.734 170.9 152.734 170.9C152.735 170.9 152.735 170.9 152.735 170.9C152.736 170.9 152.736 170.9 152.736 170.9C152.737 170.9 152.737 170.9 152.738 170.9C152.738 170.9 152.738 170.9 152.739 170.9C152.739 170.9 152.739 170.9 152.74 170.9C152.74 170.9 152.74 170.9 152.741 170.9C152.741 170.9 152.741 170.9 152.742 170.9C152.742 170.9 152.743 170.9 152.743 170.9C152.743 170.9 152.744 170.9 152.744 170.9C152.744 170.9 152.745 170.9 152.745 170.9C152.745 170.9 152.746 170.9 152.746 170.9C152.747 170.9 152.747 170.9 152.747 170.9C152.748 170.9 152.748 170.9 152.748 170.9C152.749 170.9 152.749 170.9 152.749 170.9C152.75 170.9 152.75 170.9 152.751 170.9C152.751 170.9 152.751 170.9 152.752 170.9C152.752 170.9 152.752 170.9 152.753 170.9C152.753 170.9 152.753 170.9 152.754 170.9C152.754 170.9 152.755 170.9 152.755 170.9C152.755 170.9 152.756 170.9 152.756 170.9C152.756 170.9 152.757 170.9 152.757 170.9C152.757 170.9 152.758 170.9 152.758 170.9C152.758 170.9 152.759 170.9 152.759 170.9C152.76 170.9 152.76 170.9 152.76 170.9C152.761 170.9 152.761 170.9 152.761 170.9C152.762 170.9 152.762 170.9 152.762 170.9C152.763 170.9 152.763 170.9 152.764 170.9C152.764 170.9 152.764 170.9 152.765 170.9C152.765 170.9 152.765 170.9 152.766 170.9C152.766 170.9 152.766 170.9 152.767 170.9C152.767 170.9 152.768 170.9 152.768 170.9C152.768 170.9 152.769 170.9 152.769 170.9C152.769 170.9 152.77 170.9 152.77 170.9C152.77 170.9 152.771 170.9 152.771 170.9C152.771 170.9 152.772 170.9 152.772 170.9C152.773 170.9 152.773 170.9 152.773 170.9C152.774 170.9 152.774 170.9 152.774 170.9C152.775 170.9 152.775 170.9 152.775 170.9C152.776 170.9 152.776 170.9 152.777 170.9C152.777 170.9 152.777 170.9 152.778 170.9C152.778 170.9 152.778 170.9 152.779 170.9C152.779 170.9 152.779 170.9 152.78 170.9C152.78 170.9 152.781 170.9 152.781 170.9C152.781 170.9 152.782 170.9 152.782 170.9C152.782 170.9 152.783 170.9 152.783 170.9C152.783 170.9 152.784 170.9 152.784 170.9C152.785 170.9 152.785 170.9 152.785 170.9C152.786 170.9 152.786 170.9 152.786 170.9C152.787 170.9 152.787 170.9 152.787 170.9C152.788 170.9 152.788 170.9 152.789 170.9C152.789 170.9 152.789 170.9 152.79 170.9C152.79 170.9 152.79 170.9 152.791 170.9C152.791 170.9 152.791 170.9 152.792 170.9C152.792 170.9 152.792 170.9 152.793 170.9C152.793 170.9 152.794 170.9 152.794 170.9C152.794 170.9 152.795 170.9 152.795 170.9C152.795 170.9 152.796 170.9 152.796 170.9C152.796 170.9 152.797 170.9 152.797 170.9C152.798 170.9 152.798 170.9 152.798 170.9C152.799 170.9 152.799 170.9 152.799 170.9C152.8 170.9 152.8 170.9 152.8 170.9C152.801 170.9 152.801 170.9 152.802 170.9C152.802 170.9 152.802 170.9 152.803 170.9C152.803 170.9 152.803 170.9 152.804 170.9C152.804 170.9 152.804 170.9 152.805 170.9C152.805 170.9 152.806 170.9 152.806 170.9C152.806 170.9 152.807 170.9 152.807 170.9C152.807 170.9 152.808 170.9 152.808 170.9C152.808 170.9 152.809 170.9 152.809 170.9C152.81 170.9 152.81 170.9 152.81 170.9C152.811 170.9 152.811 170.9 152.811 170.9C152.812 170.9 152.812 170.9 152.812 170.9C152.813 170.9 152.813 170.9 152.813 170.9C152.814 170.9 152.814 170.9 152.815 170.9C152.815 170.9 152.815 170.9 152.816 170.9C152.816 170.9 152.816 170.9 152.817 170.9C152.817 170.9 152.817 170.9 152.818 170.9C152.818 170.9 152.819 170.9 152.819 170.9C152.819 170.9 152.82 170.9 152.82 170.9C152.82 170.9 152.821 170.9 152.821 170.9C152.821 170.9 152.822 170.9 152.822 170.9C152.823 170.9 152.823 170.9 152.823 170.9C152.824 170.9 152.824 170.9 152.824 170.9C152.825 170.9 152.825 170.9 152.825 170.9C152.826 170.9 152.826 170.9 152.827 170.9C152.827 170.9 152.827 170.9 152.828 170.9C152.828 170.9 152.828 170.9 152.829 170.9C152.829 170.9 152.829 170.9 152.83 170.9C152.83 170.9 152.831 170.9 152.831 170.9C152.831 170.9 152.832 170.9 152.832 170.9C152.832 170.9 152.833 170.9 152.833 170.9C152.833 170.9 152.834 170.9 152.834 170.9C152.835 170.9 152.835 170.9 152.835 170.9C152.836 170.9 152.836 170.9 152.836 170.9C152.837 170.9 152.837 170.9 152.837 170.9C152.838 170.9 152.838 170.9 152.839 170.9C152.839 170.9 152.839 170.9 152.84 170.9C152.84 170.9 152.84 170.9 152.841 170.9C152.841 170.9 152.841 170.9 152.842 170.9C152.842 170.9 152.843 170.9 152.843 170.9C152.843 170.9 152.844 170.9 152.844 170.9C152.844 170.9 152.845 170.9 152.845 170.9C152.845 170.9 152.846 170.9 152.846 170.9C152.847 170.9 152.847 170.9 152.847 170.9C152.848 170.9 152.848 170.9 152.848 170.9C152.849 170.9 152.849 170.9 152.849 170.9C152.85 170.9 152.85 170.9 152.851 170.9C152.851 170.9 152.851 170.9 152.852 170.9C152.852 170.9 152.852 170.9 152.853 170.9C152.853 170.9 152.853 170.9 152.854 170.9C152.854 170.9 152.855 170.9 152.855 170.9C152.855 170.9 152.856 170.9 152.856 170.9C152.856 170.9 152.857 170.9 152.857 170.9C152.857 170.9 152.858 170.9 152.858 170.9C152.859 170.9 152.859 170.9 152.859 170.9C152.86 170.9 152.86 170.9 152.86 170.9C152.861 170.9 152.861 170.9 152.861 170.9C152.862 170.9 152.862 170.9 152.863 170.9C152.863 170.9 152.863 170.9 152.864 170.9C152.864 170.9 152.864 170.9 152.865 170.9C152.865 170.9 152.865 170.9 152.866 170.9C152.866 170.9 152.867 170.9 152.867 170.9C152.867 170.9 152.868 170.9 152.868 170.9C152.868 170.9 152.869 170.9 152.869 170.9C152.869 170.9 152.87 170.9 152.87 170.9C152.871 170.9 152.871 170.9 152.871 170.9C152.872 170.9 152.872 170.9 152.872 170.9C152.873 170.9 152.873 170.9 152.873 170.9C152.874 170.9 152.874 170.9 152.875 170.9C152.875 170.9 152.875 170.9 152.876 170.9C152.876 170.9 152.876 170.9 152.877 170.9C152.877 170.9 152.877 170.9 152.878 170.9C152.878 170.9 152.879 170.9 152.879 170.9C152.879 170.9 152.88 170.9 152.88 170.9C152.88 170.9 152.881 170.9 152.881 170.9C152.881 170.9 152.882 170.9 152.882 170.9C152.883 170.9 152.883 170.9 152.883 170.9C152.884 170.9 152.884 170.9 152.884 170.9C152.885 170.9 152.885 170.9 152.885 170.9C152.886 170.9 152.886 170.9 152.887 170.9C152.887 170.9 152.887 170.9 152.888 170.9C152.888 170.9 152.888 170.9 152.889 170.9C152.889 170.9 152.889 170.9 152.89 170.9C152.89 170.9 152.891 170.9 152.891 170.9C152.891 170.9 152.892 170.9 152.892 170.9C152.892 170.9 152.893 170.9 152.893 170.9C152.893 170.9 152.894 170.9 152.894 170.9C152.895 170.9 152.895 170.9 152.895 170.9C152.896 170.9 152.896 170.9 152.896 170.9C152.897 170.9 152.897 170.9 152.898 170.9C152.898 170.9 152.898 170.9 152.899 170.9C152.899 170.9 152.899 170.9 152.9 170.9C152.9 170.9 152.9 170.9 152.901 170.9C152.901 170.9 152.902 170.9 152.902 170.9C152.902 170.9 152.903 170.9 152.903 170.9C152.903 170.9 152.904 170.9 152.904 170.9C152.904 170.9 152.905 170.9 152.905 170.9C152.906 170.9 152.906 170.9 152.906 170.9C152.907 170.9 152.907 170.9 152.907 170.9C152.908 170.9 152.908 170.9 152.908 170.9C152.909 170.9 152.909 170.9 152.91 170.9C152.91 170.9 152.91 170.9 152.911 170.9C152.911 170.9 152.911 170.9 152.912 170.9C152.912 170.9 152.913 170.9 152.913 170.9C152.913 170.9 152.914 170.9 152.914 170.9C152.914 170.9 152.915 170.9 152.915 170.9C152.915 170.9 152.916 170.9 152.916 170.9C152.917 170.9 152.917 170.9 152.917 170.9C152.918 170.9 152.918 170.9 152.918 170.9C152.919 170.9 152.919 170.9 152.919 170.9C152.92 170.9 152.92 170.9 152.921 170.9C152.921 170.9 152.921 170.9 152.922 170.9C152.922 170.9 152.922 170.9 152.923 170.9C152.923 170.9 152.923 170.9 152.924 170.9C152.924 170.9 152.925 170.9 152.925 170.9C152.925 170.9 152.926 170.9 152.926 170.9C152.926 170.9 152.927 170.9 152.927 170.9C152.928 170.9 152.928 170.9 152.928 170.9C152.929 170.9 152.929 170.9 152.929 170.9C152.93 170.9 152.93 170.9 152.93 170.9C152.931 170.9 152.931 170.9 152.932 170.9C152.932 170.9 152.932 170.9 152.933 170.9C152.933 170.9 152.933 170.9 152.934 170.9C152.934 170.9 152.934 170.9 152.935 170.9C152.935 170.9 152.936 170.9 152.936 170.9C152.936 170.9 152.937 170.9 152.937 170.9C152.937 170.9 152.938 170.9 152.938 170.9C152.939 170.9 152.939 170.9 152.939 170.9C152.94 170.9 152.94 170.9 152.94 170.9C152.941 170.9 152.941 170.9 152.941 170.9C152.942 170.9 152.942 170.9 152.943 170.9C152.943 170.9 152.943 170.9 152.944 170.9C152.944 170.9 152.944 170.9 152.945 170.9C152.945 170.9 152.946 170.9 152.946 170.9C152.946 170.9 152.947 170.9 152.947 170.9C152.947 170.9 152.948 170.9 152.948 170.9C152.948 170.9 152.949 170.9 152.949 170.9C152.95 170.9 152.95 170.9 152.95 170.9C152.951 170.9 152.951 170.9 152.951 170.9C152.952 170.9 152.952 170.9 152.953 170.9C152.953 170.9 152.953 170.9 152.954 170.9C152.954 170.9 152.954 170.9 152.955 170.9C152.955 170.9 152.955 170.9 152.956 170.9C152.956 170.9 152.957 170.9 152.957 170.9C152.957 170.9 152.958 170.9 152.958 170.9C152.958 170.9 152.959 170.9 152.959 170.9C152.96 170.9 152.96 170.9 152.96 170.9C152.961 170.9 152.961 170.9 152.961 170.9C152.962 170.9 152.962 170.9 152.962 170.9C152.963 170.9 152.963 170.9 152.964 170.9C152.964 170.9 152.964 170.9 152.965 170.9C152.965 170.9 152.965 170.9 152.966 170.9C152.966 170.9 152.967 170.9 152.967 170.9C152.967 170.9 152.968 170.9 152.968 170.9C152.968 170.9 152.969 170.9 152.969 170.9C152.969 170.9 152.97 170.9 152.97 170.9C152.971 170.9 152.971 170.9 152.971 170.9C152.972 170.9 152.972 170.9 152.972 170.9C152.973 170.9 152.973 170.9 152.974 170.9C152.974 170.9 152.974 170.9 152.975 170.9C152.975 170.9 152.975 170.9 152.976 170.9C152.976 170.9 152.976 170.9 152.977 170.9C152.977 170.9 152.978 170.9 152.978 170.9C152.978 170.9 152.979 170.9 152.979 170.9C152.979 170.9 152.98 170.9 152.98 170.9C152.981 170.9 152.981 170.9 152.981 170.9C152.982 170.9 152.982 170.9 152.982 170.9C152.983 170.9 152.983 170.9 152.984 170.9C152.984 170.9 152.984 170.9 152.985 170.9C152.985 170.9 152.985 170.9 152.986 170.9C152.986 170.9 152.986 170.9 152.987 170.9C152.987 170.9 152.988 170.9 152.988 170.9C152.988 170.9 152.989 170.9 152.989 170.9C152.989 170.9 152.99 170.9 152.99 170.9C152.991 170.9 152.991 170.9 152.991 170.9C152.992 170.9 152.992 170.9 152.992 170.9C152.993 170.9 152.993 170.9 152.993 170.9C152.994 170.9 152.994 170.9 152.995 170.9C152.995 170.9 152.995 170.9 152.996 170.9C152.996 170.9 152.996 170.9 152.997 170.9C152.997 170.9 152.998 170.9 152.998 170.9C152.998 170.9 152.999 170.9 152.999 170.9C152.999 170.9 153 170.9 153 170.9V169.9ZM152.44 169.9L152.454 168.9C131.94 168.618 115.39 151.883 115.39 131.3H114.39H113.39C113.39 152.977 130.82 170.602 152.426 170.9L152.44 169.9ZM114.39 131.3H115.39C115.39 110.719 132.235 93.7 153 93.7V92.7V91.7C131.125 91.7 113.39 109.621 113.39 131.3H114.39ZM153 92.7V93.7C173.768 93.7 190.6 110.532 190.6 131.3H191.6H192.6C192.6 109.428 174.872 91.7 153 91.7V92.7ZM191.6 131.3H190.6C190.6 152.068 173.758 168.91 153 168.91V169.91V170.91C174.863 170.91 192.6 153.172 192.6 131.3H191.6ZM153 169.91H154V169.9H153H152V169.91H153Z" fill="black" mask="url(#path-7-inside-3_13_2)"/>
<path d="M33 131.44H0" stroke="black" stroke-width="3" stroke-miterlimit="10"/>
<path d="M152.44 314.55V166.55" stroke="black" stroke-width="3" stroke-miterlimit="10"/>
</g>
<defs>
<clipPath id="clip0_13_2">
<rect width="283.83" height="314.55" fill="white"/>
</clipPath>
</defs>
</svg>
