<?xml version="1.0" encoding="UTF-8"?>
<svg id="Layer_2" data-name="Layer 2" xmlns="http://www.w3.org/2000/svg" viewBox="0 0 283.83 314.55">
  <defs>
    <style>
      .cls-1, .cls-2, .cls-3 {
        stroke-width: 0px;
      }

      .cls-1, .cls-3 {
        fill-rule: evenodd;
      }

      .cls-4 {
        fill: none;
        stroke: #fff;
        stroke-miterlimit: 10;
        stroke-width: 3px;
      }

      .cls-2, .cls-3 {
        fill: #fff;
      }
    </style>
  </defs>
  <g id="Layer_1-2" data-name="Layer 1">
    <path class="cls-3" d="m152.21,0C79.58,0,20.7,58.83,20.6,131.44v.18c0,72.69,58.92,131.62,131.61,131.62h.23c72.58-.12,131.39-59.01,131.39-131.62S224.9,0,152.21,0Zm.23,257.51h-.23c-69.53,0-125.89-56.36-125.89-125.89v-.18c.1-69.45,56.42-125.71,125.89-125.71s125.9,56.36,125.9,125.89-56.25,125.77-125.67,125.89Z"/>
    <path class="cls-1" d="m153,38.87h0v31.91c-33.42,0-60.5,27.09-60.5,60.51s27.09,60.51,60.51,60.51c29.74,0,54.47-21.46,59.55-49.74h32.24c-5.33,45.97-44.4,81.65-91.8,81.65-51.04,0-92.42-41.38-92.42-92.42s41.38-92.42,92.42-92.42Z"/>
    <path class="cls-1" d="m212.55,142.06c-5.08,28.28-29.81,49.74-59.55,49.74-.19,0-.37,0-.56-.01-.49,0-.99-.01-1.48-.03-.06,0-.11,0-.17-.01-.48-.01-.96-.04-1.44-.07-1.02-.06-2.03-.14-3.03-.25-.02,0-.04-.01-.07-.01-.49-.05-.97-.11-1.46-.18-.5-.07-.99-.14-1.49-.22-.99-.16-1.97-.34-2.95-.55h-.03c-.48-.11-.96-.22-1.44-.33-.48-.12-.96-.24-1.44-.36-.48-.13-.96-.26-1.43-.4-.48-.14-.95-.29-1.42-.44-.47-.14-.93-.3-1.4-.46-.46-.16-.92-.33-1.38-.5s-.92-.35-1.37-.53c-.46-.18-.91-.37-1.36-.56-.45-.2-.89-.4-1.33-.6-1.33-.61-2.63-1.27-3.91-1.97-.42-.23-.85-.47-1.26-.71-.42-.25-.84-.5-1.26-.75-.41-.26-.81-.51-1.22-.78-.4-.26-.8-.53-1.2-.8-.4-.27-.8-.55-1.19-.83-.39-.28-.78-.57-1.16-.86-.39-.29-.77-.58-1.14-.88-.38-.3-.76-.61-1.13-.92-.37-.3-.73-.62-1.09-.93-.37-.32-.72-.64-1.08-.97-.35-.32-.7-.65-1.05-.99-.35-.33-.69-.67-1.03-1.01s-.67-.69-1-1.04c-.33-.35-.66-.7-.98-1.06-.33-.35-.64-.72-.96-1.08-.31-.37-.62-.73-.93-1.11-.3-.37-.6-.75-.9-1.13-.59-.76-1.17-1.53-1.72-2.32-.28-.39-.55-.79-.82-1.19-.54-.8-1.06-1.62-1.56-2.45-.25-.41-.5-.83-.74-1.25-.78-1.38-1.52-2.79-2.2-4.23-.15-.32-.3-.64-.44-.97-.38-.82-.73-1.66-1.06-2.5-.21-.52-.41-1.04-.6-1.58-.16-.46-.33-.92-.48-1.39-.16-.46-.31-.93-.46-1.4-.28-.92-.55-1.84-.79-2.78-.25-.99-.48-1.98-.68-2.99-.2-.96-.37-1.93-.52-2.91-.18-1.17-.33-2.35-.43-3.55-.08-.82-.14-1.64-.18-2.46-.06-1.07-.09-2.13-.09-3.21,0-33.41,27.09-60.5,60.51-60.5v-31.92c-.24,0-.48,0-.72.01-.79.01-1.58.02-2.37.05-.69.02-1.39.05-2.08.09h-.09c-.21.02-.42.03-.63.04-.07,0-.13.01-.2.01-.56.04-1.13.09-1.68.13h-.04c-.15,0-.3.03-.44.04-.55.05-1.1.1-1.64.16-.21.02-.42.04-.63.07-.6.07-1.2.14-1.79.22h-.02c-.15.02-.3.04-.45.06-.6.08-1.19.17-1.78.27-.1.01-.21.03-.31.05-.7.11-1.4.23-2.1.36-.75.14-1.5.29-2.25.45-.74.15-1.47.32-2.2.49-.03.01-.07.02-.1.03-.68.16-1.36.32-2.03.5-.19.05-.39.1-.58.16-.51.13-1.02.27-1.52.42-1.01.29-2.02.6-3.02.94-.07.02-.15.04-.22.07-.25.07-.5.15-.75.24-.13.05-.26.09-.4.14-.13.04-.26.09-.4.14-.02,0-.03,0-.05.02-.6.2-1.2.42-1.79.64-.7.26-1.4.53-2.09.81-.68.27-1.35.55-2.02.84-.03.01-.05.02-.08.03-.45.19-.9.39-1.35.59-.1.05-.2.09-.3.14-.07.03-.15.06-.22.1-.54.24-1.08.49-1.61.75-.41.2-.82.4-1.23.61-.4.19-.79.39-1.19.6-.57.29-1.14.59-1.7.9-.65.35-1.3.71-1.93,1.08-.59.33-1.17.68-1.75,1.03-1.33.8-2.64,1.64-3.92,2.51-.4.27-.8.54-1.19.82-.41.28-.81.57-1.21.86-.75.54-1.49,1.09-2.22,1.65-.09.07-.18.14-.27.21-.31.24-.62.48-.92.72-1.6,1.27-3.15,2.59-4.66,3.96-.55.5-1.09,1-1.62,1.51-.45.43-.9.87-1.34,1.31-.15.15-.3.29-.45.44-.45.46-.9.92-1.35,1.39-.37.38-.73.77-1.08,1.16-.11.11-.21.23-.31.34-.21.23-.43.47-.63.7-.5.54-.98,1.09-1.45,1.65-.22.26-.45.52-.67.79-.15.19-.31.37-.46.56-.29.35-.57.69-.85,1.05-.18.22-.35.45-.53.68-.55.7-1.09,1.41-1.62,2.13-.07.09-.13.18-.2.28-.51.69-1.01,1.4-1.5,2.11-.01.01-.01.02-.02.03-.49.71-.97,1.43-1.44,2.16-.07.1-.13.21-.2.31-.47.74-.94,1.49-1.39,2.25-.01,0-.01.01-.01.01-.01.01-.02.03-.02.04-.35.57-.68,1.13-1,1.7-.28.49-.56.98-.83,1.48-.24.45-.48.9-.73,1.35-.03.07-.07.14-.1.21-.25.48-.5.96-.74,1.44-.26.5-.5,1.01-.75,1.52-.31.64-.61,1.29-.9,1.94-1.22,2.72-2.32,5.51-3.28,8.36-.24.71-.47,1.43-.69,2.15-.09.29-.18.58-.26.88-.13.4-.25.81-.36,1.22-.21.72-.4,1.44-.59,2.16-.19.74-.37,1.48-.54,2.23-.17.72-.33,1.45-.48,2.18-.01.03-.01.06-.02.09-.11.57-.22,1.13-.33,1.7-.04.21-.07.41-.11.62-.09.5-.18,1.01-.25,1.51-.07.42-.14.85-.2,1.28-.14.97-.27,1.94-.38,2.93-.05.37-.09.74-.12,1.11-.06.56-.11,1.12-.15,1.68-.05.64-.1,1.28-.14,1.93-.04.5-.07,1.01-.09,1.52-.02.5-.04.99-.05,1.48-.04.94-.05,1.89-.05,2.84,0,2.54.1,5.06.31,7.55.08,1.09.19,2.17.32,3.25.03.32.07.65.11.97.2,1.52.43,3.03.69,4.53.03.16.06.31.09.46.11.63.23,1.25.36,1.87.46,2.27,1.01,4.51,1.64,6.72.4,1.41.84,2.81,1.3,4.19.22.66.45,1.32.69,1.97.06.18.13.35.19.52.23.63.47,1.25.71,1.86.53,1.35,1.1,2.7,1.7,4.02.3.68.62,1.36.94,2.03.34.72.7,1.43,1.06,2.14.65,1.28,1.34,2.54,2.05,3.78.37.64.74,1.28,1.13,1.91.37.63.76,1.25,1.16,1.87,1.99,3.13,4.16,6.12,6.51,8.98.31.38.62.75.95,1.13.81.96,1.63,1.9,2.48,2.81.37.41.75.81,1.13,1.21,4.71,4.94,9.96,9.36,15.66,13.16.47.32.95.64,1.43.94,1.77,1.14,3.59,2.21,5.44,3.23.47.26.94.51,1.42.76.84.44,1.69.87,2.54,1.29.67.32,1.34.64,2.02.95s1.36.61,2.05.91c.51.22,1.03.43,1.55.64.87.36,1.74.7,2.62,1.02.7.27,1.41.52,2.12.76.72.25,1.43.48,2.15.71.52.17,1.05.33,1.58.48.92.28,1.85.54,2.78.78.67.18,1.33.34,2,.5.1.03.19.05.28.07.68.16,1.35.31,2.03.45.06.01.11.03.17.04,2.23.46,4.5.85,6.79,1.16.76.1,1.53.19,2.31.27.77.08,1.55.16,2.32.22,1.54.13,3.09.21,4.65.27h.08c.78.02,1.56.04,2.35.04.19.01.37.01.56.01.74,0,1.48-.01,2.22-.03.57-.01,1.15-.03,1.72-.05.26-.01.51-.02.76-.04.38-.02.75-.04,1.13-.06.28-.02.57-.04.85-.06.85-.06,1.7-.13,2.54-.22.49-.04.98-.1,1.47-.15.14-.02.28-.03.42-.05.6-.07,1.2-.15,1.8-.24.11-.01.21-.02.32-.04.67-.1,1.33-.2,1.99-.31.68-.11,1.35-.23,2.03-.36.59-.11,1.19-.23,1.78-.36.29-.06.58-.12.86-.18.47-.1.94-.21,1.41-.32.46-.11.91-.22,1.37-.34.37-.09.74-.18,1.11-.28.68-.18,1.36-.37,2.03-.57.47-.13.95-.27,1.42-.42.38-.12.76-.23,1.14-.36,1.04-.33,2.08-.69,3.1-1.06.66-.24,1.31-.48,1.96-.73.73-.29,1.46-.58,2.18-.88.55-.23,1.09-.46,1.63-.7.13-.06.26-.11.39-.17.44-.2.87-.39,1.3-.6.23-.1.46-.21.69-.32.54-.25,1.07-.51,1.6-.78.95-.48,1.9-.97,2.83-1.48.44-.24.88-.48,1.32-.73.23-.13.45-.25.67-.38.49-.28.98-.57,1.46-.86.2-.12.39-.24.59-.36.64-.39,1.27-.78,1.9-1.19.35-.22.71-.45,1.05-.69.05-.03.09-.06.14-.09.25-.17.51-.34.76-.51.57-.38,1.13-.78,1.69-1.18.68-.49,1.36-.98,2.03-1.49.56-.42,1.12-.85,1.67-1.29t.02-.02c.94-.74,1.86-1.5,2.77-2.28.52-.45,1.04-.9,1.55-1.36.67-.59,1.32-1.2,1.97-1.82.35-.33.69-.66,1.04-1,.52-.51,1.04-1.03,1.54-1.55.51-.52,1.01-1.04,1.5-1.58.42-.44.82-.89,1.22-1.34.39-.42.76-.85,1.14-1.29.43-.5.85-1.01,1.27-1.52.25-.29.49-.58.73-.89.01-.02.03-.05.05-.07.26-.32.52-.64.77-.97.34-.43.67-.86.99-1.29.28-.37.55-.74.82-1.11.37-.51.73-1.01,1.09-1.53.13-.18.25-.36.38-.54.35-.5.69-1.01,1.02-1.52.02-.03.04-.06.06-.09.41-.61.8-1.23,1.18-1.85.4-.63.78-1.26,1.16-1.9.18-.29.35-.59.52-.89.18-.3.34-.6.51-.9.34-.6.67-1.2.99-1.81.27-.49.52-.98.77-1.48.19-.36.37-.71.54-1.07.27-.54.53-1.09.79-1.64.28-.59.56-1.2.82-1.8.05-.1.1-.21.14-.32.22-.49.43-.98.63-1.48.09-.22.18-.43.27-.65.13-.32.26-.64.39-.97.11-.26.21-.51.3-.77.1-.26.2-.52.3-.78.3-.79.59-1.59.86-2.4.2-.58.39-1.16.58-1.74.03-.1.07-.2.09-.29.18-.57.35-1.13.52-1.7.02-.06.04-.13.06-.19.01-.02.02-.04.02-.06.19-.66.38-1.32.55-1.98.01-.01.01-.03.01-.04.11-.41.22-.82.32-1.23.02-.06.03-.12.05-.18.1-.4.2-.8.29-1.2.02-.06.04-.12.05-.19.14-.58.27-1.16.39-1.75.14-.62.26-1.23.38-1.86.06-.28.11-.57.16-.86.06-.29.1-.58.15-.86.02-.08.03-.15.04-.22.12-.68.23-1.36.33-2.05.05-.35.1-.69.15-1.04.05-.35.09-.7.13-1.05.01-.01.01-.03.01-.04.03-.24.06-.48.09-.72h-32.25Zm-59.55,80.94c-.19,0-.37,0-.56-.01-50.39-.29-91.15-41.24-91.15-91.7s40.67-91.31,90.99-91.7v30.49c-33.48.38-60.5,27.64-60.5,61.21s27.11,60.93,60.66,61.22c.19,0,.37,0,.56,0,29.89,0,54.77-21.42,60.15-49.74h30.84c-5.65,45.23-44.24,80.22-90.99,80.22Z"/>
    <path class="cls-3" d="m153,38.87h0v31.91c-33.42,0-60.5,27.09-60.5,60.51s27.09,60.51,60.51,60.51c29.74,0,54.47-21.46,59.55-49.74h32.24c-5.34,45.97-44.4,81.65-91.8,81.65-51.04,0-92.42-41.38-92.42-92.42s41.38-92.42,92.42-92.42Z"/>
    <path class="cls-1" d="m212.55,142.06c-5.08,28.28-29.81,49.74-59.55,49.74-.19,0-.37,0-.56-.01-.49,0-.99-.01-1.48-.03-.06,0-.11,0-.17-.01-.48-.01-.96-.04-1.44-.07-1.02-.06-2.03-.14-3.03-.25-.02,0-.04-.01-.07-.01-.49-.05-.97-.11-1.46-.18-.5-.07-.99-.14-1.49-.22-.99-.16-1.97-.34-2.95-.55h-.03c-.48-.11-.96-.22-1.44-.33-.48-.12-.96-.24-1.44-.36-.48-.13-.96-.26-1.43-.4-.48-.14-.95-.29-1.42-.44-.47-.14-.93-.3-1.4-.46-.46-.16-.92-.33-1.38-.5s-.92-.35-1.37-.53c-.46-.18-.91-.37-1.36-.56-.45-.2-.89-.4-1.33-.6-1.33-.61-2.63-1.27-3.91-1.97-.42-.23-.85-.47-1.26-.71-.42-.25-.84-.5-1.26-.75-.41-.26-.81-.51-1.22-.78-.4-.26-.8-.53-1.2-.8-.4-.27-.8-.55-1.19-.83-.39-.28-.78-.57-1.16-.86-.39-.29-.77-.58-1.14-.88-.38-.3-.76-.61-1.13-.92-.37-.3-.73-.62-1.09-.93-.37-.32-.72-.64-1.08-.97-.35-.32-.7-.65-1.05-.99-.35-.33-.69-.67-1.03-1.01s-.67-.69-1-1.04c-.33-.35-.66-.7-.98-1.06-.33-.35-.64-.72-.96-1.08-.31-.37-.62-.73-.93-1.11-.3-.37-.6-.75-.9-1.13-.59-.76-1.17-1.53-1.72-2.32-.28-.39-.55-.79-.82-1.19-.54-.8-1.06-1.62-1.56-2.45-.25-.41-.5-.83-.74-1.25-.78-1.38-1.52-2.79-2.2-4.23-.15-.32-.3-.64-.44-.97-.38-.82-.73-1.66-1.06-2.5-.21-.52-.41-1.04-.6-1.58-.16-.46-.33-.92-.48-1.39-.16-.46-.31-.93-.46-1.4-.28-.92-.55-1.84-.79-2.78-.25-.99-.48-1.98-.68-2.99-.2-.96-.37-1.93-.52-2.91-.18-1.17-.33-2.35-.43-3.55-.08-.82-.14-1.64-.18-2.46-.06-1.07-.09-2.13-.09-3.21,0-33.41,27.09-60.5,60.51-60.5v-31.92c-.24,0-.48,0-.72.01-.79.01-1.58.02-2.37.05-.69.02-1.39.05-2.08.09h-.09c-.21.02-.42.03-.63.04-.07,0-.13.01-.2.01-.56.04-1.13.09-1.68.13h-.04c-.15,0-.3.03-.44.04-.55.05-1.1.1-1.64.16-.21.02-.42.04-.63.07-.6.07-1.2.14-1.79.22h-.02c-.15.02-.3.04-.45.06-.6.08-1.19.17-1.78.27-.1.01-.21.03-.31.05-.7.11-1.4.23-2.1.36-.75.14-1.5.29-2.25.45-.74.15-1.47.32-2.2.49-.03.01-.07.02-.1.03-.68.16-1.36.32-2.03.5-.19.05-.39.1-.58.16-.51.13-1.02.27-1.52.42-1.01.29-2.02.6-3.02.94-.07.02-.15.04-.22.07-.25.07-.5.15-.75.24-.13.05-.26.09-.4.14-.13.04-.26.09-.4.14-.02,0-.03,0-.05.02-.6.2-1.2.42-1.79.64-.7.26-1.4.53-2.09.81-.68.27-1.35.55-2.02.84-.03.01-.05.02-.08.03-.45.19-.9.39-1.35.59-.1.05-.2.09-.3.14-.07.03-.15.06-.22.1-.54.24-1.08.49-1.61.75-.41.2-.82.4-1.23.61-.4.19-.79.39-1.19.6-.57.29-1.14.59-1.7.9-.65.35-1.3.71-1.93,1.08-.59.33-1.17.68-1.75,1.03-1.33.8-2.64,1.64-3.92,2.51-.4.27-.8.54-1.19.82-.41.28-.81.57-1.21.86-.75.54-1.49,1.09-2.22,1.65-.09.07-.18.14-.27.21-.31.24-.62.48-.92.72-1.6,1.27-3.15,2.59-4.66,3.96-.55.5-1.09,1-1.62,1.51-.45.43-.9.87-1.34,1.31-.15.15-.3.29-.45.44-.45.46-.9.92-1.35,1.39-.37.38-.73.77-1.08,1.16-.11.11-.21.23-.31.34-.21.23-.43.47-.63.7-.5.54-.98,1.09-1.45,1.65-.22.26-.45.52-.67.79-.15.19-.31.37-.46.56-.29.35-.57.69-.85,1.05-.18.22-.35.45-.53.68-.55.7-1.09,1.41-1.62,2.13-.07.09-.13.18-.2.28-.51.69-1.01,1.4-1.5,2.11-.01.01-.01.02-.02.03-.49.71-.97,1.43-1.44,2.16-.07.1-.13.21-.2.31-.47.74-.94,1.49-1.39,2.25-.01,0-.01.01-.01.01-.01.01-.02.03-.02.04-.35.57-.68,1.13-1,1.7-.28.49-.56.98-.83,1.48-.24.45-.48.9-.73,1.35-.03.07-.07.14-.1.21-.25.48-.5.96-.74,1.44-.26.5-.5,1.01-.75,1.52-.31.64-.61,1.29-.9,1.94-1.22,2.72-2.32,5.51-3.28,8.36-.24.71-.47,1.43-.69,2.15-.09.29-.18.58-.26.88-.13.4-.25.81-.36,1.22-.21.72-.4,1.44-.59,2.16-.19.74-.37,1.48-.54,2.23-.17.72-.33,1.45-.48,2.18-.01.03-.01.06-.02.09-.11.57-.22,1.13-.33,1.7-.04.21-.07.41-.11.62-.09.5-.18,1.01-.25,1.51-.07.42-.14.85-.2,1.28-.14.97-.27,1.94-.38,2.93-.05.37-.09.74-.12,1.11-.06.56-.11,1.12-.15,1.68-.05.64-.1,1.28-.14,1.93-.04.5-.07,1.01-.09,1.52-.02.5-.04.99-.05,1.48-.04.94-.05,1.89-.05,2.84,0,2.54.1,5.06.31,7.55.08,1.09.19,2.17.32,3.25.03.32.07.65.11.97.2,1.52.43,3.03.69,4.53.03.16.06.31.09.46.11.63.23,1.25.36,1.87.46,2.27,1.01,4.51,1.64,6.72.4,1.41.84,2.81,1.3,4.19.22.66.45,1.32.69,1.97.06.18.13.35.19.52.23.63.47,1.25.71,1.86.53,1.35,1.1,2.7,1.7,4.02.3.68.62,1.36.94,2.03.34.72.7,1.43,1.06,2.14.65,1.28,1.34,2.54,2.05,3.78.37.64.74,1.28,1.13,1.91.37.63.76,1.25,1.16,1.87,1.99,3.13,4.16,6.12,6.51,8.98.31.38.62.75.95,1.13.81.96,1.63,1.9,2.48,2.81.37.41.75.81,1.13,1.21,4.71,4.94,9.96,9.36,15.66,13.16.47.32.95.64,1.43.94,1.77,1.14,3.59,2.21,5.44,3.23.47.26.94.51,1.42.76.84.44,1.69.87,2.54,1.29.67.32,1.34.64,2.02.95s1.36.61,2.05.91c.51.22,1.03.43,1.55.64.87.36,1.74.7,2.62,1.02.7.27,1.41.52,2.12.76.72.25,1.43.48,2.15.71.52.17,1.05.33,1.58.48.92.28,1.85.54,2.78.78.67.18,1.33.34,2,.5.1.03.19.05.28.07.68.16,1.35.31,2.03.45.06.01.11.03.17.04,2.23.46,4.5.85,6.79,1.16.76.1,1.53.19,2.31.27.77.08,1.55.16,2.32.22,1.54.13,3.09.21,4.65.27h.08c.78.02,1.56.04,2.35.04.19.01.37.01.56.01.74,0,1.48-.01,2.22-.03.57-.01,1.15-.03,1.72-.05.26-.01.51-.02.76-.04.38-.02.75-.04,1.13-.06.28-.02.57-.04.85-.06.85-.06,1.7-.13,2.54-.22.49-.04.98-.1,1.47-.15.14-.02.28-.03.42-.05.6-.07,1.2-.15,1.8-.24.11-.01.21-.02.32-.04.67-.1,1.33-.2,1.99-.31.68-.11,1.35-.23,2.03-.36.59-.11,1.19-.23,1.78-.36.29-.06.58-.12.86-.18.47-.1.94-.21,1.41-.32.46-.11.91-.22,1.37-.34.37-.09.74-.18,1.11-.28.68-.18,1.36-.37,2.03-.57.47-.13.95-.27,1.42-.42.38-.12.76-.23,1.14-.36,1.04-.33,2.08-.69,3.1-1.06.66-.24,1.31-.48,1.96-.73.73-.29,1.46-.58,2.18-.88.55-.23,1.09-.46,1.63-.7.13-.06.26-.11.39-.17.44-.2.87-.39,1.3-.6.23-.1.46-.21.69-.32.54-.25,1.07-.51,1.6-.78.95-.48,1.9-.97,2.83-1.48.44-.24.88-.48,1.32-.73.23-.13.45-.25.67-.38.49-.28.98-.57,1.46-.86.2-.12.39-.24.59-.36.64-.39,1.27-.78,1.9-1.19.35-.22.71-.45,1.05-.69.05-.03.09-.06.14-.09.25-.17.51-.34.76-.51.57-.38,1.13-.78,1.69-1.18.68-.49,1.36-.98,2.03-1.49.56-.42,1.12-.85,1.67-1.29t.02-.02c.94-.74,1.86-1.5,2.77-2.28.52-.45,1.04-.9,1.55-1.36.67-.59,1.32-1.2,1.97-1.82.35-.33.69-.66,1.04-1,.52-.51,1.04-1.03,1.54-1.55.51-.52,1.01-1.04,1.5-1.58.42-.44.82-.89,1.22-1.34.39-.42.76-.85,1.14-1.29.43-.5.85-1.01,1.27-1.52.25-.29.49-.58.73-.89.01-.02.03-.05.05-.07.26-.32.52-.64.77-.97.34-.43.67-.86.99-1.29.28-.37.55-.74.82-1.11.37-.51.73-1.01,1.09-1.53.13-.18.25-.36.38-.54.35-.5.69-1.01,1.02-1.52.02-.03.04-.06.06-.09.41-.61.8-1.23,1.18-1.85.4-.63.78-1.26,1.16-1.9.18-.29.35-.59.52-.89.18-.3.34-.6.51-.9.34-.6.67-1.2.99-1.81.27-.49.52-.98.77-1.48.19-.36.37-.71.54-1.07.27-.54.53-1.09.79-1.64.28-.59.56-1.2.82-1.8.05-.1.1-.21.14-.32.22-.49.43-.98.63-1.48.09-.22.18-.43.27-.65.13-.32.26-.64.39-.97.11-.26.21-.51.3-.77.1-.26.2-.52.3-.78.3-.79.59-1.59.86-2.4.2-.58.39-1.16.58-1.74.03-.1.07-.2.09-.29.18-.57.35-1.13.52-1.7.02-.06.04-.13.06-.19.01-.02.02-.04.02-.06.19-.66.38-1.32.55-1.98.01-.01.01-.03.01-.04.11-.41.22-.82.32-1.23.02-.06.03-.12.05-.18.1-.4.2-.8.29-1.2.02-.06.04-.12.05-.19.14-.58.27-1.16.39-1.75.14-.62.26-1.23.38-1.86.06-.28.11-.57.16-.86.06-.29.1-.58.15-.86.02-.08.03-.15.04-.22.12-.68.23-1.36.33-2.05.05-.35.1-.69.15-1.04.05-.35.09-.7.13-1.05.01-.01.01-.03.01-.04.03-.24.06-.48.09-.72h-32.25Zm-59.55,80.94c-.19,0-.37,0-.56-.01-50.39-.29-91.15-41.24-91.15-91.7s40.67-91.31,90.99-91.7v30.49c-33.48.38-60.5,27.64-60.5,61.21s27.11,60.93,60.66,61.22c.19,0,.37,0,.56,0,29.89,0,54.77-21.42,60.15-49.74h30.84c-5.65,45.23-44.24,80.22-90.99,80.22Z"/>
    <path class="cls-2" d="m153,91.98c-21.72,0-39.32,17.6-39.32,39.31s17.3,39.02,38.76,39.31c.19.01.37.01.56.01,21.71,0,39.31-17.6,39.31-39.32s-17.6-39.31-39.31-39.31Zm8.08,55.86h-6.48v-31.32h6.48v31.32Zm-10.8,0h-6.48v-31.32h6.48v31.32Z"/>
    <path class="cls-1" d="m153,91.98c-21.72,0-39.32,17.6-39.32,39.31s17.3,39.02,38.76,39.31c.19.01.37.01.56.01,21.71,0,39.31-17.6,39.31-39.32s-17.6-39.31-39.31-39.31Zm0,77.92c-.19,0-.37,0-.56,0-21.06-.29-38.05-17.47-38.05-38.6s17.29-38.6,38.61-38.6,38.6,17.28,38.6,38.6-17.29,38.61-38.6,38.61Z"/>
    <line class="cls-4" x1="33" y1="131.44" y2="131.44"/>
    <line class="cls-4" x1="152.44" y1="314.55" x2="152.44" y2="166.55"/>
  </g>
</svg>