<?xml version="1.0" encoding="utf-8"?>
<!-- Generator: Adobe Illustrator 27.9.0, SVG Export Plug-In . SVG Version: 6.00 Build 0)  -->
<svg version="1.1" id="Layer_2_00000119837112077853063350000001782320971173504174_"
	 xmlns="http://www.w3.org/2000/svg" xmlns:xlink="http://www.w3.org/1999/xlink" x="0px" y="0px" viewBox="0 0 425.9 237.7"
	 style="enable-background:new 0 0 425.9 237.7;" xml:space="preserve">
<style type="text/css">
	.st0{fill:#FBB03B;}
	.st1{fill:#FBB03B;stroke:#D4AB70;stroke-linecap:round;stroke-miterlimit:10;}
	.st2{fill:#F7F7F7;}
	.st3{fill:none;stroke:#D4AB70;stroke-linecap:round;stroke-miterlimit:10;}
</style>
<g id="_لوگو">
	<g id="_قاب">
		<g>
			<path class="st0" d="M406.5,175.1l0,0.3c-0.3,0.1-0.5,0.2-0.8,0.3l0,0c-1.2,0.8-2.3,2.3-2.7,2.9c-4.5,7.8-7.5,9.9-9.2,10.3
				c-0.3,0.1-0.5,0.1-0.7,0.1c-0.4,10.4-9.8,11.7-12,11.9c-0.4,5.1-2,8.8-4.6,11c-2.3,1.9-4.7,2.1-5.6,2c-4,7.3-9.7,8.9-13.9,8.9
				c-3.2,0-5.5-0.9-5.6-0.9c-3.1-0.6-6.6-3.4-8.5-6.8c-1.2-2.2-2.4-5.7-0.8-9.9c1-2.7,1.1-4.7,0.2-5.9c-0.9-1.4-2.7-1.4-2.8-1.4
				l-2.7,0l2.5-0.9c2.6-1,4.6-0.9,6,0.1c1.5,1.2,1.8,3.4,1.7,4.6c3.2-1.1,5.3-1,6.4,0.2c1.8,2.1-0.4,6.5-0.5,6.7l-1,1.9v-2.1
				c0-1.2-0.3-2.1-1-2.5c-1-0.7-2.7-0.2-3.2-0.1c-1.9,2.7-2.4,5.2-1.7,7.4c1.3,4,6.5,5.7,6.5,5.8c11.4,2.8,15.2-7.3,15.4-7.7
				l0.1-0.4l0.4,0c2.5,0.2,4.5-0.4,5.9-1.9c3.5-3.7,2.5-11.5,2.5-11.6l-0.1-0.7l0.7,0.2c3.6,0.8,6.3,0.4,8.3-1.2
				c3.5-3,3.1-9.2,3.1-9.2l0-0.7l0.7,0.2c2.1,0.7,6.6-3.8,8.3-5.7c0.1-2.7,3-4.6,4-5.1c-1-0.6-3.8-2.4-4-5.1
				c-1.7-1.9-6.2-6.4-8.3-5.7l-0.7,0.2l0-0.8c0-0.1,0.4-6.2-3.1-9.2c-1.9-1.6-4.7-2.1-8.3-1.2l-0.7,0.2l0.1-0.7
				c0-0.1,1-7.9-2.5-11.6c-1.4-1.5-3.4-2.1-5.9-1.9l-0.4,0L368,139c-0.2-0.4-4-10.5-15.4-7.7c0,0-5.2,1.8-6.5,5.8
				c-0.7,2.2-0.1,4.7,1.7,7.4c0.5,0.2,2.2,0.6,3.2-0.1c0.6-0.4,1-1.3,1-2.5v-2.1l1,1.9c0.1,0.2,2.3,4.6,0.5,6.7
				c-1.1,1.2-3.2,1.3-6.4,0.2c0,1.2-0.2,3.4-1.7,4.6c-1.4,1.1-3.4,1.1-6,0.1l-2.5-0.9l2.7,0c0,0,1.8,0,2.8-1.4
				c0.9-1.2,0.8-3.2-0.2-5.9c-1.6-4.2-0.4-7.7,0.8-9.9c1.9-3.4,5.4-6.2,8.6-6.8c0,0,12.2-4.9,19.4,8c0.9,0,3.3,0.1,5.6,2
				c2.6,2.2,4.2,5.9,4.6,11c2.2,0.2,11.7,1.4,12,11.9c0.2,0,0.4,0,0.7,0.1c1.7,0.4,4.7,2.5,9.2,10.3c0,0,1.2,2,2.7,2.9
				c0.2,0.1,0.5,0.3,0.8,0.3L406.5,175.1L406.5,175.1L406.5,175.1z"/>
			<g>
				<path class="st0" d="M392.3,174.9c0,0-0.2-0.1-0.5-0.2l0,0c-0.2,0.1-0.6,0.3-1.1,0.6c0.5,0.3,0.9,0.5,1,0.6
					c0.3-0.2,0.5-0.2,0.5-0.2c0.1-0.1,0.2-0.2,0.3-0.3l0,0C392.5,175.1,392.4,174.9,392.3,174.9L392.3,174.9L392.3,174.9z"/>
				<path class="st0" d="M387.2,170.1c-0.2-0.4-0.5-0.9-0.7-1.4c-0.7-1.8-1.7-2.9-3.1-3.4c-1.1-0.4-2.2-0.3-2.9-0.1
					c-0.3-3.7-2.9-4.6-4-4.8c-0.1-1.7-0.6-2.9-1.6-3.4c-0.9-0.5-1.9-0.4-2.7-0.1c1.1-2.3,0.3-3.2,0.2-3.3c-1.1-1.1-2.2-1.6-3.3-1.5
					c-0.8,0.1-1.5,0.5-2,0.9c-1.2-3.4-2.9-3.6-3.1-3.6c-0.1,0-0.1,0-0.2,0c-0.8,0.2-1.3,0.7-1.6,1.4c-0.5,1.1-0.4,2.4-0.2,3.5
					c-0.3-0.1-0.6-0.2-0.9-0.3c-1.8-0.2-3.4,1.4-3.5,1.5c-0.1,0.1-0.2,0.2-0.1,0.4c0,0.1,0.1,0.3,0.2,0.4c1.2,0.8,1.8,1.7,1.8,2.9
					c0,0.5-0.1,0.9-0.2,1.4c-0.3,0.1-0.6,0.2-1,0.4c-2,1-3.3,3-3.9,5.8c0,0.2,0,0.4,0.2,0.5c0.2,0.1,0.4,0.1,0.6,0
					c0.2-0.1,3.6-2.8,4.8-5.9c3.1-0.8,6.7,0.5,7.5,0.9c0,0.3-0.1,0.5-0.1,0.5c0,0,0,0.1,0,0.1c0,2-5.6,2.5-7.6,2.5
					c-2.6,0.4-4.3,1.3-5.1,2.6c0,0,0,0.1-0.1,0.1c-0.9-2.8-2.1-9.2,2.3-17.3c1.2-0.8,1.8-2.3,1.9-3.2c1-3.8,0.8-6.9-0.8-9.2
					c-1.4-2-3.4-2.9-4.7-3.2c0.5-0.3,1.1-0.6,2-0.6h0.1c1.8,0,3.9,1.3,6,3.8c0.1,0.2,0.4,0.2,0.6,0.1c0.4-0.2,1.6-0.8,2.2-0.3
					c0.4,0.3,0.9,1.3,0.1,4.8c0,0.2,0,0.3,0.1,0.4s0.3,0.2,0.4,0.2c0,0,3.8-0.4,6.3,1.8c1,0.9,1.7,2.2,2,3.9c-0.9-1-2.3-2.3-4.3-2.9
					c-2.2-0.7-4.5-0.4-7.1,0.7c0.6-1.9,1.2-5.8-2.1-9.8c-0.2-0.2-0.5-0.2-0.7-0.1c-0.2,0.2-0.2,0.5-0.1,0.7c4.2,5.1,1.6,9.8,1.5,10
					c-0.1,0.2-0.1,0.4,0.1,0.6c0.2,0.2,0.4,0.2,0.6,0.1c2.7-1.5,5.3-1.9,7.5-1.3c3.2,1,4.8,4,4.8,4c0.1,0.2,0.3,0.3,0.6,0.3
					c0.2-0.1,0.4-0.3,0.4-0.5c0-2.8-0.8-5-2.5-6.4c-2.1-1.9-5-2.1-6.4-2.1c0.6-2.7,0.4-4.4-0.6-5.1c-1-0.7-2.3-0.2-2.9,0.1
					c-2.3-2.6-4.5-3.9-6.6-3.8c-2.2,0.1-3.4,1.6-3.4,1.6c-0.1,0.1-0.1,0.3-0.1,0.5c0.1,0.2,0.2,0.3,0.4,0.3c0,0,3.2,0.4,5,3
					c1.4,2,1.6,4.8,0.6,8.4c0,0.1-0.3,1.8-1.5,2.6c-0.4,0.3-0.9,0.4-1.5,0.4c-0.1,0-0.2,0-0.2,0.1c-0.1,0-6.3,3.2-5.3,10.4l-0.1,1.2
					c-0.8-0.5-1.5-0.6-1.8-0.3c-0.5,0.5-0.3,1.4,1,3.4c1.6,2.6,3.4,4.2,5.1,5.3c-0.7-0.1-1.5-0.1-2.1,0.2c-0.9,0.4-1.6,1.2-1.9,2.4
					c-1-0.6-3.2-1.5-4.9-0.7c-0.2,0.1-0.4,0.4-0.2,0.7c0.1,0.2,0.4,0.4,0.7,0.2c1.7-0.9,4.5,0.9,4.5,1c0.1,0.1,0.2,0.1,0.3,0.1
					c0.1,0,0.1,0,0.2,0c0.2-0.1,0.3-0.2,0.3-0.4c0.2-1.2,0.7-2,1.5-2.4c1.8-0.7,4.7,1,5.7,1.7c0.2,0.1,0.5,0.1,0.7-0.1
					c0.2-0.2,0.1-0.5,0-0.7c-0.7-0.7-1.6-1.2-2.6-1.9c-0.2-0.1-0.3-0.2-0.5-0.3c0.2-0.1,0.3-0.4,0.2-0.6c0,0-0.2-0.6,0.2-1.3
					c0.4-0.7,1.5-1.6,4.3-2.1c0.8,0,6.8-0.1,8.2-2.5c-0.1-0.4-0.1-0.8,0-1.2c0.1-0.5,0.3-0.9,0.5-1.3c0.2-1.5,0.1-3.7-1.1-5
					c-0.9-0.9-2.1-1.2-3.8-1c-0.1,0-0.2,0.1-0.3,0.2c0,0,0,0.1-0.1,0.2c0,0,0-0.1,0-0.1c0,0-1.1-2.8-0.4-4.4
					c0.2-0.4,0.5-0.7,0.9-0.9c0.3,0.1,1.6,0.6,2.4,3.6c0,0.2,0.2,0.3,0.4,0.4c0.2,0,0.4-0.1,0.5-0.2c0,0,0.7-1,1.9-1.1
					c0.8-0.1,1.6,0.3,2.4,1.1c0,0,0.6,0.9-1,3.4c-0.1,0.2-0.1,0.4,0,0.6c0.2,0.2,0.4,0.2,0.6,0.1c0.5-0.3,2.2-1,3.2-0.5
					c0.7,0.4,1.1,1.4,1.1,3c0,0.3,0.2,0.5,0.5,0.5c0.1,0,3.5,0.1,3.5,4.5c0,0.2,0.1,0.3,0.2,0.4c0.1,0.1,0.3,0.1,0.5,0
					c0,0,1.4-0.7,2.8-0.1c1.1,0.4,1.9,1.4,2.5,2.9c1.4,3.4,3.7,5.3,5.1,6.1l0,0c0.5-0.3,0.8-0.5,1-0.6
					C390.8,174.1,388.7,172.8,387.2,170.1L387.2,170.1z M356,165.4c0.1-0.5,0.5-2.1,1.9-3c0.3-0.2,0.6-0.4,1-0.5c0,0.2,0,0.3,0,0.5
					C358.8,164.1,356.3,165.2,356,165.4z M349.5,164.6c-0.7-1.1-0.9-1.7-1-2c0.3,0.1,0.8,0.4,1.2,0.8c0.1,0.1,0.4,0.1,0.5,0.1
					c0.2-0.1,0.3-0.2,0.3-0.4l0.1-2.2c-0.9-6.1,3.9-9,4.6-9.4c0.2,0,0.4,0,0.5-0.1c-4.8,9.7-2.1,16.7-1.3,18.4
					C352.8,168.6,351,167.1,349.5,164.6L349.5,164.6z M364.4,156.3c1.2-0.1,2,0.1,2.6,0.7c0.9,1,1,2.8,0.8,4.2
					c-2.5-1.3-3.3-2.6-3.5-3.4C364.1,157.1,364.3,156.6,364.4,156.3L364.4,156.3z M363.3,156.3C363.3,156.3,363.3,156.3,363.3,156.3
					c-0.1,0.4-0.1,1,0.1,1.7c0.2,0.8,0.7,1.6,1.6,2.4c-0.8-0.1-1.7-0.3-2.6-0.3c-0.6,0-1.2,0-1.8,0.2c0.1-0.4,0.1-0.8,0.1-1.2
					c0-1.3-0.6-2.4-1.8-3.3c0.5-0.4,1.4-0.9,2.2-0.8c0.6,0.1,1.1,0.4,1.6,1.1C362.8,156.4,363.1,156.4,363.3,156.3L363.3,156.3z"/>
				<path class="st0" d="M358.2,175.2c-0.2,0-0.3-0.1-0.4-0.2c-0.1-0.2-0.1-0.5,0.2-0.7c0,0,2.6-1.7,2.6-4.4c0-0.2,0.1-0.4,0.4-0.5
					c0.2-0.1,0.4,0,0.6,0.2c0.5,0.8,2.2,2.8,3.6,2.8c0.3,0,0.5,0.2,0.5,0.5s-0.2,0.5-0.5,0.5c-1.5,0-2.8-1.3-3.6-2.2
					c-0.6,2.5-2.8,3.9-2.9,3.9C358.4,175.1,358.3,175.2,358.2,175.2L358.2,175.2L358.2,175.2z"/>
				<path class="st0" d="M386.8,175.2c0,0.1-0.1,0.1-0.1,0.2c0,0-0.2,0.2-0.5,0.4c-0.1,0-0.2-0.1-0.2-0.1c0,0-0.2-0.2-0.5-0.5
					c0.4-0.3,0.5-0.5,0.5-0.5c0.1-0.1,0.2-0.1,0.3-0.1c0.3,0.2,0.4,0.4,0.5,0.4C386.8,175.1,386.8,175.1,386.8,175.2L386.8,175.2z"
					/>
				<path class="st0" d="M367.2,169.5c-0.5,0.4-0.9,0.6-1.2,0.8L367.2,169.5z"/>
			</g>
			<g>
				<path class="st0" d="M392.3,174.9c0,0-0.2-0.1-0.5-0.2l0,0c-0.2,0.1-0.6,0.3-1.1,0.6c0.5,0.3,0.9,0.5,1,0.6
					c0.3-0.2,0.5-0.2,0.5-0.2c0.1-0.1,0.2-0.2,0.3-0.3l0,0C392.5,175.1,392.4,174.9,392.3,174.9L392.3,174.9L392.3,174.9z"/>
				<path class="st0" d="M390.7,175.2L390.7,175.2c-1.4,0.9-3.7,2.7-5.1,6.2c-0.6,1.5-1.4,2.5-2.5,2.9c-1.4,0.5-2.8-0.1-2.8-0.1
					c-0.2-0.1-0.3-0.1-0.5,0c-0.1,0.1-0.2,0.3-0.2,0.4c0,4.4-3.4,4.5-3.5,4.5c-0.3,0-0.5,0.2-0.5,0.5c0,1.6-0.4,2.6-1.1,3
					c-1,0.6-2.6-0.1-3.2-0.5c-0.2-0.1-0.5-0.1-0.6,0.1c-0.2,0.2-0.2,0.4,0,0.6c1,1.4,1.2,2.3,1.2,2.8c0,0.4-0.1,0.5-0.1,0.5
					c-0.8,0.9-1.7,1.2-2.5,1.2c-1.1-0.1-1.9-1.1-1.9-1.1c-0.1-0.2-0.3-0.2-0.5-0.2c-0.2,0-0.4,0.2-0.4,0.4c-0.8,3-2.1,3.6-2.4,3.6
					c-0.4-0.2-0.7-0.5-0.9-0.9c-0.8-1.6,0.4-4.4,0.4-4.4c0,0,0-0.1,0-0.1c0,0.1,0.1,0.2,0.1,0.2c0.1,0.1,0.2,0.2,0.3,0.2
					c1.6,0.3,2.9-0.1,3.8-1c1.2-1.3,1.2-3.5,1.1-5c-0.3-0.4-0.5-0.8-0.5-1.3c-0.1-0.4-0.1-0.8,0-1.2l0,0c-1.4-2.4-7.4-2.5-8.1-2.5
					c-2.8-0.5-3.9-1.4-4.4-2.1c-0.4-0.7-0.3-1.3-0.2-1.3c0.1-0.2,0-0.5-0.2-0.6c0.2-0.1,0.3-0.2,0.5-0.3c1-0.6,1.9-1.2,2.6-1.9
					c0.2-0.2,0.2-0.5,0-0.7c-0.2-0.2-0.5-0.2-0.7-0.1c-1,0.7-4,2.4-5.7,1.7c-0.8-0.3-1.3-1.1-1.5-2.4c0-0.2-0.1-0.3-0.3-0.4
					c-0.1-0.1-0.3-0.1-0.5,0c0,0-2.8,1.8-4.5,1c-0.2-0.1-0.5,0-0.7,0.2c-0.1,0.2,0,0.6,0.2,0.7c1.7,0.8,3.8-0.1,4.9-0.7
					c0.3,1.2,1,2,1.9,2.4c0.6,0.3,1.4,0.3,2.1,0.2c-1.7,1.1-3.5,2.7-5.1,5.3c-1.2,2-1.5,3-1,3.4c0.4,0.3,1,0.2,1.8-0.3l0.1,1.1
					c-1,7.3,5.2,10.5,5.3,10.5c0.1,0,0.1,0.1,0.2,0.1c0.6,0,1.1,0.2,1.5,0.4c1.2,0.8,1.5,2.6,1.5,2.7c1,3.5,0.8,6.4-0.6,8.4
					c-1.8,2.6-4.9,3-5,3c-0.2,0-0.3,0.1-0.4,0.3c-0.1,0.2,0,0.4,0.1,0.5c0,0.1,1.2,1.6,3.4,1.6h0.1c2.1,0,4.2-1.3,6.5-3.8
					c0.6,0.3,2,0.8,2.9,0.1c1-0.7,1.2-2.4,0.6-5.1c1.3,0,4.2-0.2,6.4-2.1c1.6-1.5,2.5-3.6,2.5-6.4c0-0.2-0.2-0.4-0.4-0.5
					c-0.2-0.1-0.5,0.1-0.6,0.3c0,0-1.6,3.1-4.8,4.1c-2.2,0.7-4.8,0.3-7.5-1.3c-0.2-0.1-0.4-0.1-0.6,0.1s-0.2,0.4-0.1,0.6
					c0.1,0.2,2.8,4.9-1.5,10c-0.2,0.2-0.1,0.5,0.1,0.7c0.2,0.2,0.5,0.1,0.7-0.1c3.3-4,2.7-7.9,2.1-9.8c2.5,1.1,4.9,1.4,7.1,0.7
					c2-0.6,3.4-1.9,4.3-2.9c-0.3,1.6-1,2.9-2,3.9c-2.5,2.2-6.3,1.8-6.3,1.8c-0.2,0-0.3,0.1-0.4,0.2s-0.1,0.3-0.1,0.4
					c0.9,3.4,0.3,4.4-0.1,4.8c-0.6,0.4-1.8-0.1-2.2-0.3c-0.2-0.1-0.5-0.1-0.6,0.1c-2.1,2.5-4.2,3.8-6,3.8h-0.1c-0.9,0-1.6-0.3-2-0.6
					c1.2-0.3,3.3-1.2,4.7-3.2c1.5-2.3,1.8-5.4,0.8-9.1c-0.1-0.9-0.7-2.4-1.9-3.3c-4.4-8.1-3.2-14.5-2.3-17.3c0,0,0,0.1,0.1,0.1
					c0.8,1.3,2.5,2.1,5.1,2.6c1.9,0,7.5,0.5,7.5,2.5c0,0,0,0.1,0,0.1c0,0,0,0.2,0.1,0.5c-0.8,0.3-4.4,1.7-7.5,0.9
					c-1.2-3.1-4.6-5.8-4.8-5.9c-0.2-0.1-0.4-0.1-0.6,0s-0.3,0.3-0.2,0.5c0.6,2.8,1.9,4.8,3.9,5.8c0.3,0.1,0.6,0.3,1,0.4
					c0.1,0.5,0.2,0.9,0.2,1.4c0,1.1-0.6,2.1-1.8,2.9c-0.1,0.1-0.2,0.2-0.2,0.4c0,0.1,0,0.3,0.1,0.4c0.1,0.1,1.7,1.6,3.5,1.5
					c0.3,0,0.6-0.1,0.9-0.3c-0.2,1.1-0.3,2.4,0.2,3.5c0.3,0.7,0.9,1.2,1.6,1.4c0,0,0.1,0,0.2,0h0c0.2,0,2-0.2,3.1-3.6
					c0.5,0.4,1.1,0.8,2,0.9c1.1,0.1,2.2-0.4,3.3-1.5c0.1-0.1,0.9-1-0.2-3.3c0.8,0.2,1.9,0.4,2.7-0.1c1-0.6,1.5-1.7,1.6-3.4
					c1.1-0.2,3.7-1,4-4.8c0.7,0.2,1.8,0.4,2.9-0.1c1.3-0.5,2.4-1.6,3.1-3.4c0.2-0.5,0.4-0.9,0.6-1.3c1.5-2.8,3.6-4.1,4.6-4.6
					C391.6,175.7,391.2,175.5,390.7,175.2L390.7,175.2z M355.8,199.1L355.8,199.1c-0.2,0-0.4-0.1-0.6-0.1c-0.8-0.4-5.5-3.3-4.6-9.5
					l-0.1-2.1c0-0.2-0.1-0.4-0.3-0.4c-0.2-0.1-0.4-0.1-0.5,0.1c-0.4,0.3-0.9,0.6-1.2,0.8c0.1-0.3,0.4-0.9,1-2c1.5-2.5,3.3-4,4.9-5.1
					C353.6,182.4,350.9,189.4,355.8,199.1L355.8,199.1z M356,185c1.5,0.3,2.6,1.2,2.9,2.3c0,0.2,0.1,0.6,0,1.1c-0.4,0-0.7-0.1-1-0.1
					C356.8,187.9,356.1,186.6,356,185z M367.8,189.2c0.1,1.3,0.1,3.1-0.8,4.1c-0.6,0.6-1.4,0.9-2.6,0.7c-0.1-0.3-0.2-0.8,0-1.4
					C364.6,191.8,365.4,190.6,367.8,189.2L367.8,189.2z M362.6,194.3c-0.5,0.7-1,1-1.6,1.1c-0.8,0.1-1.7-0.4-2.2-0.8
					c1.1-0.9,1.7-2,1.8-3.3c0-0.4,0-0.8-0.1-1.2c1.5,0.3,3.1,0.2,4.4-0.1c-0.8,0.8-1.3,1.6-1.6,2.4c-0.2,0.7-0.1,1.3,0,1.7
					c0,0,0,0-0.1,0C363.1,194,362.8,194.1,362.6,194.3L362.6,194.3z"/>
				<path class="st0" d="M361.1,181.1c0,0-0.1,0-0.1,0c-0.2-0.1-0.4-0.3-0.4-0.5c0-2.7-2.6-4.4-2.6-4.4c-0.2-0.1-0.3-0.5-0.2-0.7
					s0.5-0.3,0.7-0.2c0.1,0.1,2.3,1.5,2.9,3.9c0.8-0.9,2.2-2.2,3.6-2.2c0.3,0,0.5,0.2,0.5,0.5s-0.2,0.5-0.5,0.5
					c-1.4,0-3.1,2-3.6,2.8C361.4,181,361.2,181,361.1,181.1L361.1,181.1L361.1,181.1z"/>
				<path class="st0" d="M386,175.7L386,175.7c0,0-0.2-0.2-0.5-0.5c-1.3,1.1-4.5,3.3-8.2,1.9c-0.2-0.1-0.5,0-0.6,0.3
					c-0.1,0.2,0,0.5,0.2,0.7c1.1,0.5,2.3,1.4,2.3,1.9c0,0.1-0.1,0.2-0.3,0.2c-0.1,0-0.1,0.1-0.2,0.1c0,0-0.4,0.4-1.3,0.5
					c-1.1,0.1-3.4-0.3-7.3-3.3c1.9,0.4,4.2,0.4,6.4-1.5c0.2-0.1,0.3-0.3,0.5-0.4c0.1-0.1,0.1-0.1,0.1-0.2c0-0.1-0.1-0.1-0.1-0.2
					c-0.2-0.2-0.3-0.3-0.5-0.4c-2.2-1.9-4.5-2-6.4-1.5c4-3,6.2-3.4,7.3-3.3c0.9,0.1,1.2,0.4,1.3,0.5c0,0.1,0.1,0.1,0.2,0.1
					c0.2,0.1,0.3,0.2,0.3,0.2c0,0.4-1.2,1.3-2.3,1.9c-0.2,0.1-0.3,0.4-0.2,0.7c0.1,0.2,0.4,0.4,0.6,0.2c3.6-1.4,6.9,0.8,8.2,1.9
					c0.4-0.3,0.5-0.5,0.5-0.5c0.1-0.1,0.2-0.1,0.3-0.1c-1-0.9-3.6-2.9-6.8-2.7c0.4-0.4,0.7-0.8,0.7-1.3c0-0.3-0.1-0.8-0.7-1.1
					c-0.2-0.2-0.8-0.6-1.8-0.8c-1.1-0.1-2.8,0.2-5.3,1.6h0c-1-0.9-1.9-1.3-2.8-1.3c2-1.7,4.1-4.3,4.1-7.2c0-0.1,0-1.5-1-2
					c-0.7-0.4-1.6-0.2-2.8,0.6c-0.4,0.3-0.7,0.6-1,0.9c-0.3,0.4-0.5,0.8-0.5,1.3c-0.1,0.4-0.1,0.8,0,1.2c0.2,1.7,1.3,3.2,1.4,3.3
					c0,0.1,0.1,0.1,0.1,0.1c-0.9,0.9-1.8,1.6-2.5,2.2c0,0,0,0,0,0h0c-0.1,0.1-0.1,0.1-0.2,0.1c0,0,0,0,0,0c0,0,0,0,0,0h0
					c0,0,0,0-0.1,0.1c-0.4,0.3-0.6,0.4-0.8,0.6c-0.1,0.1-0.2,0.1-0.2,0.1c0,0-0.1,0.1-0.1,0.1s-0.1,0.1-0.1,0.1c0,0,0,0.1,0,0.1v0.1
					c0,0.1,0,0.1,0,0.2v0.1c0,0,0,0.1,0,0.1c0,0,0,0.1,0.1,0.1c0,0.1,0.1,0.1,0.2,0.1c0.1,0,0.1,0,0.2,0c0,0,0.1,0,0.1,0
					c0,0,0,0,0,0l0.2-0.1c0.1-0.1,0.6-0.6,1.4-0.9h0c0.9-0.4,2.2-0.5,3.6,0.6c-1.4,0.9-3,2.2-4.9,3.9c-0.1,0.1-0.2,0.3-0.1,0.4
					c0-0.1,0-0.2,0.1-0.2c0.2-0.2,0.5-0.2,0.7-0.1c0,0,0.2,0.1,0.5,0.3c1.2-0.8,4.8-2.7,8.1,0c-3.3,2.7-6.9,0.8-8.1,0
					c-0.3,0.2-0.4,0.3-0.5,0.3c-0.2,0.2-0.5,0.1-0.7-0.1c-0.1-0.1-0.1-0.2-0.1-0.3c0,0.2,0,0.3,0.1,0.4c1.9,1.7,3.5,2.9,4.9,3.9
					c-1.3,1.1-2.6,1-3.6,0.6c0,0,0,0,0,0c-0.8-0.3-1.3-0.8-1.4-0.9c0,0,0,0-0.1-0.1c0,0,0,0,0,0c0,0,0,0,0,0c-0.1,0-0.1,0-0.2,0
					s-0.1,0-0.2,0c0,0,0,0,0,0c-0.1,0-0.1,0.1-0.1,0.1c0,0-0.1,0.1-0.1,0.1c0,0,0,0.1,0,0.1v0.1c0,0.1,0,0.1,0,0.2v0.1
					c0,0.1,0.1,0.1,0.1,0.2c0,0,0.1,0.1,0.1,0.1c0,0,0.6,0.4,1.5,1c0.7,0.5,1.7,1.3,2.5,2.2c0,0-0.1,0.1-0.1,0.1
					c0,0.1-1.2,1.6-1.4,3.2l0,0c-0.1,0.4-0.1,0.8,0,1.2c0.1,0.5,0.3,0.9,0.5,1.3c0.2,0.4,0.6,0.7,1,0.9c0.8,0.5,1.4,0.8,2,0.8
					c0.3,0,0.5-0.1,0.8-0.2c1-0.5,1-1.9,1-2c0-2.9-2.2-5.5-4.1-7.2c0.9-0.1,1.9-0.4,2.8-1.3c2.2,1.3,3.8,1.7,4.9,1.7
					c0.2,0,0.3,0,0.4,0c1-0.1,1.6-0.5,1.8-0.8c0.6-0.3,0.7-0.8,0.7-1.1c0-0.4-0.3-0.9-0.7-1.3c3.2,0.1,5.7-1.8,6.8-2.7
					C386.1,175.8,386.1,175.8,386,175.7L386,175.7z M369.3,162.8L369.3,162.8c0.1-0.6,0.5-1.2,1.1-1.6c0.6-0.4,1.1-0.6,1.5-0.6
					c0.1,0,0.2,0,0.3,0.1c0.4,0.2,0.5,0.9,0.5,1.1c0,1.7-0.9,3.3-2.1,4.7C370.5,166.5,369,164.5,369.3,162.8L369.3,162.8z
					 M370.5,183.9c1.2,1.4,2.1,3,2.1,4.7c0,0.2-0.1,0.9-0.5,1.1c-0.4,0.2-1,0-1.8-0.5c-0.6-0.4-1-0.9-1.1-1.6
					C369,185.9,370.5,183.9,370.5,183.9z M367.1,169.6c0,0,0.1,0,0.1-0.1l0,0C367.2,169.5,367.2,169.5,367.1,169.6z"/>
				<path class="st0" d="M386.8,175.2c0,0.1-0.1,0.1-0.1,0.2c0,0-0.2,0.2-0.5,0.4c-0.1,0-0.2-0.1-0.2-0.1c0,0-0.2-0.2-0.5-0.5
					c0.4-0.3,0.5-0.5,0.5-0.5c0.1-0.1,0.2-0.1,0.3-0.1c0.3,0.2,0.4,0.4,0.5,0.4C386.8,175.1,386.8,175.1,386.8,175.2L386.8,175.2z"
					/>
			</g>
			<path class="st1" d="M397.7,175.3c0,0-3-3.1-6.3-3c0,0,2.2-3.4-0.8-5.4c0,0-4.5,2.4-3.2,4.2"/>
			<path class="st1" d="M397.7,175.4c0,0-3,3.1-6.3,3c0,0,2.2,3.4-0.8,5.4c0,0-4.5-2.4-3.2-4.2"/>
			<path class="st0" d="M425.1,173.9L425.1,173.9c-2-2-5.4-5-8.1-4.8c0.3-0.8,0.5-1.8,0.1-2.9c-0.5-1.7-2.1-3-4.7-3.8l-0.7-0.2
				l-0.1,0.7c0,0.1-0.8,8-7,10.8c-0.3,0.1-0.5,0.2-0.8,0.3l-0.6,0.2l-1.3,0.5l1.3,0.5l0.6,0.2c0.5,0.2,1,0.4,1.4,0.6
				c5.6,3,6.4,10.5,6.4,10.6l0.1,0.7l0.7-0.2c2.6-0.9,4.2-2.1,4.7-3.8c0.3-1.1,0.2-2.1-0.1-2.9c2.8,0.2,6.2-2.8,8.1-4.8
				c0.3-0.3,0.6-0.6,0.8-0.9C425.7,174.5,425.4,174.2,425.1,173.9L425.1,173.9z M412.7,163.8L412.7,163.8c1.8,0.7,2.9,1.6,3.3,2.8
				c0.5,1.6-0.6,3.2-0.6,3.2l-1.8,2.4c-0.4-0.1-0.8-0.1-1.2,0c-1.5,0.2-2.3,1.3-2.7,1.9h-3.1C411.1,171.1,412.3,165.8,412.7,163.8
				L412.7,163.8z M416,174.8c-1.3,1.1-2.4,1.6-3.4,1.4c-1.1-0.2-1.7-1.1-1.9-1.4l0,0c0.2-0.4,0.9-1.3,1.9-1.4
				C413.5,173.2,414.7,173.6,416,174.8z M416,183c-0.4,1.1-1.5,2.1-3.3,2.8c-0.3-2-1.6-7.4-6.1-10.3h3.1c0.4,0.6,1.2,1.6,2.7,1.9
				c0.4,0.1,0.8,0.1,1.2,0l1.8,2.4C415.3,179.8,416.5,181.3,416,183L416,183z M416.1,178.9l-2.4-1.6c1-0.2,2.1-0.8,3.2-1.9l0,0
				l0.6-0.7c0-0.1-0.1-0.2-0.2-0.3c-0.1-0.1-0.3-0.3-0.4-0.4c-1.1-1-2.2-1.6-3.2-1.9l2.4-1.6c2-1.4,5.8,1.7,8.1,4.1
				C421.9,177.2,418.2,180.3,416.1,178.9L416.1,178.9z"/>
		</g>
		<g id="_قاب-2">
			<g>
				<path class="st0" d="M19.5,175.1l0-0.3c0.3-0.1,0.5-0.2,0.8-0.3c1.5-0.9,2.7-2.9,2.7-2.9c4.6-7.8,7.5-9.9,9.2-10.3
					c0.3-0.1,0.5-0.1,0.7-0.1c0.4-10.4,9.8-11.7,12-11.9c0.4-5.1,2-8.8,4.6-11c2.3-1.9,4.7-2.1,5.6-2c7.2-12.9,19.4-8,19.4-8
					c3.2,0.6,6.7,3.4,8.6,6.8c1.2,2.2,2.4,5.7,0.8,9.9c-1,2.7-1.1,4.7-0.2,5.9c0.9,1.4,2.8,1.4,2.8,1.4l2.7,0l-2.5,0.9
					c-2.6,1-4.6,0.9-6-0.1c-1.6-1.2-1.8-3.4-1.7-4.6c-3.2,1.1-5.3,1-6.4-0.2c-1.8-2.1,0.4-6.5,0.4-6.7l0.9-1.9v2.1
					c0,1.2,0.3,2.1,1,2.5c1.1,0.7,2.7,0.2,3.2,0.1c1.8-2.7,2.4-5.2,1.7-7.4c-1.3-4-6.5-5.7-6.5-5.8c-11.4-2.8-15.2,7.3-15.4,7.7
					l-0.1,0.4l-0.4,0c-2.5-0.2-4.5,0.4-5.9,1.9c-3.5,3.7-2.5,11.5-2.5,11.6l0.1,0.7l-0.7-0.2c-3.6-0.8-6.3-0.4-8.3,1.2
					c-3.5,3-3.1,9.2-3.1,9.2l0,0.8l-0.7-0.2c-2.1-0.7-6.6,3.8-8.3,5.7c-0.1,2.7-3,4.5-4,5.1c1,0.5,3.8,2.4,4,5.1
					c1.7,1.9,6.2,6.4,8.3,5.7l0.7-0.2l0,0.7c0,0.1-0.4,6.2,3.1,9.2c1.9,1.6,4.7,2.1,8.3,1.2l0.7-0.2l-0.1,0.7c0,0.1-1,7.9,2.5,11.6
					c1.4,1.5,3.4,2.1,5.9,1.9l0.4,0l0.1,0.4c0.2,0.4,4,10.5,15.4,7.7c0.1,0,5.2-1.8,6.6-5.8c0.7-2.2,0.1-4.6-1.7-7.4
					c-0.5-0.2-2.2-0.6-3.2,0.1c-0.6,0.4-1,1.3-1,2.5v2.1l-0.9-1.9c-0.1-0.2-2.3-4.6-0.4-6.7c1.1-1.2,3.2-1.3,6.4-0.2
					c0-1.2,0.2-3.4,1.7-4.6c1.3-1.1,3.4-1.1,6-0.1l2.5,0.9l-2.7,0c0,0-1.8,0-2.8,1.4c-0.9,1.3-0.8,3.3,0.2,5.9
					c1.6,4.2,0.4,7.7-0.8,9.9c-1.9,3.4-5.4,6.1-8.5,6.8c-0.1,0-2.4,0.9-5.6,0.9c-4.2,0-9.9-1.6-13.9-8.9c-0.9,0-3.3-0.1-5.6-2
					c-2.6-2.2-4.2-5.9-4.6-11c-2.2-0.1-11.7-1.4-12-11.9c-0.2,0-0.4,0-0.7-0.1c-1.7-0.4-4.7-2.5-9.2-10.3c-0.4-0.6-1.5-2.1-2.7-2.9
					l0,0c-0.2-0.2-0.5-0.3-0.8-0.3L19.5,175.1L19.5,175.1L19.5,175.1z"/>
				<g>
					<path class="st0" d="M33.6,174.9c-0.2,0.1-0.2,0.2-0.3,0.3l0,0c0,0.1,0.2,0.2,0.3,0.3c0,0,0.2,0.1,0.5,0.2
						c0.2-0.1,0.6-0.3,1-0.6c-0.5-0.3-0.9-0.5-1.1-0.6l0,0C33.8,174.8,33.6,174.9,33.6,174.9L33.6,174.9L33.6,174.9z"/>
					<path class="st0" d="M34.2,174.7c0.2,0.1,0.6,0.3,1,0.6l0,0c1.4-0.9,3.7-2.7,5.1-6.1c0.6-1.5,1.4-2.5,2.5-2.9
						c1.4-0.6,2.8,0.1,2.8,0.1c0.2,0.1,0.3,0.1,0.5,0c0.1-0.1,0.2-0.3,0.2-0.4c0-4.4,3.4-4.5,3.5-4.5c0.3,0,0.5-0.2,0.5-0.5
						c0-1.6,0.4-2.6,1.1-3c1-0.6,2.6,0.1,3.2,0.5c0.2,0.1,0.5,0.1,0.6-0.1c0.2-0.2,0.2-0.4,0-0.6c-1.7-2.5-1-3.4-1-3.4
						c0.8-0.8,1.7-1.2,2.4-1.1c1.1,0.1,1.8,1.1,1.8,1.1c0.1,0.2,0.3,0.2,0.5,0.2c0.2,0,0.3-0.2,0.4-0.4c0.8-3,2.1-3.6,2.4-3.6
						c0.4,0.2,0.8,0.5,0.9,0.9c0.8,1.6-0.4,4.4-0.4,4.4c0,0,0,0.1,0,0.1c0-0.1-0.1-0.2-0.1-0.2c-0.1-0.1-0.2-0.2-0.3-0.2
						c-1.7-0.3-2.9,0.1-3.8,1c-1.2,1.3-1.2,3.5-1.1,5c0.3,0.4,0.5,0.8,0.5,1.3c0.1,0.4,0.1,0.8,0,1.2c1.4,2.4,7.4,2.5,8.2,2.5
						c2.8,0.5,3.9,1.4,4.3,2.1c0.4,0.7,0.3,1.3,0.2,1.3c-0.1,0.2,0,0.5,0.2,0.6c-0.2,0.1-0.3,0.2-0.5,0.3c-1,0.6-1.9,1.2-2.6,1.9
						c-0.2,0.2-0.2,0.5,0,0.7c0.2,0.2,0.5,0.2,0.7,0.1c1-0.7,4-2.4,5.7-1.7c0.8,0.3,1.3,1.1,1.5,2.4c0,0.2,0.1,0.3,0.3,0.4
						c0.1,0,0.1,0,0.2,0c0.1,0,0.2,0,0.3-0.1c0,0,2.8-1.8,4.5-1c0.2,0.1,0.6,0,0.7-0.2c0.1-0.2,0-0.5-0.2-0.7
						c-1.7-0.8-3.8,0.1-4.9,0.7c-0.3-1.2-1-2-1.9-2.4c-0.7-0.3-1.4-0.3-2.1-0.2c1.7-1.2,3.5-2.7,5.1-5.3c1.2-2,1.5-3,0.9-3.4
						c-0.4-0.3-1-0.2-1.8,0.3l-0.1-1.2c1-7.2-5.2-10.4-5.3-10.4c-0.1,0-0.2-0.1-0.2-0.1c-0.6,0-1.1-0.2-1.5-0.4
						c-1.2-0.8-1.5-2.6-1.5-2.6c-1-3.6-0.8-6.4,0.6-8.4c1.8-2.6,4.9-3,5-3c0.2,0,0.3-0.1,0.4-0.3c0.1-0.2,0-0.3-0.1-0.5
						c-0.1-0.1-1.2-1.6-3.4-1.6c-2.1-0.1-4.3,1.2-6.6,3.8c-0.6-0.3-2-0.8-2.9-0.1c-1,0.8-1.2,2.4-0.6,5.2c-1.3,0-4.2,0.2-6.4,2.1
						c-1.7,1.5-2.5,3.6-2.5,6.4c0,0.2,0.2,0.4,0.4,0.5c0.2,0.1,0.5-0.1,0.6-0.3c0,0,1.6-3.1,4.8-4c2.2-0.7,4.8-0.3,7.5,1.3
						c0.2,0.1,0.4,0.1,0.6-0.1c0.2-0.2,0.2-0.4,0.1-0.6c-0.1-0.2-2.8-4.9,1.4-10c0.2-0.2,0.2-0.5-0.1-0.7c-0.2-0.2-0.5-0.1-0.7,0.1
						c-3.3,4-2.7,7.9-2.1,9.8c-2.5-1.1-4.9-1.4-7.1-0.7c-2,0.6-3.4,1.9-4.3,2.9c0.3-1.6,1-2.9,2-3.9c2.5-2.2,6.3-1.8,6.3-1.8
						c0.2,0,0.3-0.1,0.4-0.2s0.2-0.3,0.1-0.4c-0.9-3.4-0.3-4.5,0.1-4.8c0.6-0.5,1.8,0.1,2.2,0.3c0.2,0.1,0.5,0.1,0.6-0.1
						c2.1-2.5,4.2-3.8,6-3.8h0.1c0.9,0,1.6,0.3,2,0.6c-1.2,0.3-3.3,1.2-4.7,3.2c-1.6,2.3-1.8,5.4-0.8,9.2c0.1,0.9,0.7,2.4,1.9,3.2
						c4.4,8.1,3.2,14.5,2.3,17.3c0,0,0-0.1-0.1-0.1c-0.8-1.3-2.5-2.1-5.1-2.6c-2,0-7.6-0.5-7.6-2.5c0,0,0-0.1,0-0.1
						c0,0,0-0.2-0.1-0.5c0.8-0.3,4.4-1.7,7.5-0.9c1.2,3.1,4.6,5.8,4.8,5.9c0.2,0.1,0.4,0.1,0.6,0c0.2-0.1,0.3-0.3,0.2-0.5
						c-0.6-2.8-1.9-4.8-3.9-5.8c-0.3-0.1-0.6-0.3-0.9-0.4c-0.1-0.5-0.2-0.9-0.2-1.4c0.1-1.1,0.7-2.1,1.8-2.9
						c0.1-0.1,0.2-0.2,0.2-0.4c0-0.1,0-0.3-0.1-0.4c-0.1-0.1-1.7-1.6-3.4-1.5c-0.3,0-0.6,0.1-0.9,0.3c0.2-1.1,0.3-2.4-0.2-3.5
						c-0.3-0.7-0.9-1.2-1.7-1.4c0,0-0.1,0-0.2,0c-0.2,0-2,0.2-3.1,3.6c-0.5-0.4-1.1-0.8-2-0.9c-1.1-0.1-2.2,0.4-3.3,1.5
						c-0.1,0.1-0.9,1,0.2,3.3c-0.8-0.2-1.9-0.4-2.7,0.1c-1,0.6-1.5,1.7-1.6,3.4c-1.1,0.2-3.7,1-4,4.8c-0.7-0.2-1.8-0.4-2.9,0.1
						c-1.3,0.5-2.4,1.7-3.1,3.4c-0.2,0.5-0.4,1-0.7,1.4C37.2,172.8,35.1,174.1,34.2,174.7L34.2,174.7z M67.1,162.4
						c0-0.1,0-0.3,0.1-0.5c0.3,0.1,0.6,0.2,0.9,0.5c1.4,0.9,1.8,2.5,1.9,3C69.6,165.2,67.1,164.1,67.1,162.4z M71.5,169.7
						c0.8-1.7,3.5-8.7-1.3-18.4c0.2,0,0.4,0,0.6,0.1c0.8,0.4,5.5,3.3,4.6,9.4l0.1,2.2c0,0.2,0.1,0.4,0.3,0.4
						c0.2,0.1,0.4,0.1,0.5-0.1c0.4-0.3,0.8-0.6,1.2-0.8c-0.1,0.3-0.3,0.9-1,2C74.9,167.1,73.1,168.6,71.5,169.7L71.5,169.7z
						 M61.6,157.8c-0.2,0.8-1,2.1-3.5,3.4c-0.1-1.3-0.1-3.1,0.8-4.2c0.6-0.6,1.4-0.9,2.6-0.7C61.6,156.6,61.8,157.1,61.6,157.8z
						 M63.3,156.1c0.4-0.7,1-1,1.6-1.1c0.8-0.1,1.7,0.4,2.2,0.8c-1.1,0.9-1.7,2-1.8,3.3c0,0.4,0,0.8,0.1,1.2
						c-0.6-0.1-1.2-0.2-1.8-0.2c-0.9,0-1.8,0.1-2.6,0.3c0.8-0.8,1.3-1.6,1.6-2.4c0.2-0.7,0.1-1.3,0-1.7c0,0,0.1,0,0.1,0
						C62.8,156.4,63.1,156.3,63.3,156.1L63.3,156.1z"/>
					<path class="st0" d="M67.7,175.2c-0.1,0-0.2,0-0.3-0.1c-0.1-0.1-2.3-1.5-2.9-3.9c-0.8,0.9-2.2,2.2-3.7,2.2
						c-0.3,0-0.5-0.2-0.5-0.5s0.2-0.5,0.5-0.5c1.4,0,3.1-2,3.6-2.8c0.1-0.2,0.3-0.3,0.6-0.2c0.2,0.1,0.3,0.3,0.3,0.5
						c0,2.7,2.6,4.3,2.6,4.4c0.2,0.1,0.3,0.5,0.2,0.7C68.1,175.1,67.9,175.2,67.7,175.2L67.7,175.2L67.7,175.2z"/>
					<path class="st0" d="M39.2,175c0,0,0.2-0.2,0.5-0.4c0.1,0,0.2,0.1,0.3,0.1c0,0,0.2,0.2,0.5,0.5c-0.3,0.3-0.5,0.5-0.5,0.5
						c-0.1,0.1-0.2,0.1-0.2,0.1c-0.3-0.2-0.5-0.4-0.5-0.4c0-0.1-0.1-0.1-0.1-0.2C39.1,175.1,39.2,175.1,39.2,175L39.2,175z"/>
					<path class="st0" d="M59.9,170.3c-0.2-0.2-0.7-0.4-1.2-0.8L59.9,170.3z"/>
				</g>
				<g>
					<path class="st0" d="M33.6,174.9c-0.2,0.1-0.2,0.2-0.3,0.3l0,0c0,0.1,0.2,0.2,0.3,0.3c0,0,0.2,0.1,0.5,0.2
						c0.2-0.1,0.6-0.3,1-0.6c-0.5-0.3-0.9-0.5-1.1-0.6l0,0C33.8,174.8,33.6,174.9,33.6,174.9L33.6,174.9L33.6,174.9z"/>
					<path class="st0" d="M34.2,175.8c1,0.5,3.1,1.9,4.6,4.6c0.2,0.4,0.4,0.9,0.6,1.3c0.7,1.8,1.7,2.9,3.1,3.4
						c1.2,0.4,2.2,0.3,2.9,0.1c0.3,3.7,2.9,4.6,4,4.8c0.1,1.7,0.6,2.9,1.6,3.4c0.9,0.5,1.9,0.4,2.7,0.1c-1.1,2.3-0.3,3.2-0.2,3.3
						c1.1,1.1,2.2,1.6,3.3,1.5c0.8-0.1,1.5-0.5,2-0.9c1.2,3.4,2.9,3.6,3.1,3.6h0c0.1,0,0.1,0,0.2,0c0.8-0.2,1.3-0.7,1.7-1.4
						c0.5-1.1,0.4-2.4,0.2-3.5c0.3,0.1,0.6,0.2,0.9,0.3c1.8,0.2,3.4-1.4,3.4-1.5c0.1-0.1,0.2-0.2,0.1-0.4c0-0.1-0.1-0.3-0.2-0.4
						c-1.2-0.8-1.8-1.7-1.8-2.9c0-0.5,0.1-0.9,0.2-1.4c0.3-0.1,0.6-0.2,0.9-0.4c2-1,3.3-3,3.9-5.8c0-0.2-0.1-0.4-0.2-0.5
						s-0.4-0.1-0.6,0c-0.2,0.1-3.6,2.8-4.8,5.9c-3.1,0.8-6.7-0.5-7.5-0.9c0-0.3,0.1-0.5,0.1-0.5c0,0,0-0.1,0-0.1
						c0-2,5.6-2.5,7.5-2.5c2.7-0.4,4.4-1.3,5.2-2.6c0,0,0.1-0.1,0.1-0.1c0.9,2.8,2.1,9.2-2.3,17.3c-1.2,0.8-1.8,2.4-1.9,3.3
						c-1,3.8-0.8,6.9,0.8,9.1c1.4,2,3.4,2.9,4.7,3.2c-0.4,0.3-1.1,0.6-2,0.6h-0.1c-1.8,0-3.9-1.3-6-3.8c-0.2-0.2-0.4-0.2-0.6-0.1
						c-0.4,0.2-1.6,0.8-2.2,0.3c-0.4-0.3-0.9-1.3-0.1-4.8c0-0.2,0-0.3-0.1-0.4s-0.3-0.2-0.4-0.2c0,0-3.8,0.4-6.3-1.8
						c-1-0.9-1.7-2.2-2-3.9c0.9,1,2.3,2.3,4.3,2.9c2.2,0.7,4.5,0.4,7.1-0.7c-0.6,1.9-1.2,5.8,2.1,9.8c0.2,0.2,0.5,0.2,0.7,0.1
						c0.2-0.2,0.2-0.5,0.1-0.7c-4.2-5.1-1.6-9.8-1.4-10c0.1-0.2,0.1-0.4-0.1-0.6s-0.4-0.2-0.6-0.1c-2.8,1.5-5.3,1.9-7.5,1.3
						c-3.2-1-4.8-4-4.8-4.1c-0.1-0.2-0.3-0.3-0.6-0.3c-0.2,0.1-0.4,0.3-0.4,0.5c0,2.8,0.8,5,2.5,6.4c2.2,1.9,5,2.1,6.4,2.1
						c-0.6,2.7-0.4,4.4,0.6,5.1c1,0.7,2.3,0.2,2.9-0.1c2.2,2.5,4.4,3.8,6.5,3.8h0.1c2.2-0.1,3.4-1.6,3.4-1.6
						c0.1-0.1,0.1-0.3,0.1-0.5c-0.1-0.2-0.2-0.3-0.4-0.3c0,0-3.2-0.4-5-3c-1.4-2-1.6-4.8-0.6-8.4c0-0.1,0.3-1.9,1.5-2.7
						c0.4-0.2,0.9-0.4,1.5-0.4c0.1,0,0.2,0,0.2-0.1c0.1,0,6.3-3.2,5.3-10.5l0.1-1.1c0.8,0.5,1.5,0.6,1.8,0.3
						c0.5-0.5,0.3-1.4-0.9-3.4c-1.6-2.6-3.4-4.2-5.1-5.3c0.7,0.1,1.4,0.1,2.1-0.2c0.9-0.4,1.6-1.2,1.9-2.4c1.1,0.6,3.2,1.5,4.9,0.7
						c0.2-0.1,0.3-0.4,0.2-0.7c-0.1-0.2-0.4-0.3-0.7-0.2c-1.7,0.9-4.5-0.9-4.5-1c-0.1-0.1-0.3-0.1-0.5,0c-0.2,0.1-0.3,0.2-0.3,0.4
						c-0.2,1.2-0.7,2-1.5,2.4c-1.8,0.7-4.7-1-5.7-1.7c-0.2-0.1-0.5-0.1-0.7,0.1c-0.2,0.2-0.2,0.5,0,0.7c0.7,0.7,1.6,1.2,2.6,1.9
						c0.2,0.1,0.3,0.2,0.5,0.3c-0.2,0.1-0.3,0.4-0.2,0.6c0,0,0.2,0.6-0.2,1.3c-0.4,0.7-1.5,1.6-4.4,2.1c-0.7,0-6.8,0.1-8.1,2.4l0,0
						c0.1,0.4,0.1,0.8,0,1.2c-0.1,0.5-0.3,0.9-0.5,1.3c-0.2,1.5-0.1,3.7,1.1,5c0.8,0.9,2.1,1.2,3.8,1c0.1,0,0.2-0.1,0.3-0.2
						c0,0,0-0.1,0.1-0.2c0,0,0,0.1,0,0.1c0,0,1.1,2.8,0.4,4.4c-0.2,0.4-0.5,0.7-0.9,0.9c-0.3-0.1-1.6-0.6-2.4-3.6
						c0-0.2-0.2-0.3-0.4-0.4c-0.2,0-0.4,0.1-0.5,0.2c0,0-0.7,1-1.9,1.1c-0.8,0.1-1.6-0.3-2.5-1.2c0,0-0.1-0.1-0.1-0.5
						c0-0.5,0.2-1.4,1.2-2.8c0.1-0.2,0.1-0.5,0-0.6c-0.2-0.2-0.4-0.2-0.6-0.1c-0.5,0.3-2.2,1-3.2,0.5c-0.7-0.4-1.1-1.4-1.1-3
						c0-0.3-0.2-0.5-0.5-0.5c-0.1,0-3.5-0.1-3.5-4.5c0-0.2-0.1-0.3-0.2-0.4c-0.2-0.1-0.3-0.1-0.5,0c0,0-1.4,0.7-2.8,0.1
						c-1.1-0.4-1.9-1.4-2.5-2.9c-1.4-3.4-3.7-5.3-5.1-6.2l0,0C34.7,175.5,34.4,175.7,34.2,175.8L34.2,175.8z M71.5,180.7
						c1.6,1.1,3.4,2.6,4.9,5.1c0.7,1.1,0.9,1.7,1,2c-0.3-0.1-0.8-0.4-1.2-0.8c-0.2-0.1-0.3-0.1-0.5-0.1c-0.2,0.1-0.3,0.2-0.3,0.4
						l-0.1,2.1c0.9,6.2-3.9,9.1-4.6,9.5c-0.2,0-0.4,0-0.6,0.1h0C75,189.4,72.3,182.4,71.5,180.7L71.5,180.7z M68.1,188.4
						c-0.2,0.1-0.5,0.2-0.9,0.1c-0.1-0.5-0.1-0.9-0.1-1.1c0.2-1.1,1.4-2,2.9-2.3C69.9,186.6,69.2,187.9,68.1,188.4z M61.6,192.6
						c0.2,0.7,0,1.2,0,1.4c-1.2,0.1-2-0.1-2.6-0.7c-0.9-1-1-2.8-0.8-4.1C60.6,190.6,61.4,191.8,61.6,192.6L61.6,192.6z M62.6,194.1
						C62.6,194.1,62.6,194.1,62.6,194.1c0.1-0.4,0.1-1-0.1-1.7c-0.2-0.8-0.7-1.6-1.6-2.4c1.3,0.3,2.9,0.4,4.4,0.1
						c-0.1,0.4-0.1,0.8-0.1,1.2c0,1.3,0.6,2.4,1.8,3.3c-0.5,0.4-1.4,0.9-2.2,0.8c-0.6-0.1-1.1-0.4-1.6-1.1
						C63.1,194.1,62.9,194,62.6,194.1L62.6,194.1z"/>
					<path class="st0" d="M64.9,181.1c-0.2,0-0.3-0.1-0.4-0.2c-0.5-0.8-2.2-2.8-3.6-2.8c-0.3,0-0.5-0.2-0.5-0.5s0.2-0.5,0.5-0.5
						c1.4,0,2.8,1.3,3.7,2.2c0.6-2.5,2.8-3.9,2.9-3.9c0.2-0.1,0.6-0.1,0.7,0.2s0.1,0.5-0.2,0.7c0,0-2.6,1.7-2.6,4.4
						c0,0.2-0.1,0.4-0.3,0.5C65,181.1,64.9,181.1,64.9,181.1L64.9,181.1L64.9,181.1z"/>
					<path class="st0" d="M39.7,175.9c1,0.9,3.6,2.8,6.8,2.7c-0.4,0.4-0.7,0.8-0.7,1.3c0,0.3,0.1,0.8,0.7,1.1
						c0.2,0.2,0.8,0.6,1.8,0.8c0.1,0,0.3,0,0.4,0c1.1,0,2.7-0.4,4.9-1.7c1,0.9,1.9,1.3,2.8,1.3c-2,1.7-4.2,4.3-4.2,7.2
						c0,0.1,0,1.5,1,2c0.2,0.1,0.5,0.2,0.8,0.2c0.6,0,1.2-0.3,2-0.8c0.4-0.3,0.7-0.6,1-0.9c0.3-0.4,0.5-0.8,0.5-1.3
						c0.1-0.4,0.1-0.8,0-1.2l0,0c-0.2-1.7-1.3-3.2-1.4-3.3c0-0.1-0.1-0.1-0.2-0.1c0.9-0.9,1.8-1.6,2.5-2.2c0.8-0.6,1.4-1,1.5-1
						c0,0,0.1-0.1,0.1-0.1c0-0.1,0.1-0.1,0.1-0.2v-0.1c0-0.1,0-0.1,0-0.2v-0.1c0,0,0-0.1,0-0.1c0,0,0-0.1-0.1-0.1
						c0,0-0.1-0.1-0.2-0.1c0,0,0,0,0,0c0,0-0.1,0-0.2,0s-0.1,0-0.2,0c0,0,0,0,0,0c0,0,0,0,0,0c0,0,0,0-0.1,0.1
						c0,0.1-0.6,0.6-1.4,0.9c0,0,0,0,0,0c-0.9,0.4-2.2,0.5-3.6-0.6c1.4-0.9,3-2.2,4.9-3.9c0.1-0.1,0.2-0.3,0.2-0.4
						c0,0.1,0,0.2-0.1,0.3c-0.2,0.2-0.5,0.2-0.7,0.1c0,0-0.2-0.1-0.5-0.3c-1.2,0.8-4.8,2.7-8.1,0c3.3-2.7,6.9-0.8,8.1,0
						c0.3-0.2,0.4-0.3,0.5-0.3c0.2-0.2,0.5-0.1,0.7,0.1c0.1,0.1,0.1,0.2,0.1,0.2c0-0.2,0-0.3-0.2-0.4c-1.9-1.7-3.5-2.9-4.9-3.9
						c1.3-1.1,2.6-1,3.6-0.6h0c0.7,0.3,1.2,0.8,1.3,0.9l0.2,0.1c0,0,0,0,0,0c0,0,0.1,0,0.2,0c0.1,0,0.1,0,0.2,0
						c0.1,0,0.1-0.1,0.2-0.1c0,0,0.1-0.1,0.1-0.1c0,0,0-0.1,0-0.1V171c0-0.1,0-0.1,0-0.2v-0.1c0,0,0-0.1,0-0.1c0,0,0-0.1-0.1-0.1
						c0,0-0.1-0.1-0.1-0.1c0,0-0.1-0.1-0.2-0.1c-0.2-0.1-0.5-0.3-0.8-0.6c0,0,0,0-0.1,0h0c0,0,0,0,0,0c0,0,0,0,0,0
						c0,0-0.1-0.1-0.2-0.1h0c0,0,0,0,0,0c-0.7-0.5-1.7-1.3-2.5-2.2c0,0,0.1-0.1,0.2-0.1c0-0.1,1.2-1.6,1.4-3.3
						c0.1-0.4,0.1-0.8,0-1.2c-0.1-0.5-0.3-0.9-0.5-1.3c-0.2-0.4-0.6-0.7-1-0.9c-1.1-0.8-2.1-1-2.8-0.6c-1,0.5-1,1.9-1,2
						c0,2.9,2.2,5.5,4.2,7.2c-0.9,0.1-1.9,0.4-2.8,1.3h0c-2.5-1.5-4.2-1.8-5.3-1.6c-1,0.1-1.6,0.5-1.8,0.8c-0.6,0.3-0.7,0.8-0.7,1.1
						c0,0.4,0.3,0.9,0.7,1.3c-3.2-0.1-5.8,1.8-6.8,2.7c0.1,0,0.2,0.1,0.3,0.1c0,0,0.2,0.2,0.5,0.5c1.3-1.1,4.5-3.3,8.2-1.9
						c0.2,0.1,0.5,0,0.6-0.2c0.1-0.2,0-0.5-0.2-0.7c-1.1-0.5-2.3-1.4-2.3-1.9c0-0.1,0.1-0.2,0.3-0.2c0.1,0,0.1-0.1,0.2-0.1
						c0,0,0.3-0.4,1.3-0.5c1.1-0.1,3.3,0.3,7.3,3.3c-1.8-0.4-4.2-0.4-6.3,1.5c-0.2,0.1-0.3,0.3-0.5,0.4c-0.1,0.1-0.1,0.1-0.1,0.2
						c0,0.1,0.1,0.1,0.1,0.2c0.2,0.2,0.3,0.3,0.5,0.4c2.2,1.9,4.5,2,6.3,1.5c-4,3-6.2,3.4-7.3,3.3c-0.9-0.1-1.2-0.5-1.3-0.5
						c0-0.1-0.1-0.1-0.2-0.1c-0.2-0.1-0.3-0.2-0.3-0.2c0-0.4,1.2-1.3,2.3-1.9c0.2-0.1,0.3-0.4,0.2-0.7c-0.1-0.2-0.4-0.4-0.6-0.3
						c-3.6,1.5-6.9-0.8-8.2-1.9c-0.3,0.3-0.5,0.5-0.5,0.5l0,0C39.9,175.8,39.8,175.8,39.7,175.9L39.7,175.9z M55.5,166.6
						c-1.2-1.4-2.1-3-2.1-4.7c0-0.2,0.1-0.9,0.5-1.1c0.1-0.1,0.2-0.1,0.3-0.1c0.4,0,0.9,0.2,1.5,0.6c0.6,0.4,1,0.9,1.1,1.6l0,0
						C56.9,164.5,55.5,166.5,55.5,166.6L55.5,166.6z M56.6,187.6c-0.1,0.6-0.5,1.2-1.1,1.6c-0.8,0.5-1.4,0.7-1.8,0.5
						c-0.4-0.2-0.5-0.9-0.5-1.1c0-1.7,0.9-3.4,2.1-4.7C55.5,183.9,56.9,185.9,56.6,187.6z M58.7,169.5L58.7,169.5
						c0,0,0.1,0.1,0.1,0.1C58.8,169.5,58.7,169.5,58.7,169.5z"/>
					<path class="st0" d="M39.2,175c0,0,0.2-0.2,0.5-0.4c0.1,0,0.2,0.1,0.3,0.1c0,0,0.2,0.2,0.5,0.5c-0.3,0.3-0.5,0.5-0.5,0.5
						c-0.1,0.1-0.2,0.1-0.2,0.1c-0.3-0.2-0.5-0.4-0.5-0.4c0-0.1-0.1-0.1-0.1-0.2C39.1,175.1,39.2,175.1,39.2,175L39.2,175z"/>
				</g>
				<path class="st1" d="M38.6,171.1c1.2-1.8-3.2-4.2-3.2-4.2c-3,2-0.8,5.4-0.8,5.4c-3.3-0.1-6.3,3-6.3,3"/>
				<path class="st1" d="M38.6,179.6c1.2,1.8-3.2,4.2-3.2,4.2c-3-2-0.8-5.4-0.8-5.4c-3.3,0.1-6.3-3-6.3-3"/>
				<path class="st0" d="M0,174.7c0.2,0.2,0.5,0.6,0.8,0.9c2,2,5.3,5,8.1,4.8c-0.3,0.8-0.4,1.8-0.1,2.9c0.5,1.7,2.1,3,4.7,3.8
					l0.7,0.2l0.1-0.7c0-0.1,0.8-7.5,6.4-10.6c0.4-0.2,0.9-0.4,1.4-0.6l0.6-0.2l1.3-0.5l-1.3-0.5l-0.6-0.2c-0.3-0.1-0.6-0.2-0.8-0.3
					c-6.1-2.8-7-10.7-7-10.8l-0.1-0.7l-0.7,0.2c-2.6,0.9-4.2,2.1-4.7,3.8c-0.3,1.1-0.1,2.1,0.1,2.9c-2.8-0.2-6.2,2.8-8.1,4.8v0
					C0.5,174.2,0.2,174.5,0,174.7L0,174.7z M19.4,174h-3.1c-0.4-0.6-1.2-1.6-2.7-1.9c-0.4-0.1-0.8-0.1-1.2,0l-1.8-2.4
					c0,0-1.2-1.6-0.6-3.2c0.4-1.1,1.5-2.1,3.3-2.8l0,0C13.6,165.8,14.9,171.1,19.4,174L19.4,174z M13.4,173.3
					c1.1,0.2,1.7,1.1,1.9,1.4l0,0c-0.2,0.4-0.9,1.3-1.9,1.4c-1,0.2-2.2-0.3-3.4-1.4C11.2,173.6,12.4,173.2,13.4,173.3z M10.6,179.8
					l1.8-2.4c0.4,0.1,0.8,0.1,1.2,0c1.5-0.2,2.3-1.3,2.7-1.9h3.1c-4.5,2.9-5.8,8.3-6.1,10.3c-1.8-0.7-2.9-1.6-3.3-2.8
					C9.5,181.4,10.6,179.8,10.6,179.8L10.6,179.8z M1.7,174.8c2.3-2.4,6.1-5.5,8.1-4.1l2.4,1.6c-1,0.2-2.1,0.8-3.2,1.9
					c-0.1,0.1-0.3,0.3-0.4,0.4c-0.1,0.1-0.1,0.2-0.2,0.3l0.6,0.7l0,0c1.1,1,2.2,1.6,3.2,1.9l-2.4,1.6C7.8,180.3,4,177.2,1.7,174.8
					L1.7,174.8z"/>
			</g>
		</g>
	</g>
	<g id="_ماری_امینی">
		<path class="st2" d="M320.1,184.5c-2,11-9,15-13,14s-9-5-9-18s6-52,11-50c-0.9,5.6-0.6,13.6-2.2,22.9c-2.3,12.7-1.6,30.7,3.2,30.1
			c1.4-0.2,3.5-3.4,4-5c0,0,0-0.1,1-3C315.1,175.5,322.1,173.5,320.1,184.5z"/>
		<path class="st2" d="M292.1,166.5c0,0-4,27-11,33s-17,7-17,7l0,0c-0.3-0.1-0.8-0.4-1-1c0,0-0.2-0.4,0-1c0.5-1.8,12.5-9.2,18-17
			c1-1.4,2-3.6,4-8c2.4-5.3,4-9.8,5.1-13c0.3-0.9,1.1-1.3,1.5-1.1C292,165.5,292.1,166,292.1,166.5z"/>
		<path class="st2" d="M280.1,150.5c0,0-10,16-5,20c0,0,4,2,4-2c0,0,2.6,3.4-2.2,8.2s-11.8-8.2,3.2-26.7V150.5z"/>
		<path class="st2" d="M275.1,148.5c0,0-8-5-20,13c0,0-2,3,1,4s8,2,8,6c0.4,3.7,0.5,8.1-1,16c0,0-6,23-23,30s-44-4-11-62
			c0,0,1-3,1,1c-5.8,15.3-11.1,32.4-10,38c0,0,0,13,20,10c0,0,11-2,19-15c1-2,2-6-2-7c0,0-10-2-10-9c0,0-1-5,6-18c0,0,17-25,27-21
			c0,0,3.5,1.1-4,13C276.1,147.5,276.1,148.5,275.1,148.5z"/>
		<path class="st2" d="M150.1,118.5c0.8-1.9,2-1.1,3.3,0l4.7,4c1.8,1.3,0,5.4,0,5.4s-3.9,7.4-6,7.6c-3.2-0.2-5.7-2.6-8-6
			C146.1,126.8,148.1,123.3,150.1,118.5z"/>
		<path class="st2" d="M179.8,182.4c0,0.1-0.1,0.2-0.1,0.3c-1.6,3-4.4,7.2-5.5,7.3c-2.6-0.2-4.9-1.9-7.4-5.5c2-2.8,4-6.4,5.9-10.8
			l0,0c0.1-0.3,0.4-0.7,0.6-0.8c0.5-0.1,1.5,0.6,1.9,1l4.2,3.6c-0.4,0.8-0.9,1.6-1.3,2.3l-0.2,0.3l0.2,0.3
			C178.6,181.1,179.2,181.8,179.8,182.4L179.8,182.4z"/>
		<path class="st2" d="M191.7,177.2c-1.4,3.1-3.8,7.5-4.9,7.7h0c-1.9,0-3.9-0.9-5.9-2.8c-0.1-0.1-0.3-0.3-0.4-0.4
			c-0.1-0.1-0.3-0.3-0.4-0.4c-0.4-0.4-0.8-0.8-1.1-1.3c0.4-0.6,0.7-1.2,1.1-1.9c0.1-0.1,0.2-0.3,0.3-0.5c0.1-0.1,0.2-0.3,0.2-0.5
			c1.2-2.4,2.4-5.2,3.4-8.4l0.1-0.3c0.1-0.3,0.3-0.5,0.5-0.6c0.5-0.2,1.5,0.5,1.9,0.8l5,3.6C192.8,173.2,192.1,176.1,191.7,177.2
			L191.7,177.2z"/>
		<path class="st2" d="M127.1,200.5c0.3-0.2,0.7-0.5,1-1c0.5-1,0.2-2,0-3c-0.1-0.5-0.6-2.8,0-5c0.1-0.5,1-3.8,3-4
			c1.6-0.1,2.9,1.8,3,2c0,0,1-2,0-4c-0.1-0.2-0.8-1.2-2-1.5c-1.9-0.5-3.7,1.2-4,1.5c-2,1.9-2.3,5.4-1,9c-0.2-0.6-2.3-8.8-5.3-9.2
			c-1-0.1-1.7,0.2-1.7,0.2c-1.1,0.6-1.4,2.2-1.4,3.2c0.1,1.6,1.1,2.6,1.4,2.8c0.3-1.2,0.7-1.8,1.2-1.9
			C122.6,189.4,124.5,193,127.1,200.5z"/>
		<path class="st2" d="M132.1,157.5c0.1-0.4,3,5-7,18c0,0-4,5.8,0,8.4s5-4.4,5-4.4s-4.9,3.5-3.5-2.8S136.1,164.5,132.1,157.5z"/>
		<path class="st2" d="M199.1,144.5c0,0-6.3,11.9-2.6,14.5c0,0,1.6,1.5,3.6-1.5c0,0,0.4,6.8-4.8,5.9S195.1,148.5,199.1,144.5
			L199.1,144.5z"/>
		<path class="st2" d="M315.4,134.1c-1,1.8-1.1,3.6-0.3,5.4c0,0,8,7,1,19C316.2,158.8,327.1,146.3,315.4,134.1z"/>
		<path class="st2" d="M248.9,115.7l-0.3,0.9c-0.3-0.2-0.6-0.4-0.9-0.5c-7.4-3.9-14.7-1.5-16-1c-0.1,0-0.2,0.1-0.5,0.2
			c-2,0.9-9.3,4.6-10.9,13c-0.8,4-0.3,9.1,2.4,12.7c0.3,0.4,0.6,0.8,1,1.1c0.9,0.9,2,2,3.1,2.9c2.4,2.2,4.8,4.2,4.8,4.2
			c4.7,4,4.8,4.8,4.8,4.8c2.8,3.6,3,6.8,3,8.1c0,3.2-1.5,8-4.7,10.9c-0.8,0.7-2.1,1.8-2.8,3.7c-0.4,1.3-0.4,2.5-0.2,3.3
			c0.9,2.9,2.1,3.5,3,4c3.7,2.1,8.8-4.3,8.5-5.5c-1.2-1.9-2.3-2.5-3.2-2.4c-1.4,0-2.5,1.1-2.8,2.4c0,0-1.5-1.5-0.5-4.5c0,0,3-6,7,0
			c0,0,2.6,8.6-5.7,13.3c0,0-6.3,2.7-7.3-2.3s1-9,1-10s-1.4,3.8-5.7,1.4c0,0-0.3-2.4,1.7-2.4c0,0,13-2,10-15c0,0-1-5-8-9
			c0,0-3.1-1.4-6.2-4.2c-1.3-1.2-2.7-2.7-3.7-4.5c-2.4-4-3.4-9.5,0.2-16.4c0,0,6.7-15.9,27.7-9.9C247.6,115,248.1,115.2,248.9,115.7
			L248.9,115.7L248.9,115.7z"/>
		<path class="st2" d="M241.3,151.1c-0.1,0.2-0.2,0.3-0.2,0.3c3-6.1,1.6-11.2-0.4-14.7c-1-1.7-2.1-3-3.1-3.9
			c-0.9-0.9-1.6-1.4-1.6-1.4c-1-5,1-7,1-7c0,3,3,5,3,5c0.1,0.1,0.3,0.3,0.4,0.5c1.2,1.4,2.1,2.9,2.7,4.4l0,0
			C246.3,141.9,242.4,149.4,241.3,151.1z"/>
		<path class="st2" d="M216.1,131.5l-0.8,10l-0.4,5l-1.8,21.1c-2.1,11.4-5.3,17-9,19.8c-0.9-0.3-1.2-1.3,0-3.8c0,0,1,0,3-15
			s1-19,1-19c-0.2-1.2-0.1-2.6,0.2-4c0.3-1.6,0.8-3.2,1.4-4.8c1.8-4.8,4.4-9.2,4.4-9.2C215.1,129.5,216.1,131.5,216.1,131.5z"/>
		<path class="st2" d="M207.1,129.5l-3,6.9c-1.6-0.2-3.2-0.3-4.8-0.5c-1.1-0.1-2.1-0.2-3.2-0.4l-2.9,1.9l-0.1,0.1
			c-6,9-11.4,15.8-15,15c0,0-1,0-3-1c-2.8,3.1-5.1,5.3-7,6c-2.9,1.6-5.6,1.7-8,0c-3.3-0.5-5,0-6,1c0,0-9,7-7,9s9,5,9,8s-3,17-3,17
			s-3.3,17.5-20,27c-17.8,10.1-28-5-28-14c0,0-0.2-24.6,16-48c0,0,2,1-1,5c0,0-10,21-9,35s29,16,39-5c0,0,2-6-2-7c0,0-9-2-9-8
			c0,0,2-23,23-29c0,0,3-1,4,2c0,0,2,2,5-2c0,0,1-19,5-17c1.7,2.4,2.8,16.6,13.6,2.5c0.1-0.2,0.2-0.3,0.4-0.5c0,0,0.8-2,2.1-4.2
			c1.6-2.7,4.1-5.8,6.9-5.8c0,0-1-7,2-6C205.1,120.9,208.8,124.5,207.1,129.5z"/>
	</g>
	<g id="_آینه_و_شمعدان">
		<g id="_آینه">
			<g>
				<path class="st0" d="M175.7,125c-1.2-2.3-2.5-0.8-3.7,0.5c-1.6,1.4-3.3,0-4-1.6c-0.1-1.5,1.1-1.9,2.3-1.3l-0.2,0.4
					c-1.9-0.6-4.1-1.2-5.2-3.1l-0.1-0.2c0.9-1,2.5-0.8,3.6-0.3l-0.6,0.6c-0.6-1.3-1.2-2.7-0.9-4.3c0.1-0.6,0.6-1.2,1.2-1.4h1.9
					c0.3,0,1,0,1.3,0c0.1,0,0.1,0,0.1,0c0,0.1,0-0.1-0.1-0.3c-1.7-2.8-5.6-3.2-8.6-2.6c-0.1-3.2,2.6-3.2,4.8-2l-0.4,0.9
					c-2.1-1.1-6.1-3.4-4.2-6.2c0.2-0.5,1-2,0.2-2.6c-0.5-0.3-2-0.2-2.6-0.2c1.1-0.7,2.3-1.7,3.7-1.6c1,0,1.6,1.3,1.5,2
					c0.1,0.5-0.1,1.2-0.8,0.9c-0.1-0.1-0.1-0.1-0.1-0.1l0,0l-0.1-0.1c-0.7-2.1-0.9-4.3-1.2-6.5c-0.3-2.8-0.6-5.6-0.4-8.4
					c0.1-0.9,0.1-1.9,0.7-2.9l0.5-0.9l0.4,1.1l1,3l-1,0.2c-0.1-1.8,0-4-1-5.5c-0.1-0.1-0.1-0.1-0.3,0l-0.4,0.2
					c-0.4-0.6-0.7-1.2-0.9-1.9c-0.9-2-0.5-4.3,2.2-4.2l-0.4,0.2c2.8-3,4.9-7.7,2.8-11.6c0.6-1.5,1-3.6,2.6-4.3
					c1.3-0.3,2,1.2,2.4,2.1l0,0.1v3.1l-0.9-0.3c1.6-1.9,6-8.1,8.6-7.1l-0.7,0.6c-0.9-2.5-1.6-5.5,0-7.9c0.6-0.8,1.4-1.4,2.2-1.7
					l0.1,1c-2.5-0.7-4.4-2.5-3.2-5.2c1,0.6,3,2,3.8,0.5c0.8-1.3,1.6-3.1,1-4.5l-0.2-0.4l0.4-0.2c2.2-1.4,4.3-0.1,4.8,2.3v0
					c0.1,0.2,0.2,0.5,0.3,0.7c0.1,0.2,0.3,0.4,0.2,0.3c-0.1,0,0.1,0,0.2-0.3c0.1-0.2,0.2-0.5,0.3-0.7l0,0.2
					c-0.2-6.2,6.2-9.8,11.3-11.5l-0.3,0.4c1.1-5.4,5.6-10.2,11.5-9.2l-0.3,0.5c-0.8-1.3-1.9-2.6-1.7-4.2c0.2-1.3,1.8-1.3,2.7-1.2
					c1.7,0.1,3,1.4,2.4,3.2l-0.2-0.1c0.4-1.5,0.9-3,1.7-4.4c0.3-0.5,0.6-0.9,0.9-1.2c-0.4,0.4-0.7,0.8-0.9,1.3
					c-0.7,1.4-1.1,2.9-1.5,4.5l-0.2-0.1c0.6-2.3-1.8-3.1-3.6-2.7c-2,0.6,0.2,3.5,1,4.5l0.5,0.6l-0.8-0.1c-5.4-0.7-9.4,3.9-10.5,8.8
					l-0.1,0.3l-0.3,0.1c-4.8,1.6-10.8,4.9-10.6,10.6c-0.6,2.3-2.2,2.3-3,0.1c-0.4-1.8-1.6-2.8-3.2-1.7l0.2-0.6c0.5,1,0.4,2,0.1,3
					c-1.1,3.4-2.4,4.8-5.9,2.7l0.8-0.3c-0.8,2.5,2.3,3.3,4.1,3.8l-1.4,0.6c-1.5,0.6-2.4,1.9-2.5,3.5c-0.2,2.2,0.6,4.4,1.4,6.3
					l-1.3-0.9c-0.1-0.1-0.5,0-0.9,0.2c-1.1,0.6-2.1,1.6-3,2.5c-1.6,1.6-3,3.5-4.4,5.3c0-1,0-3.5,0-4.5l0,0.2
					c-0.3-0.6-0.6-1.5-1.2-1.5c-1.1,0.7-1.5,2.3-1.9,3.4l0-0.4c2.2,4.4-0.1,9.5-3.2,12.7c-2.8-0.2-1.6,2.7-0.8,4.2l-0.6-0.2
					c3.3-1.2,2.6,7.8,2.8,9.7l-1-3.1l-1-3l0.9,0.1c-1.2,3.2-0.4,7.2-0.1,10.7c0.3,2,0.5,4.2,1.1,6.1c0-0.1,0,0-0.1-0.1
					c-0.3-0.2-0.6,0-0.7,0.2c0.2-1.8-1.1-1.4-2.2-0.8l-0.3-0.9c1.9-0.1,2.5,1.5,1.9,3.1c-0.1,0.4-0.3,0.8-0.5,1.2
					c-0.3,0.4-0.4,0.9-0.2,1.3c0.7,1.6,2.5,2.6,4,3.4l-0.4,0.9c-1.1-0.6-3.2-1.2-3.3,0.6l-0.6-0.5c2.9-0.4,6.4,0.1,8.5,2.5
					c0.9,1,1,2.7-0.8,2.5c-0.6,0-2,0-2.6,0l0.2-0.1c-0.7,0.3-0.7,1.2-0.6,1.9c0.1,1.2,0.7,2.5,1.2,3.6c-1-0.6-2.5-1.5-3.6-0.7
					l0.1-0.4c0.9,1.6,3,2.4,4.8,2.9L170,123c-0.4-0.2-0.8-0.4-1.2-0.2c-0.3,0.1-0.5,0.6-0.5,1l0-0.1c0.4,0.7,0.8,1.4,1.4,1.9
					c0.6,0.4,1.5,0.3,2.2-0.2C173.1,124,174.6,122.7,175.7,125L175.7,125L175.7,125L175.7,125z"/>
				<path class="st0" d="M177.5,122.2c-2.8-3.1-4-7.6-2.7-11.6c0.6-1.4,1.2-2.9,0.9-4.4c-0.1-0.5-0.4-1-0.9-1.2
					c0.5,0.2,0.8,0.7,0.9,1.2c0.3,1.5-0.3,3.1-0.8,4.5c-1.1,3.9,0.2,8.2,2.9,11.2C178.1,122,177.7,122.4,177.5,122.2L177.5,122.2
					L177.5,122.2z"/>
				<path class="st1" d="M198.7,51.4c0,0-6.6-0.9-6.6-3.9l-1,3c0,0,0-4-3-2c0,0,3,6-5,12c0,0-5,0-6,3c0,0,4.3-3,7.2,2.5"/>
				<path class="st0" d="M181.6,57.8c-0.2-0.2-0.1-0.3-0.1-0.5c-0.3-3.1,1-6.3,3.6-8.1C188.4,52.2,184.3,56,181.6,57.8
					C181.6,57.8,181.6,57.8,181.6,57.8z M182.4,57.2c2.1-1.6,5.2-5,2.6-7.5h0.3C183,51.4,182.1,54.4,182.4,57.2
					c0.1,0,0.1,0.2,0.1,0.2C182.5,57.4,182.5,57.2,182.4,57.2L182.4,57.2L182.4,57.2z"/>
				<path class="st0" d="M181.1,69.5c-3.2-5.5-6.7-2.9-9.4,1.3c-0.8,1.2-1.5,2.5-2.2,3.9l-0.9-0.4c0.5-1.1,1-2.6,2.4-2.9
					c1.1,0,1.3,1.2,1.5,1.9l-0.8-0.3c0.6-0.5,3.3-2.5,3.8-2.9c0,1.7,0,3.8,0,5.4l-0.7-0.4c2.4-1.1,4.1,0.3,3.9,2.9
					c-0.4-2.8-2-3.2-4.1-1.6c-0.2-1.4-0.1-3.8-0.1-5.3l0.8,0.4c-0.4,0.3-3.2,2.5-3.6,2.8c-0.1-0.5-0.3-1.4-0.6-1.8
					c-0.1-0.1-0.1-0.1-0.1-0.1c-0.7,0.4-1.1,1.5-1.5,2.2l-0.9-0.4c0.7-1.3,1.4-2.7,2.2-4C173.6,65.6,179,62.3,181.1,69.5L181.1,69.5
					L181.1,69.5z"/>
				<path class="st0" d="M168.1,76.5c-0.4,2.9,1.1,5.7,3.1,7.7c0.8,0.8,2,1.7,2.9,2.4l-0.8,0.3c-3.3,1.6-6.7,4.6-6.7,8.5l-0.9-0.3
					c2.2-3.3,6.3-7.5,10.4-4.6c-1.4-0.6-2.9-0.5-4.2,0.3c-2.8,1.2-4.7,3.9-6.3,6.4l0.1-1.8c0-4.4,3.6-7.7,7.3-9.5l-0.1,0.9l-1.2-0.9
					C168.9,83.8,166.5,80,168.1,76.5L168.1,76.5L168.1,76.5z"/>
				<path class="st0" d="M175.1,95.5c-2.4-2.7-4.2-1.5-5.6,1.2c-2.1,4.2,0.1,9.2,2,13l-0.8-0.2c1.4-1.3,2.1-3.2,2.1-5.1
					c0-0.7-0.1-1.3-0.2-2c0.2-1.1,0.3-2.7,1.4-3.2c0.5-0.1,0.8,0.2,1.1,0.5c-0.3-0.2-0.7-0.4-1-0.2c-0.8,0.5-0.5,2.4-0.5,2.8
					c0.6,2.8,0,6-2.2,8l-0.5,0.4l-0.3-0.6c-1.9-3.7-3.6-8-2.7-12.2c0.2-1,0.8-1.8,1.2-2.7C170.9,92.3,173.6,92.4,175.1,95.5
					L175.1,95.5L175.1,95.5z"/>
				<path class="st0" d="M197.1,39.5c-4.7,3.8-3.6,6.6,1.8,8.5l-0.7,0.6c-0.5-1.8-0.8-3.7,0.2-5.4c0.4-0.6,0.9-1,1.6-1.2l-0.1,0.1
					c1.9-1.6,3.6-4.4,1-6.2c-1.3-0.4-4.1-1.1-4.3,1.6l-0.6-0.3c0.7-0.5,2.1-1.2,2.6-0.1c0.1,0.3,0.2,0.6,0.2,0.9
					c-0.6-2.1-2.1-0.5-3,0.5v-1c-0.3-2.4,1.8-3.3,3.9-2.9c0.6,0.1,1.2,0.2,1.8,0.5c0.6,0.5,1.2,1,1.5,1.8c0.9,2.3-0.8,4.6-2.5,6
					l-0.1,0l-0.1,0c-0.9,0.3-1.4,1.2-1.5,2.2c-0.1,1.4,0.2,2.8,0.6,4.1c-1.4-0.5-2.7-1-4-1.9C191.3,44.8,193.2,41.2,197.1,39.5
					L197.1,39.5L197.1,39.5z"/>
				<path class="st0" d="M212.1,42.5c0.2-3.1-1.8-5.7-4.7-6.8l0.2-0.5c0.5-1.1,1.3-3.3-0.6-3.3l-1-0.1c1.1-1.3,3.8-5.2,5.4-2.7
					l-0.9,0.3c-0.4-2.5-2-3.9-4.4-2.2c-0.6,0.4-1.2,1-1.8,1.5l0.1-0.5c0.3,1.2,0.6,2.3,0.6,3.6c0,1.3-0.3,2.7-1.5,3.5l0.2-0.5
					c0.6,1.7,2.1,3,3.5,4.1C208.8,40.3,210.5,41.4,212.1,42.5L212.1,42.5L212.1,42.5z M212.1,42.5c-3.7-1.5-7.9-3.6-9.3-7.7
					c2.1-1.2,1.3-4.5,0.7-6.4l0.2-0.2c3-3.2,6.8-4,7.9,1.3l0.4,2.3l-1.4-2c-0.2-0.3-0.2-0.3-0.5-0.3c-1.1,0.4-1.9,1.5-2.6,2.3
					l-0.4-0.8c2.8,0,2.4,3,1.4,4.7l-0.3-0.7C211.4,36.1,213,39.5,212.1,42.5L212.1,42.5L212.1,42.5z"/>
				<path class="st0" d="M212.2,23.3c2.1,1.1,3.5,3.1,3.6,5.5c0.2,2.5-1.5,4.5-3.3,5.9l0-0.8c2.5,2.3,4.4,6,2.8,9.3
					c0-3.2-1-6.4-3.5-8.5l-0.4-0.4C216.2,30.7,215.3,27.8,212.2,23.3L212.2,23.3L212.2,23.3z"/>
			</g>
			<g>
				<path class="st0" d="M257.8,124.8c1.2-2.4,2.6-0.9,3.8,0.3c1.5,1.2,3-0.2,3.6-1.6l0,0.1c0-0.4-0.2-0.9-0.5-1
					c-0.4-0.2-0.8,0.1-1.2,0.2l-0.2-0.4c1.7-0.5,3.8-1.3,4.8-2.9l0.1,0.4c-1.1-0.8-2.6,0.1-3.6,0.7c0.6-1.3,2.2-4.4,0.6-5.5l0.2,0.1
					c-0.6,0-2,0-2.6,0c-1.8,0.2-1.8-1.5-0.8-2.5c2.1-2.4,5.6-2.9,8.5-2.5l-0.6,0.5c-0.1-1.8-2.1-1.2-3.3-0.6l-0.4-0.9
					c1.5-0.8,3.3-1.8,4-3.3c0.2-0.5,0.1-0.9-0.2-1.3c-0.2-0.4-0.4-0.8-0.5-1.2c-0.6-1.6,0-3.2,1.9-3.1L271,101
					c-0.3-0.2-0.7-0.4-1.1-0.5c-1-0.3-1.1,0.5-1.1,1.3c-0.1-0.3-0.4-0.4-0.7-0.3c-0.1,0.1-0.1,0.1-0.1,0.1c0,0,0,0,0,0.1
					c0.5-1.9,0.8-4.1,1.1-6.1c0.2-3.4,1.1-7.4-0.1-10.7l0.9-0.1l-1,3l-1,3.1c0.1-1.8-0.6-10.9,2.8-9.7l-0.6,0.2
					c0.9-1.5,2.1-4.5-0.8-4.2c-3.1-3.3-5.5-8.3-3.2-12.7l0,0.4c-0.2-0.7-1.3-4-2.3-3.3c-0.3,0.3-0.6,0.8-0.8,1.3l0-0.2v4.5
					c-1.4-1.8-2.8-3.7-4.4-5.3c-0.9-0.9-1.9-1.9-3-2.5c-0.4-0.2-0.7-0.3-0.9-0.2l-1.3,0.9c0.8-2,1.7-4.2,1.4-6.3
					c-0.1-1.6-1-3-2.5-3.5l-1.4-0.6c1.8-0.4,4.9-1.3,4.1-3.8l0.8,0.3c-3.4,2.1-4.8,0.7-5.9-2.7c-0.2-0.9-0.4-2,0.1-3l0.2,0.6
					c-1.6-1-2.9-0.1-3.2,1.7c-0.8,2.3-2.4,2.2-3-0.1c0.2-5.7-5.9-9-10.6-10.6l-0.3-0.1l-0.1-0.3c-1-4.8-5.1-9.5-10.5-8.8l-0.8,0.1
					c0.8-0.9,1.5-1.9,2-3c0.3-0.8,0.5-1.9-0.5-2.1c-1.8-0.4-4.3,0.3-3.6,2.7l-0.2,0.1c-0.4-1.5-0.8-3.1-1.5-4.5
					c-0.2-0.5-0.5-0.9-0.9-1.3c0.4,0.3,0.7,0.8,0.9,1.2c0.8,1.4,1.2,2.9,1.7,4.4l-0.2,0.1c-0.3-1-0.1-2.2,0.9-2.7
					c0.5-0.3,1-0.4,1.5-0.4c1-0.1,2.5-0.1,2.7,1.2c0.1,1.6-0.9,2.9-1.7,4.2l-0.3-0.5c5.9-1,10.4,3.8,11.5,9.2l-0.3-0.4
					c5.1,1.7,11.5,5.3,11.3,11.5l0-0.2c0.1,0.3,0.2,0.5,0.3,0.7c0.1,0.2,0.3,0.3,0.2,0.3c-0.1,0,0.1-0.1,0.2-0.3
					c0.1-0.2,0.2-0.5,0.3-0.7v0c0.4-2.4,2.5-3.7,4.8-2.3l0.4,0.2l-0.2,0.4c-0.6,1.4,0.2,3.3,1,4.5c0.8,1.4,2.8,0.1,3.8-0.5
					c1.2,2.7-0.6,4.5-3.2,5.2l0.1-1c0.9,0.3,1.7,0.9,2.2,1.7c1.6,2.4,1,5.4,0,7.9l-0.7-0.6c2.6-1,7.1,5.3,8.6,7.1l-0.9,0.3v-3.1
					c1.9-4.7,4.3-0.8,5,2.1c-2.1,3.9,0,8.6,2.8,11.6l-0.4-0.2c3.6,0,2.7,3.7,1.4,5.8l-0.2,0.3l-0.5-0.2c-0.2-0.1-0.2-0.1-0.3,0
					c-1,1.5-0.9,3.7-1,5.5l-1-0.2l1-3l0.4-1.1l0.5,0.9c0.6,1,0.6,2,0.7,2.9c0.2,2.8-0.1,5.6-0.4,8.4c-0.3,2.2-0.5,4.4-1.2,6.5
					l-0.1,0.1l0,0c0,0,0,0-0.1,0.1c-0.7,0.3-0.9-0.4-0.8-0.9c-0.1-0.8,0.5-2,1.5-2c1.4-0.1,2.6,1,3.7,1.6c-0.6,0.1-2.1-0.2-2.6,0.2
					c-0.7,0.6,0.1,2.1,0.2,2.6c1.9,2.8-2.1,5.1-4.2,6.2l-0.4-0.9c2.2-1.2,4.9-1.2,4.8,2c-3-0.5-6.9-0.2-8.6,2.6
					c-0.1,0.2,0,0.3-0.1,0.3c0,0,0,0,0.1,0c0.3,0,1,0,1.3,0h1.9c0.6,0.2,1,0.8,1.2,1.4c0.3,1.5-0.3,2.9-0.9,4.3l-0.5-0.6
					c1.1-0.6,2.7-0.7,3.6,0.3l-0.1,0.2c-1.1,1.8-3.3,2.5-5.2,3.1l-0.2-0.4c0.5-0.2,1-0.4,1.6-0.2c0.5,0.3,0.8,0.9,0.7,1.5
					c-0.7,1.5-2.4,3.1-4,1.6C260.3,123.9,259,122.5,257.8,124.8L257.8,124.8L257.8,124.8L257.8,124.8z"/>
				<path class="st0" d="M255.6,121.7c2.7-2.9,4-7.3,3-11.2c-0.5-1.3-1.1-3-0.8-4.5c0.1-0.5,0.4-1,0.9-1.2c-0.5,0.2-0.8,0.7-0.9,1.2
					c-0.2,1.5,0.4,3,0.9,4.4c0.6,2,0.6,4.1,0.1,6.1c-0.5,2-1.5,3.9-2.9,5.5C255.7,122.3,255.4,121.9,255.6,121.7L255.6,121.7
					L255.6,121.7z"/>
				<path class="st1" d="M234.8,51.3c0,0,6.6-0.9,6.6-3.9l1,3c0,0,0-4,3-2c0,0-3,6,5,12c0,0,5,0,6,3c0,0-4.3-3-7.2,2.5"/>
				<path class="st0" d="M251.1,57c-0.1,0-0.1,0.3-0.1,0.2C251,57.2,251,57.1,251.1,57c0.3-2.8-0.6-5.7-2.9-7.5h0.3
					C245.9,52,248.9,55.4,251.1,57L251.1,57L251.1,57z M251.8,57.7c-2.7-1.7-6.8-5.5-3.5-8.6c2.6,1.8,3.9,5,3.6,8.1
					C251.9,57.3,252,57.4,251.8,57.7C251.8,57.7,251.8,57.7,251.8,57.7z"/>
				<path class="st0" d="M252.3,69.4c2.1-7.2,7.4-3.9,10.2,0.8c0.8,1.3,1.5,2.6,2.2,4l-0.9,0.4c-0.4-0.8-0.8-1.8-1.5-2.2
					c0,0,0,0-0.1,0.1c-0.3,0.4-0.5,1.3-0.6,1.8c-0.4-0.3-3.2-2.4-3.6-2.8l0.8-0.4c0,1.5,0.1,3.9-0.1,5.3c-2.1-1.7-3.7-1.2-4.1,1.6
					c-0.2-2.6,1.5-4,4-2.9l-0.7,0.4c0-1.6,0-3.8,0-5.4c0.5,0.4,3.2,2.5,3.8,2.9l-0.8,0.3c0.2-0.7,0.5-1.9,1.5-1.9
					c1.4,0.2,1.9,1.8,2.4,2.9l-0.9,0.4c-0.7-1.3-1.4-2.6-2.2-3.9C259,66.5,255.5,63.8,252.3,69.4L252.3,69.4L252.3,69.4z"/>
				<path class="st0" d="M265.3,76.4c1.6,3.5-0.8,7.3-3.5,9.5l-1.2,0.9l-0.1-0.9c3.7,1.8,7.3,5.1,7.3,9.5l0.1,1.8
					c-1.6-2.5-3.5-5.2-6.3-6.4c-1.3-0.7-2.8-0.8-4.2-0.3c4.1-2.9,8.2,1.4,10.4,4.6l-0.9,0.3c0-3.9-3.4-7-6.7-8.5l-0.8-0.3
					c0.9-0.7,2.1-1.6,2.9-2.4C264.2,82,265.8,79.3,265.3,76.4L265.3,76.4L265.3,76.4z"/>
				<path class="st0" d="M258.3,95.4c1.5-3.1,4.2-3.2,5.9-0.2c0.5,0.9,1,1.6,1.2,2.7c0.9,4.2-0.8,8.5-2.7,12.2l-0.3,0.6l-0.5-0.4
					c-2.2-2-2.8-5.2-2.2-8c0-0.4,0.2-2.3-0.5-2.8c-0.3-0.2-0.6,0-1,0.2c0.3-0.2,0.6-0.6,1-0.5c1.2,0.5,1.3,2.1,1.5,3.2
					c-0.1,0.7-0.2,1.3-0.2,2c0,1.8,0.7,3.8,2,5.1l-0.8,0.2c1.9-3.9,4.1-8.9,2-13C262.5,93.9,260.7,92.6,258.3,95.4L258.3,95.4
					L258.3,95.4z"/>
				<path class="st0" d="M236.3,39.4c3.9,1.6,5.8,5.3,1.6,8c-1.2,0.8-2.6,1.3-4,1.9c0.5-1.7,1.1-3.9,0.2-5.5
					c-0.3-0.5-0.7-0.7-1.2-0.9c-2.5-2-4.1-5.7-0.9-7.9c2.3-1,5.9-0.8,5.6,2.5v1c-0.9-1-2.3-2.6-3-0.5c0-0.3,0.1-0.6,0.2-0.9
					c0.5-1.1,1.9-0.4,2.6,0.1l-0.6,0.3c-0.3-2.8-3-2-4.3-1.6c-2.6,1.8-0.9,4.6,1,6.2l-0.1-0.1c0.6,0.2,1.2,0.7,1.6,1.2
					c0.9,1.7,0.6,3.6,0.2,5.4l-0.7-0.6C239.9,45.9,241,43.1,236.3,39.4L236.3,39.4L236.3,39.4z"/>
				<path class="st0" d="M221.3,42.4c-0.9-3,0.7-6.4,3.8-7.5l-0.3,0.7c-0.9-1.8-1.3-4.7,1.4-4.7l-0.4,0.8c-0.7-0.9-1.6-2-2.6-2.3
					c-0.3-0.1-0.3,0-0.5,0.3l-1.4,2l0.4-2.3c1-5.3,4.8-4.5,7.9-1.3l0.2,0.2c-0.6,2-1.4,5.2,0.7,6.4
					C229.3,38.8,225.1,40.8,221.3,42.4L221.3,42.4L221.3,42.4z M221.3,42.4c1.6-1,3.3-2.2,4.7-3.5c1.4-1.1,2.9-2.5,3.5-4.2l0.2,0.5
					c-1.2-0.8-1.5-2.2-1.5-3.5c0-1.2,0.2-2.4,0.6-3.6l0.1,0.5c-0.6-0.5-1.1-1.1-1.8-1.5c-2.4-1.7-3.9-0.3-4.4,2.2l-0.9-0.3
					c1.6-2.5,4.4,1.4,5.4,2.7l-1,0.1c-1.9,0-1,2.2-0.6,3.3l0.2,0.5C223.2,36.6,221.1,39.3,221.3,42.4L221.3,42.4L221.3,42.4z"/>
				<path class="st0" d="M221.3,23.2c-3.2,4.5-4.1,7.4,0.8,11l-0.4,0.4c-2.4,2.1-3.4,5.4-3.5,8.5c-1.6-3.3,0.3-7,2.8-9.3l0,0.8
					c-1.8-1.4-3.5-3.4-3.3-5.9C217.8,26.3,219.2,24.2,221.3,23.2L221.3,23.2L221.3,23.2z"/>
			</g>
			<path class="st0" d="M255.9,121.3c2.7-2.9,4-7.3,2.9-11.2c-0.5-1.3-1.1-3-0.8-4.5c0.1-0.5,0.4-1,0.9-1.2
				c-0.5,0.2-0.8,0.7-0.9,1.2c-0.2,1.5,0.4,3,0.9,4.4c0.6,2,0.6,4.1,0.1,6.1c-0.5,2-1.5,3.9-2.9,5.5
				C256.1,121.9,255.7,121.5,255.9,121.3L255.9,121.3L255.9,121.3z"/>
			<path class="st0" d="M257.6,138.5c-2,5.2-5.9,8.3-9.4,10.1c3.9-2.3,7-5.8,8.4-10.1c2.5-7.1-0.4-13.3-1-14.6
				c-0.5-0.9-1.5-2.6-3.1-4.2c-1-1.1-2.4-2.3-4-3.2l0.3-0.9c1,0.6,2.6,1.6,4.1,3C257,122.3,261.2,128.7,257.6,138.5L257.6,138.5z"/>
			<path class="st0" d="M191.9,56c-1.5-0.7-3.2,0-3.8,1.5c0.3-1.9,2.3-2.9,4.2-2.5C193,55.2,192.6,56.3,191.9,56L191.9,56L191.9,56z
				"/>
			<path class="st0" d="M241.5,56L241.5,56c-0.7,0.3-1-0.8-0.3-1c1.8-0.5,3.8,0.6,4.2,2.5C244.7,55.9,243,55.3,241.5,56L241.5,56
				L241.5,56z"/>
			<path class="st1" d="M257.1,95.9c0,7.8-1.5,15.2-4.1,21.8c-0.1,0.4-0.3,0.8-0.5,1.1c-1-1.1-2.4-2.3-4-3.2l0.3-0.9
				c2.1-5.6,3.2-11.9,3.2-18.5c0-24.5-15.9-44.3-35.5-44.3s-35.5,19.9-35.5,44.3c0,12.7,4.3,24.1,11.1,32.2
				c-1.3,2.2-2.1,4.2-2.1,4.2c-0.1,0.2-0.2,0.3-0.4,0.5c-8.4-9.1-13.6-22.3-13.6-37.1c0-27.4,18.1-49.6,40.5-49.6
				S257.1,68.5,257.1,95.9L257.1,95.9L257.1,95.9z"/>
			<g>
				<path class="st0" d="M225.6,61.2c-1,1.4-2.1,2.7-3.1,4l-3.4,3.6l-6.9,7.3c-2.3,2.4-8.1,8.6-10.3,10.9c-1.3,1.1-2.5,2.2-3.8,3.3
					c1-1.3,2.1-2.7,3.1-4c2.2-2.3,8.1-8.5,10.3-10.9l6.9-7.3l3.4-3.6C223.1,63.4,224.4,62.3,225.6,61.2L225.6,61.2L225.6,61.2z"/>
				<path class="st0" d="M244.8,74.1c-1.4,1.8-2.9,3.5-4.3,5.2c-3,3.1-11,11.5-14.1,14.7c-3.1,3.2-11.1,11.6-14.1,14.7
					c-1.7,1.5-3.4,3.1-5.1,4.6c4.7-6.1,13.1-14.2,18.4-19.9c3.1-3.2,11.1-11.6,14.1-14.7C241.4,77.2,243,75.6,244.8,74.1L244.8,74.1
					L244.8,74.1z"/>
				<path class="st0" d="M238.2,89.6c-1,1.3-2,2.6-3,3.9l-3.4,3.6l-6.8,7.2l-6.8,7.2l-3.4,3.6c-1.2,1.1-2.5,2.2-3.8,3.2
					c1-1.3,2-2.6,3-3.9c2.1-2.3,8-8.4,10.2-10.8l6.8-7.2l3.4-3.6C235.8,91.8,237,90.7,238.2,89.6L238.2,89.6L238.2,89.6z"/>
			</g>
		</g>
		<g id="_شمعدان">
			<path class="st1" d="M293.1,29.5v6.4l-5-2.4v52h-7c0,0-2,0,1,2s6,5,4,12c0,0,6,7,4,12c0,0-3,1-3,5s2,7,2,7s1.4,8.6-2.3,21.8
				c-3.7,13.2-2.7,20.2-2.7,20.2"/>
			<path class="st1" d="M293.1,35.6l5,2.9v47h7c0,0,2,0-1,2s-6,5-4,12c0,0-6,7-4,12c0,0,3,1,3,5s-2,7-2,7s-1.4,8.6,2.3,21.8
				c0.8,2.8,1.3,5.3,1.8,7.5"/>
			<path class="st0" d="M293.7,62.8c0.2,0.7,0.3,1.5,0.2,2.3v4.5c0,0.8,0,1.5-0.2,2.3c-0.2-0.8-0.3-1.5-0.2-2.3V65
				C293.4,64.2,293.5,63.5,293.7,62.8L293.7,62.8z"/>
			<path class="st0" d="M293.7,41.7c0.2,1.1,0.3,2.8,0.2,3.9v3.9c0,2.3,0.2,5.7-0.2,7.9c-0.4-2.2-0.2-5.6-0.2-7.9v-3.9
				C293.4,44.5,293.5,42.9,293.7,41.7L293.7,41.7z"/>
			<path class="st1" d="M291.1,30.5c-2-2,0-5,1-7.3s0-5.7,0-5.7s9,8,3,14"/>
			<g>
				<g>
					<path class="st1" d="M269.6,219.4c0,0-0.5-3.9,2.5-3.9c0,0,19-6,17-12"/>
					<path class="st1" d="M292.6,203.6c-3,0-5.5-1.1-5.5-2.5s2.5-2.5,5.5-2.5"/>
					<path class="st1" d="M289.1,194.6c0,0-1,3,3,4"/>
					<line class="st3" x1="293.1" y1="215.6" x2="272.5" y2="215.6"/>
					<line class="st3" x1="269.6" y1="219.8" x2="293.1" y2="219.8"/>
				</g>
				<g>
					<path class="st1" d="M315.4,219.4c0,0,0.5-3.9-2.5-3.9c0,0-19-6-17-12"/>
					<path class="st1" d="M292.4,203.6c3,0,5.5-1.1,5.5-2.5s-2.5-2.5-5.5-2.5"/>
					<path class="st1" d="M295.9,194.6c0,0,1,3-3,4"/>
					<line class="st3" x1="291.9" y1="215.6" x2="312.4" y2="215.6"/>
					<line class="st3" x1="315.4" y1="219.8" x2="291.9" y2="219.8"/>
				</g>
			</g>
		</g>
	</g>
</g>
</svg>
