<?xml version="1.0" encoding="UTF-8"?>
<svg id="Layer_2" data-name="Layer 2" xmlns="http://www.w3.org/2000/svg" viewBox="0 0 500 500">
  <defs>
    <style>
      .cls-1, .cls-2 {
        stroke-width: 0px;
      }

      .cls-2 {
        fill: none;
      }
    </style>
  </defs>
  <g id="Layer_2-2" data-name="Layer 2">
    <rect class="cls-2" width="500" height="500"/>
    <g id="logo">
      <path class="cls-1" d="m444.9,85.04c-94.85-33.77-162.87,87.83-178,117.88-3.03-.53-6.05-.44-8.9.24,40.09-111.51,126.45-153.69,186.9-118.12Z"/>
      <path class="cls-1" d="m400.98,224.12c-44.97,22.48-105.44,18.19-119.57,16.8,1.13-2.06,2-4.02,2.65-5.86,100.89-2.4,133.39-47.54,133.39-47.54,0,0,45.75-45.75,17.39-80.71-27.48-33.86-81.58-2.12-84.94-.1,67.63-45.78,115.13-14.32,116.96,20.42,1.83,34.77-14.64,71.37-65.88,96.99Z"/>
      <path class="cls-1" d="m402.81,172.88c-18.84,46.24-98.57,58.82-117.73,58.75.08-.28.14-.56.19-.83,16.31-3.46,89.26-21.35,104.27-67.79,0,0,5.95-32.22-30.65-26.73-35,5.25-70.01,42.3-87.4,67.94-.17-.07-.34-.14-.51-.2,8.23-16.31,44.86-81.98,101.7-83.02,0,0,50.26,2.47,30.13,51.88Z"/>
      <path class="cls-1" d="m264.28,255.51c-.18.17-.36.33-.54.49,0-.01-.01-.02-.01-.03.19-.15.37-.3.55-.46Z"/>
      <path class="cls-1" d="m369.51,329.44c-3.64,7.36-10.06,10.72-12.45,11.81-1.73.78-8.15,3.47-18.67,1.46-15.79-3.02-28.24-14.24-38.06-25.25-9.75-10.94-23.95-29.59-35.06-57.51,2.2-1.91,4.17-3.78,5.94-5.6,17.4,42.88,53.68,77.68,73.04,75.92,6.4-.59,9.38-4.1,9.38-4.1,4.27-4.97,2.33-13.01,1.6-16.03-4.97-20.6-29.25-35.98-42.09-43.93-8.47-5.24-20.7-11.98-36.51-18.06.26-.33.51-.66.75-.99,19.01,3.56,41.74,11,63.21,26.37,28.12,20.14,30.73,37.14,31.11,40.27.33,2.7,1.1,8.99-2.19,15.64Z"/>
      <path class="cls-1" d="m413.79,337.59c-5.49,21.96-34.77,40.26-69.54,27.45,0,0,43.92,9.15,49.41-31.11,5.36-44.67-53.83-82.37-114.54-89.23.53-.79,1.01-1.56,1.46-2.32,71.8,4.44,116.97,26.18,131.38,58.61,0,0,7.32,14.64,1.83,36.6Z"/>
      <path class="cls-1" d="m364.38,427.26s-93.38-61.67-107.26-160.81c2.05-1.5,3.96-2.99,5.74-4.46,6.96,22.41,49.79,111.03,114.33,123.18-13.12,9.54-18.34,23.09-12.81,42.09Z"/>
      <path class="cls-1" d="m242.17,203.6c-2.9-.93-6.02-1.24-9.17-.87-15.32-30.37-83.25-151.39-177.9-117.69,60.53-35.61,147.03,6.72,187.07,118.56Z"/>
      <path class="cls-1" d="m214.46,235.02c.67,1.89,1.57,3.91,2.74,6.03-16.34,1.49-74.56,4.88-118.18-16.93-51.24-25.62-67.71-62.22-65.88-96.99,1.83-34.74,49.33-66.2,116.96-20.42-3.36-2.02-57.46-33.76-84.94.1-28.36,34.96,17.39,80.71,17.39,80.71,0,0,32.19,44.7,131.91,47.5Z"/>
      <path class="cls-1" d="m221.63,240.59s-.04.01-.13.02c-.32-.53-.62-1.04-.89-1.55l1.02,1.53Z"/>
      <path class="cls-1" d="m217.97,231.44c-.14.02-.29.04-.46.06-.01-.05-.03-.1-.04-.15.33.06.5.09.5.09Z"/>
      <path class="cls-1" d="m228.81,203.61c-.18.05-.35.1-.53.16-.02.01-.04.01-.06.02-17.49-25.62-52.3-62.29-87.11-67.51-36.6-5.49-30.65,26.73-30.65,26.73,14.58,45.12,83.86,63.29,102.74,67.45.07.37.15.76.25,1.15-21.45-.53-97.87-13.59-116.26-58.73-20.13-49.41,30.13-51.88,30.13-51.88,56.37,1.03,92.87,65.64,101.49,82.61Z"/>
      <path class="cls-1" d="m228.36,255.39c1.79,1.79,3.79,3.62,6,5.49-11.05,27.41-25.05,45.76-34.69,56.58-9.82,11.01-22.27,22.23-38.06,25.25-10.52,2.01-16.94-.68-18.67-1.46-2.39-1.09-8.81-4.45-12.45-11.81-3.29-6.65-2.52-12.94-2.19-15.64.38-3.13,2.99-20.13,31.11-40.27,21-15.02,43.19-22.48,61.94-26.13.29.39.59.79.9,1.18-15.27,5.97-27.12,12.52-35.39,17.63-12.84,7.95-37.12,23.33-42.09,43.93-.73,3.02-2.67,11.06,1.6,16.03,0,0,2.98,3.51,9.38,4.1,19.2,1.75,55.06-32.48,72.61-74.88Z"/>
      <path class="cls-1" d="m106.34,333.93c5.49,40.26,49.41,31.11,49.41,31.11-34.77,12.81-64.05-5.49-69.54-27.45-5.49-21.96,1.83-36.6,1.83-36.6,14.32-32.22,58.99-53.88,129.97-58.52.47.78.97,1.57,1.51,2.38-60.23,7.27-118.5,44.74-113.18,89.08Z"/>
      <path class="cls-1" d="m236.84,262.93c1.83,1.48,3.79,2.97,5.9,4.49-14.35,98.57-107.12,159.84-107.12,159.84,5.53-19,.31-32.55-12.81-42.09,63.67-11.99,106.21-98.4,114.03-122.24Z"/>
      <path class="cls-1" d="m272.98,246.38c-6.61,8.21-14.84,14.68-23.71,20.71-10.72-7.3-21-15.51-27.77-26.48.09-.01.13-.02.13-.02-1.97-2.75-3.42-6.46-4.12-9.09.17-.02.32-.04.46-.06-8.33-17.95,19.05-34.32,31.3-18.31,21.32-20.26,45.84,9.97,23.71,33.25Z"/>
    </g>
  </g>
</svg>