<svg width="430" height="85" viewBox="0 0 430 85" fill="none" xmlns="http://www.w3.org/2000/svg">
<g clip-path="url(#clip0_36_44)">
<path d="M406.4 13.2C402.2 6.7 398.2 3.9 397.4 3.4C395.426 1.96272 393.181 0.942019 390.8 0.399999C389.656 0.113453 388.479 -0.0210385 387.3 -9.34349e-07H285C286.393 3.76909 288.099 7.41511 290.1 10.9C292.369 14.9948 295.31 18.6794 298.8 21.8C300.666 23.5313 302.934 24.7688 305.4 25.4C306.225 25.582 307.06 25.7155 307.9 25.8L412.4 26C411.057 21.4552 409.034 17.1398 406.4 13.2ZM335.9 12.1C334.007 14.3051 332.487 16.8047 331.4 19.5H316C315.127 19.4156 314.258 19.2821 313.4 19.1C312.7 18.9 309.8 18.1 305.8 14.2C303.437 11.8757 301.386 9.2537 299.7 6.4H342.7C340.125 7.89861 337.825 9.82637 335.9 12.1ZM341.9 18.8C344.183 15.0118 347.471 11.9309 351.4 9.9C354.19 8.56454 357.151 7.62224 360.2 7.1C362.146 6.71907 364.119 6.48507 366.1 6.4L382.9 6.8C385.097 7.03619 387.25 7.57461 389.3 8.4C393.966 10.5193 397.749 14.1962 400 18.8H341.9Z" fill="white"/>
<path d="M422.6 35.8C419.774 33.4961 416.507 31.7946 413 30.8C411.717 30.5026 410.413 30.302 409.1 30.2H300.1C301.312 33.5593 302.818 36.8052 304.6 39.9C306.8 43.9 308.8 47.3 312.6 50.5C314.932 52.6159 317.748 54.1268 320.8 54.9C321.617 55.1042 322.457 55.205 323.3 55.2H409.2C410.508 55.1658 411.812 55.0321 413.1 54.8C416.522 54.0779 419.778 52.7211 422.7 50.8C425.525 48.8088 427.908 46.2555 429.7 43.3C427.732 40.451 425.337 37.9214 422.6 35.8ZM413 47.1C411.482 47.7171 409.908 48.1859 408.3 48.5C406.59 48.8803 404.85 49.1144 403.1 49.2H332.1C330.888 49.2154 329.679 49.081 328.5 48.8C322.5 47.4 318.8 42.8 317.5 41C316.493 39.5323 315.654 37.9557 315 36.3C363.7 36.2 399.3 36.2 403.2 36.3C404.95 36.3856 406.69 36.6198 408.4 37C410.03 37.3717 411.609 37.9427 413.1 38.7C415.303 39.8591 417.27 41.4191 418.9 43.3C417.133 44.8527 415.144 46.1334 413 47.1Z" fill="white"/>
<path d="M320.6 59.7C321.92 63.323 323.595 66.8066 325.6 70.1C327.904 74.1992 330.997 77.8018 334.7 80.7C336.201 81.9572 337.934 82.9084 339.8 83.5C341.388 83.9839 343.04 84.22 344.7 84.2H395.2C396.794 84.2201 398.381 83.9837 399.9 83.5C401.728 82.8886 403.424 81.9387 404.9 80.7C408.529 77.6749 411.579 74.0154 413.9 69.9C415.905 66.6413 417.58 63.1909 418.9 59.6L320.6 59.7ZM367.5 74.6C364.829 76.1983 361.928 77.3786 358.9 78.1C355.9 78.8 353.5 79.4 350.4 78.8C348.974 78.5302 347.593 78.0588 346.3 77.4C343.494 75.9884 341.009 74.0141 339 71.6C337.527 69.8665 336.284 67.9508 335.3 65.9H375.1C374.459 67.6016 373.547 69.1887 372.4 70.6C371.005 72.2017 369.348 73.5544 367.5 74.6ZM403.7 71.1C402.382 72.6179 400.907 73.9923 399.3 75.2C397.2 76.8 395.5 78.1 393 78.7C392.283 78.8977 391.543 78.9986 390.8 79H374.7C379.496 75.8597 383.062 71.1626 384.8 65.7H407.5C406.397 67.6096 405.125 69.4168 403.7 71.1Z" fill="white"/>
<path d="M8.39998 56.1C7.78025 58.2308 7.31241 60.4029 6.99998 62.6V62.9C6.97632 63.1502 7.04773 63.4001 7.19998 63.6C7.27666 63.7758 7.40228 63.9258 7.56185 64.0322C7.72142 64.1385 7.90822 64.1968 8.09998 64.2H33.8C34.8 64.2 35.4 63.7 35.4 62.8V56H42.6V61.3C42.6118 61.9643 42.7833 62.6159 43.1 63.2C43.3807 63.4584 43.713 63.6544 44.0749 63.7751C44.4369 63.8957 44.8204 63.9383 45.2 63.9H47.7V71.1H45.2C42.6 71.1 40.7 70.6 39.4 69.6C37.9832 70.4847 36.3673 71.0003 34.7 71.1C32.1051 71.3007 29.5017 71.3674 26.9 71.3H14.5C11.8628 71.3998 9.22194 71.2995 6.59998 71C5.57235 70.8562 4.58673 70.4968 3.70779 69.9453C2.82885 69.3938 2.07646 68.6627 1.49998 67.8C0.758657 66.6521 0.280558 65.3544 0.0999768 64C0.0168985 63.4709 -0.0165802 62.9353 -2.32281e-05 62.4C-0.0166121 61.765 0.0168246 61.1297 0.0999768 60.5C0.299977 59.2 0.599977 57.9 0.899977 56.6C1.02036 56.0207 1.18757 55.4522 1.39998 54.9C1.40338 54.7145 1.47452 54.5366 1.59998 54.4L1.69998 54.2L8.39998 56.1ZM17.1 54.3C16.0922 54.3 15.1256 53.8996 14.413 53.187C13.7003 52.4743 13.3 51.5078 13.3 50.5C13.2996 49.4908 13.6945 48.5216 14.4 47.8C14.7533 47.4432 15.1738 47.16 15.6373 46.9667C16.1007 46.7734 16.5979 46.6739 17.1 46.6739C17.6021 46.6739 18.0992 46.7734 18.5627 46.9667C19.0261 47.16 19.4466 47.4432 19.8 47.8C20.3367 48.3315 20.7029 49.0109 20.8517 49.7515C21.0005 50.4921 20.9252 51.2602 20.6354 51.9578C20.3456 52.6554 19.8545 53.2508 19.2248 53.6679C18.5951 54.0851 17.8553 54.3052 17.1 54.3ZM26.2 54.3C25.1922 54.3 24.2256 53.8996 23.513 53.187C22.8003 52.4743 22.4 51.5078 22.4 50.5C22.3996 49.4908 22.7945 48.5216 23.5 47.8C24.2138 47.0701 25.1798 46.6407 26.2 46.6C26.699 46.6 27.1931 46.6983 27.6542 46.8892C28.1152 47.0802 28.5341 47.3601 28.887 47.713C29.2398 48.0658 29.5198 48.4847 29.7107 48.9458C29.9017 49.4068 30 49.901 30 50.4C30.0004 51.4092 29.6055 52.3784 28.9 53.1C28.5683 53.4891 28.1535 53.7989 27.6863 54.0066C27.219 54.2143 26.7111 54.3145 26.2 54.3Z" fill="white"/>
<path d="M64.8 63.5C65.107 63.2297 65.3412 62.8866 65.481 62.5022C65.6208 62.1178 65.6617 61.7044 65.6 61.3V56H72.7V61.3C72.6513 61.634 72.6704 61.9745 72.7564 62.3009C72.8423 62.6274 72.9931 62.9332 73.2 63.2C73.5002 63.4596 73.85 63.6555 74.2281 63.7758C74.6063 63.8961 75.005 63.9384 75.4 63.9C77 63.9 77.9 63.3 77.9 62.2C77.9213 61.9293 77.8873 61.6571 77.8 61.4C77 58 76.4 55.7 76.2 54.5L83.1 52.8C83.5 54.6 84.1 56.8 84.7 59.7C84.8653 60.3531 84.9328 61.0271 84.9 61.7C84.9 62.3 84.8 62.9 84.8 63.4C84.4364 65.5512 83.3232 67.5044 81.6577 68.9137C79.9922 70.323 77.8817 71.0974 75.7 71.1C74.2694 71.1189 72.8471 70.8818 71.5 70.4C70.6398 70.0883 69.831 69.6501 69.1 69.1C67.4042 70.3926 65.3322 71.095 63.2 71.1C61.0037 71.1115 58.8631 70.4097 57.1 69.1C55.9 70.4 53.8 71.1 50.8 71.1H46.6V63.9H50.8C51.195 63.9384 51.5937 63.8961 51.9718 63.7758C52.35 63.6555 52.6998 63.4596 53 63.2C53.4068 62.6555 53.5861 61.9742 53.5 61.3V56H60.6V61.3C60.5559 61.7035 60.6052 62.1117 60.7439 62.4931C60.8826 62.8746 61.1071 63.219 61.4 63.5C61.875 63.8153 62.43 63.9887 63 64C63.6372 64.023 64.2659 63.8484 64.8 63.5Z" fill="white"/>
<path d="M99.9 71.2H97.9C96.4301 71.1952 94.9733 70.9241 93.6 70.4C92.672 69.9869 91.8253 69.4112 91.1 68.7C90.3652 67.9557 89.7871 67.0716 89.4 66.1C88.8155 64.7413 88.5094 63.2791 88.5 61.8V39.8H95.6V61.8C95.5509 62.1183 95.57 62.4435 95.6562 62.7538C95.7425 63.0642 95.8937 63.3526 96.1 63.6C96.3508 63.8004 96.6396 63.948 96.9489 64.034C97.2582 64.1199 97.5818 64.1424 97.9 64.1H99.9V71.2Z" fill="white"/>
<path d="M132 55.3C133.9 57.707 135.017 60.6387 135.2 63.7V64.4C135.249 66.8521 134.395 69.2365 132.8 71.1C130.9 73.4 128 74.5 124.1 74.5C121.421 74.3881 118.782 73.8129 116.3 72.8C115.3 72.4 114.3 72 113.2 71.5L112.6 71.2L112.2 71L111.6 70.7C108.813 71.0327 106.006 71.1664 103.2 71.1H98.9V63.9H102.9C102.071 62.1836 101.77 60.2593 102.037 58.3718C102.304 56.4843 103.127 54.7188 104.4 53.3C105.428 52.1192 106.706 51.1831 108.142 50.5602C109.579 49.9373 111.136 49.6434 112.7 49.7C114.14 49.6656 115.569 49.953 116.884 50.5412C118.199 51.1294 119.366 52.0035 120.3 53.1C122.07 55.0373 123.035 57.5761 123 60.2C123.006 61.8115 122.592 63.3967 121.8 64.8C121.435 65.4226 121.034 66.0236 120.6 66.6C121.899 67.1305 123.299 67.3694 124.7 67.3C125.444 67.3159 126.176 67.1067 126.8 66.7C127.39 66.2946 127.816 65.6917 128 65C128.115 64.6096 128.182 64.2067 128.2 63.8C128.104 62.2526 127.508 60.7783 126.5 59.6C122.9 54.9 120.5 51.6 119.3 49.9L124.9 45.5C127.4 49 129.7 52.2 132 55.3ZM116.1 60.4C116.111 59.4857 115.759 58.6044 115.122 57.9486C114.485 57.2928 113.614 56.9158 112.7 56.9C112.326 56.9179 111.956 56.9852 111.6 57.1C111.164 57.2178 110.756 57.4218 110.4 57.7C109.945 58.013 109.571 58.4305 109.31 58.9177C109.049 59.4048 108.908 59.9474 108.9 60.5C108.922 60.9473 109.041 61.3845 109.248 61.7816C109.455 62.1786 109.746 62.5261 110.1 62.8C110.819 63.4813 111.724 63.9337 112.7 64.1C115 63.1 116.1 61.9 116.1 60.4Z" fill="white"/>
<path d="M185.3 69.7C185.3 73.5 184.4 76.5 182.5 78.7C181.237 80.0863 179.659 81.1493 177.9 81.8C175.836 82.4805 173.674 82.8183 171.5 82.8H168.2C165.859 82.8284 163.539 82.3508 161.4 81.4C159.203 80.4528 157.328 78.8899 156 76.9C154.611 74.5729 153.885 71.9102 153.9 69.2V68.1C154.235 64.1758 155.286 60.346 157 56.8L163.5 59.8C162.113 62.5116 161.264 65.4659 161 68.5V69.2C160.927 70.5402 161.276 71.8696 162 73C162.715 74.0584 163.776 74.8359 165 75.2C165.551 75.3916 166.121 75.5256 166.7 75.6C167.162 75.6796 167.631 75.7131 168.1 75.7H171.4C174.1 75.7 176 75.2 176.9 74.2C177.8 73.2 178.1 71.8 178.1 69.7V56.1H185.2L185.3 69.7ZM170.7 58.4C169.909 58.4 169.136 58.1654 168.478 57.7259C167.82 57.2864 167.307 56.6617 167.005 55.9308C166.702 55.1999 166.623 54.3956 166.777 53.6197C166.931 52.8437 167.312 52.131 167.872 51.5716C168.431 51.0122 169.144 50.6312 169.92 50.4769C170.696 50.3225 171.5 50.4018 172.231 50.7045C172.962 51.0073 173.586 51.5199 174.026 52.1777C174.465 52.8355 174.7 53.6089 174.7 54.4C174.675 55.4529 174.245 56.4556 173.5 57.2004C172.756 57.9451 171.753 58.3746 170.7 58.4Z" fill="white"/>
<path d="M200 71.2H198C196.498 71.1861 195.01 70.9155 193.6 70.4C192.634 70.0038 191.757 69.4197 191.019 68.6815C190.28 67.9433 189.696 67.0658 189.3 66.1C188.716 64.7413 188.409 63.2791 188.4 61.8V39.8H195.5V61.8C195.426 62.0363 195.401 62.2853 195.427 62.5316C195.453 62.7779 195.53 63.0162 195.652 63.2318C195.773 63.4473 195.938 63.6356 196.136 63.785C196.333 63.9343 196.559 64.0415 196.8 64.1C197.126 64.2002 197.474 64.2002 197.8 64.1H199.8V71.2H200Z" fill="white"/>
<path d="M214 60.1C214.116 60.7608 214.183 61.4293 214.2 62.1C214.208 64.0019 213.612 65.8573 212.5 67.4C210.7 69.9 207.7 71.2 203.6 71.2H198.9V64.1H203.4C204.361 64.187 205.328 64.0143 206.2 63.6C206.49 63.4571 206.725 63.2234 206.869 62.9345C207.014 62.6456 207.06 62.3174 207 62C207.016 61.7622 206.982 61.5237 206.9 61.3C206.8 60.6 206.6 59.8 206.5 59C206.4 58.7 206.4 58.4 206.3 58.1L206.2 57.7L206.1 57.3C205.9 56.1 205.7 55.3 205.6 54.7L212.4 52.6C212.9 54.6 213.4 57.1 214 60.1ZM206.1 82.8C205.309 82.8195 204.53 82.6041 203.862 82.1811C203.194 81.758 202.666 81.1463 202.345 80.4232C202.024 79.7002 201.925 78.8982 202.06 78.1188C202.195 77.3394 202.558 76.6175 203.103 76.0443C203.648 75.4712 204.351 75.0726 205.123 74.8988C205.895 74.7251 206.7 74.7841 207.439 75.0684C208.177 75.3526 208.814 75.8493 209.27 76.4957C209.726 77.1421 209.98 77.9092 210 78.7C210.001 79.7688 209.61 80.8008 208.9 81.6C208.542 81.9833 208.108 82.2879 207.626 82.4945C207.144 82.7011 206.624 82.8051 206.1 82.8Z" fill="white"/>
<path d="M229.4 71.2H227.4C225.93 71.1952 224.473 70.9241 223.1 70.4C222.134 70.0038 221.257 69.4197 220.519 68.6815C219.78 67.9433 219.196 67.0658 218.8 66.1C218.216 64.7413 217.909 63.2791 217.9 61.8V39.8H225V61.8C224.925 62.0432 224.903 62.2995 224.934 62.552C224.966 62.8044 225.051 63.0473 225.183 63.2647C225.315 63.482 225.492 63.6688 225.702 63.8128C225.912 63.9568 226.15 64.0547 226.4 64.1C226.726 64.2002 227.074 64.2002 227.4 64.1H229.4V71.2Z" fill="white"/>
<path d="M246 62C245.959 62.2717 245.983 62.5493 246.07 62.8101C246.157 63.0708 246.304 63.3072 246.5 63.5C247.082 63.9077 247.795 64.0858 248.5 64H251.7V71.2H248.5C247.592 71.1991 246.686 71.0985 245.8 70.9C245.146 70.7275 244.51 70.4931 243.9 70.2C243.363 69.9254 242.86 69.5899 242.4 69.2C241.93 69.6251 241.388 69.9637 240.8 70.2C239.151 70.8767 237.383 71.2167 235.6 71.2H228.3V64H236.1C236.869 64.087 237.644 63.9107 238.3 63.5C238.499 63.3054 238.655 63.0715 238.758 62.8133C238.862 62.555 238.91 62.278 238.9 62V56.1H246V62ZM235.5 50.3C234.748 50.3 234.014 50.0771 233.389 49.6596C232.764 49.242 232.277 48.6485 231.989 47.9542C231.702 47.2598 231.626 46.4958 231.773 45.7586C231.92 45.0215 232.282 44.3444 232.813 43.813C233.344 43.2815 234.022 42.9196 234.759 42.773C235.496 42.6264 236.26 42.7016 236.954 42.9892C237.649 43.2768 238.242 43.7639 238.66 44.3888C239.077 45.0137 239.3 45.7484 239.3 46.5C239.317 47.0035 239.23 47.5051 239.045 47.9737C238.86 48.4423 238.58 48.8679 238.224 49.2242C237.868 49.5804 237.442 49.8597 236.974 50.0448C236.505 50.2298 236.004 50.3167 235.5 50.3ZM244.7 50.3C243.69 50.276 242.727 49.8709 242.004 49.166C241.28 48.4612 240.85 47.5087 240.8 46.5C240.795 45.4812 241.19 44.5011 241.901 43.7714C242.612 43.0417 243.581 42.621 244.6 42.6C245.61 42.624 246.573 43.0291 247.296 43.7339C248.02 44.4388 248.45 45.3912 248.5 46.4C248.5 47.4092 248.106 48.3784 247.4 49.1C247.062 49.4811 246.646 49.7854 246.18 49.9924C245.714 50.1994 245.21 50.3043 244.7 50.3Z" fill="white"/>
<path d="M268.8 63.5C269.107 63.2297 269.341 62.8866 269.481 62.5022C269.621 62.1178 269.662 61.7043 269.6 61.3V56H276.7V61.3C276.651 61.634 276.67 61.9745 276.756 62.3009C276.842 62.6274 276.993 62.9332 277.2 63.2C277.5 63.4596 277.85 63.6555 278.228 63.7758C278.606 63.8961 279.005 63.9384 279.4 63.9C281 63.9 281.9 63.3 281.9 62.2C281.921 61.9293 281.887 61.6571 281.8 61.4C281 58 280.4 55.7 280.2 54.5L287.1 52.8C287.5 54.6 288.1 56.8 288.7 59.7C288.865 60.3531 288.933 61.0271 288.9 61.7C288.9 62.3 288.8 62.9 288.8 63.4C288.436 65.5512 287.323 67.5044 285.658 68.9137C283.992 70.323 281.882 71.0974 279.7 71.1C278.269 71.1189 276.847 70.8818 275.5 70.4C274.64 70.0883 273.831 69.6501 273.1 69.1C271.375 70.4087 269.266 71.1117 267.1 71.1C264.904 71.1115 262.763 70.4097 261 69.1C259.8 70.4 257.7 71.1 254.7 71.1H250.5V63.9H254.7C255.095 63.9384 255.494 63.8961 255.872 63.7758C256.25 63.6555 256.6 63.4596 256.9 63.2C257.307 62.6555 257.486 61.9742 257.4 61.3V56H264.5V61.3C264.456 61.7035 264.505 62.1117 264.644 62.4931C264.783 62.8745 265.007 63.219 265.3 63.5C265.775 63.8153 266.33 63.9887 266.9 64C267.574 64.0861 268.255 63.9068 268.8 63.5ZM268.5 50.3C267.492 50.3 266.526 49.8996 265.813 49.187C265.1 48.4743 264.7 47.5078 264.7 46.5C264.7 45.4922 265.1 44.5256 265.813 43.813C266.526 43.1003 267.492 42.7 268.5 42.7C269.509 42.6996 270.478 43.0945 271.2 43.8C271.557 44.1533 271.84 44.5738 272.033 45.0373C272.227 45.5007 272.326 45.9979 272.326 46.5C272.326 47.0021 272.227 47.4992 272.033 47.9627C271.84 48.4261 271.557 48.8466 271.2 49.2C270.47 49.8933 269.506 50.286 268.5 50.3ZM273.2 42.9C272.528 42.9 271.87 42.7006 271.311 42.327C270.752 41.9534 270.316 41.4224 270.059 40.8011C269.801 40.1798 269.734 39.4962 269.865 38.8367C269.997 38.1771 270.32 37.5713 270.796 37.0958C271.271 36.6203 271.877 36.2965 272.537 36.1653C273.196 36.0341 273.88 36.1015 274.501 36.3588C275.122 36.6161 275.653 37.0519 276.027 37.611C276.401 38.1702 276.6 38.8275 276.6 39.5C276.607 39.9473 276.523 40.3914 276.35 40.8043C276.178 41.2173 275.923 41.5903 275.6 41.9C274.959 42.53 274.099 42.8882 273.2 42.9ZM278.1 50.3C277.092 50.3 276.126 49.8996 275.413 49.187C274.7 48.4743 274.3 47.5078 274.3 46.5C274.3 45.4922 274.7 44.5256 275.413 43.813C276.126 43.1003 277.092 42.7 278.1 42.7C279.109 42.6996 280.078 43.0945 280.8 43.8C281.157 44.1533 281.44 44.5738 281.633 45.0373C281.827 45.5007 281.926 45.9979 281.926 46.5C281.926 47.0021 281.827 47.4992 281.633 47.9627C281.44 48.4261 281.157 48.8466 280.8 49.2C280.07 49.8933 279.106 50.286 278.1 50.3Z" fill="white"/>
</g>
<defs>
<clipPath id="clip0_36_44">
<rect width="429.7" height="84.2" fill="white"/>
</clipPath>
</defs>
</svg>
