<?xml version="1.0" encoding="UTF-8"?>
<svg id="Layer_2" data-name="Layer 2" xmlns="http://www.w3.org/2000/svg" xmlns:xlink="http://www.w3.org/1999/xlink" viewBox="0 0 342.95 202.14">
  <defs>
    <style>
      .cls-1 {
        fill: #294e68;
      }

      .cls-1, .cls-2, .cls-3, .cls-4, .cls-5, .cls-6, .cls-7 {
        stroke-width: 0px;
      }

      .cls-2 {
        fill: url(#linear-gradient);
      }

      .cls-4 {
        fill: #ddb33c;
      }

      .cls-5 {
        fill: #369636;
      }

      .cls-6 {
        fill: url(#linear-gradient-2);
      }

      .cls-7 {
        fill: #245156;
      }
    </style>
    <linearGradient id="linear-gradient" x1="132.42" y1="256.39" x2="242.43" y2="16.96" gradientUnits="userSpaceOnUse">
      <stop offset=".39" stop-color="#ddb33c"/>
      <stop offset=".94" stop-color="#fff" stop-opacity="0"/>
    </linearGradient>
    <linearGradient id="linear-gradient-2" x1="74.49" y1="26.36" x2="317.87" y2="26.36" xlink:href="#linear-gradient"/>
  </defs>
  <g id="Layer_1-2" data-name="Layer 1">
    <g>
      <g>
        <path class="cls-2" d="m273.41,114.5l32.04,60.46h-51.48v-2.52h-10.13v-57.94h-4.96v57.94h-10.12v2.52h-41.81c25.38-6.59,24.7-36.97,24.14-60.46h-4.78c.83,25.71,1.39,57.53-31.29,57.2-31.8,1.36-26.21-34.84-26.69-57.2h-35.89c-1.27,27.83,1.13,53.66,29.59,60.46h-76.73c33.01-9.73,38.1-64.67,4.51-77.47,12.32-13.25,26.78-24.61,42.63-33.16v9.17h35.89v-22.91h11.96v-2.65c13.72-2.26,28.4-2.55,42.25-.83h-8.2v3.48h11.97v22.91h4.78v-22.91c9.41-.98,19.24,2.26,27.79,5.71v17.2h4.96v-15.16c.34.14.68.29,1.02.44l7.8,14.72h18.49c15.89,10.97,29.98,24.86,41.67,41h-39.41Z"/>
        <path class="cls-4" d="m25.04,170.21c-.17-.03-.34-.08-.51-.1-.01-.09-.01-.19,0-.29l.51.39Z"/>
        <path class="cls-4" d="m70.5,66.83c-6.46,7.8-12.17,16.17-17.07,24.96-2.13-.61-4.76-1.34-7.91-2.2,5.56-10.25,12.16-19.96,19.74-28.95,1.77,1.9,3.51,3.96,5.24,6.19Z"/>
        <path class="cls-6" d="m317.87,48.81c-1.97.81-6.12,2.5-8.11,3.31-58.74-58.24-165.53-59.83-226.1.6l-.19-5.61h-2.03c-2.05,3.56-3.64,4.09-6.95,3.4,63.66-67.62,180.9-66.52,243.38-1.7Z"/>
        <g>
          <path class="cls-5" d="m134,93.84c-1.95-2.4-8.68-1.49-11.66-1.65-1.8.09-2.31-1.31-2.16-2.88,0-1.44.72-2.16,2.16-2.16h11.2v-5.04c-3.68.45-15.55-1.3-18.13,1.71-2.37,2.22-2.37,9.84,0,12.06,2.2,2.66,10.49,1.46,13.77,1.71-.13.95.37,3.88-.49,4.55-3.5,1.26-7.04,0-14.67-.05v4.86c7.1-.48,21.64,5.01,21.64-6.12.12-2.41-.13-5.72-1.66-6.99Z"/>
          <path class="cls-5" d="m162.44,82.11v5.04h7.56v20.16h6.48v-20.16h7.56v-5.04h-21.6Z"/>
          <path class="cls-5" d="m227.55,82.11h-7.2l-9.54,25.2h7.02l1.62-4.5h9l1.62,4.5h7.02l-9.54-25.2Zm-6.48,16.02l2.88-8.46,2.88,8.46h-5.76Z"/>
          <path class="cls-5" d="m282.04,99.39c4.59-.96,4.18-6.19,4.14-10.08.96-11.11-15.84-6.17-22.32-7.2v25.2h6.48v-7.56h5.04l4.14,7.56h7.02l-4.5-7.92Zm-2.34-6.84c.43,3.77-7.47,1.63-9.36,2.16v-7.56h7.2c2.95-.25,2.02,3.62,2.16,5.4Z"/>
          <path class="cls-5" d="m314.32,46.96v12.07h9.64v48.28h8.26v-48.28h9.64v-12.07h-27.54Z"/>
        </g>
        <g>
          <g>
            <polygon class="cls-1" points="221.22 47.11 221.22 50.59 211.09 50.59 211.09 73.5 206.31 73.5 206.31 50.59 194.34 50.59 194.34 47.11 221.22 47.11"/>
            <polygon class="cls-1" points="160.29 47.11 160.29 50.59 148.33 50.59 148.33 73.5 112.44 73.5 112.44 50.59 102.32 50.59 102.32 47.11 160.29 47.11"/>
            <path class="cls-1" d="m211.09,114.5c1.61,37.83-2.69,64.2-45.93,63.27-43.63-.1-55.47-20.41-52.72-63.27h35.89c.5,22.38-5.12,58.54,26.69,57.2,32.67.34,32.13-31.51,31.29-57.2h4.78Z"/>
            <polygon class="cls-1" points="253.97 172.44 253.97 175.94 228.76 175.94 228.76 172.44 238.88 172.44 238.88 114.5 243.84 114.5 243.84 172.44 253.97 172.44"/>
            <path class="cls-1" d="m293.33,73.5h-40.67c-.56-1.05-8.59-16.2-8.82-16.64v16.64h-4.96v-22.91h-10.12v-3.48h50.8l13.77,26.39Z"/>
            <path class="cls-1" d="m331.75,114.5v61.44h-25.78c-.61-1.15-31.95-60.29-32.56-61.44h40.31c1.7,3.27,11.15,21.34,13.06,25v-25h4.97Z"/>
          </g>
          <path class="cls-7" d="m84.72,83.27c-.4.33-.79.67-1.17,1h1.2l-.03-1Zm-61.4,91.69c.41.09.82.16,1.22.25,0-.08,0-.17,0-.25h-1.22Zm3.14.62s.03.01.04.01c0-.05.01-.09.04-.14-.04.04-.06.09-.08.13Z"/>
          <path class="cls-1" d="m87.7,112.81c-12.53-21.65-42.99-19.27-61.75-31.19-17.03-12.11-3.17-34.7,16.38-32.67,18.85.27,30.37,19.95,39.48,35.32h1.74c.38-.33.77-.67,1.17-1-.14-4.01-1.15-32.97-1.25-36.16h-2.03c-4.18,12.57-42.83-17.93-70.65,10.39h0C.06,68.49-2.42,87.7,2.26,101.6c8.81,25.89,44.51,24.08,63.08,36.97,28.63,27.71-26.99,63.75-61.43-1.54,1.91,12.51,5.19,24.58,9.7,36.03,3.29.45,7.25,1.74,10.93,1.9,0,.08,0,.17,0,.25.65.13,1.29.25,1.92.37.02-.04.04-.09.08-.13-.03.05-.04.09-.04.14,19.52,3.62,39.3,4.16,53.75-9.87,13.17-11.66,16.29-37.33,7.45-52.91Zm-17.29-58.03c5.2,1.02,5.21,1.24,8.35.78.03.8.47,13.7.51,14.92-4.22-6.25-8.67-11.95-14.07-16.97,2.09.54,3.8.96,5.21,1.27Zm-45.86,115.33c-2.7-.53-4.81-.99-7.27-1.44-1.03-2.75-1.98-5.53-2.86-8.33,3.25,3.53,6.81,7.03,10.62,9.87-.16-.03-.33-.07-.49-.1Zm52.22-7.98h-.01c10.49-41.75-49.32-31.64-66.65-55.99-8.4-12.98-6.37-33.86,4.42-45.31-8.64,41.19,54.03,27.11,68.75,54.32,7.78,13.67,5.1,36.83-6.51,46.98Z"/>
        </g>
        <path class="cls-4" d="m24.54,174.96c0,.08,0,.17,0,.25-.4-.09-.81-.16-1.22-.25h1.22Z"/>
        <path class="cls-4" d="m26.54,175.45s-.04.09-.04.14c-.01,0-.03-.01-.04-.01.02-.04.04-.09.08-.13Z"/>
      </g>
      <rect class="cls-1" x="48.02" y="174.8" width="294.93" height="3"/>
    </g>
    <g>
      <path class="cls-3" d="m30.1,189.88l-.79.82c-.66-.64-1.3-.96-1.93-.96-.4,0-.74.13-1.03.4-.28.26-.43.57-.43.92,0,.31.12.61.35.89.23.29.73.62,1.48,1.01.92.47,1.54.93,1.87,1.37.32.45.48.95.48,1.5,0,.79-.28,1.45-.83,2s-1.24.82-2.07.82c-.55,0-1.08-.12-1.58-.36-.5-.24-.92-.57-1.25-.99l.77-.88c.63.71,1.29,1.06,2,1.06.49,0,.91-.16,1.26-.47.35-.32.52-.69.52-1.12,0-.35-.11-.67-.34-.94-.23-.27-.75-.61-1.55-1.02-.86-.45-1.45-.88-1.76-1.32s-.47-.93-.47-1.49c0-.73.25-1.33.74-1.81.5-.48,1.12-.72,1.88-.72.88,0,1.77.43,2.66,1.29Z"/>
      <path class="cls-3" d="m39.58,188.59c1.47,0,2.69.53,3.66,1.6.88.97,1.32,2.12,1.32,3.45s-.47,2.5-1.4,3.5c-.93,1-2.13,1.5-3.59,1.5s-2.67-.5-3.6-1.5-1.4-2.17-1.4-3.5.44-2.47,1.32-3.45c.97-1.07,2.19-1.61,3.67-1.61Zm0,1.2c-1.02,0-1.9.38-2.64,1.13s-1.1,1.67-1.1,2.74c0,.69.17,1.34.5,1.93.33.6.79,1.06,1.36,1.38.57.32,1.2.49,1.88.49s1.31-.16,1.88-.49c.57-.33,1.02-.79,1.36-1.38.34-.6.5-1.24.5-1.93,0-1.07-.37-1.99-1.11-2.74-.74-.76-1.62-1.13-2.63-1.13Z"/>
      <path class="cls-3" d="m49.43,185.14h1.23v13.25h-1.23v-13.25Z"/>
      <path class="cls-3" d="m65.52,188.83v9.56h-1.21v-1.64c-.52.63-1.09,1.1-1.74,1.42s-1.34.47-2.1.47c-1.35,0-2.51-.49-3.47-1.47-.96-.98-1.44-2.17-1.44-3.58s.48-2.55,1.45-3.53,2.13-1.47,3.49-1.47c.79,0,1.5.17,2.13.5s1.19.83,1.67,1.5v-1.76h1.21Zm-4.92.94c-.68,0-1.32.17-1.9.5-.58.34-1.04.81-1.38,1.42-.34.61-.51,1.25-.51,1.93s.17,1.32.52,1.93c.35.62.81,1.09,1.39,1.44.58.34,1.21.51,1.87.51s1.31-.17,1.91-.51c.6-.34,1.07-.8,1.39-1.38.32-.58.49-1.23.49-1.96,0-1.11-.36-2.03-1.09-2.77-.73-.74-1.63-1.12-2.69-1.12Z"/>
      <path class="cls-3" d="m70.59,188.83h1.26v1.4c.38-.55.77-.96,1.19-1.24.42-.27.85-.41,1.3-.41.34,0,.7.11,1.09.33l-.64,1.04c-.26-.11-.47-.17-.65-.17-.41,0-.81.17-1.19.51s-.67.86-.87,1.57c-.15.54-.23,1.65-.23,3.3v3.23h-1.26v-9.56Z"/>
      <path class="cls-3" d="m91.81,189.88l-.79.82c-.66-.64-1.3-.96-1.93-.96-.4,0-.74.13-1.03.4-.28.26-.43.57-.43.92,0,.31.12.61.35.89.23.29.73.62,1.48,1.01.92.47,1.54.93,1.87,1.37.32.45.48.95.48,1.5,0,.79-.28,1.45-.83,2s-1.24.82-2.07.82c-.55,0-1.08-.12-1.58-.36-.5-.24-.92-.57-1.25-.99l.77-.88c.63.71,1.29,1.06,2,1.06.49,0,.91-.16,1.26-.47.35-.32.52-.69.52-1.12,0-.35-.11-.67-.34-.94-.23-.27-.75-.61-1.55-1.02-.86-.45-1.45-.88-1.76-1.32s-.47-.93-.47-1.49c0-.73.25-1.33.74-1.81.5-.48,1.12-.72,1.88-.72.88,0,1.77.43,2.66,1.29Z"/>
      <path class="cls-3" d="m95.73,188.83h1.3l3.29,7.36,3.19-7.36h1.31l-5.7,13.06h-1.3l1.84-4.22-3.92-8.84Z"/>
      <path class="cls-3" d="m113.99,189.88l-.79.82c-.66-.64-1.3-.96-1.93-.96-.4,0-.74.13-1.03.4-.29.26-.43.57-.43.92,0,.31.12.61.35.89.23.29.73.62,1.48,1.01.92.47,1.54.93,1.87,1.37.32.45.48.95.48,1.5,0,.79-.28,1.45-.83,2-.55.54-1.24.82-2.07.82-.55,0-1.08-.12-1.58-.36-.5-.24-.92-.57-1.25-.99l.77-.88c.63.71,1.29,1.06,2,1.06.49,0,.91-.16,1.26-.47s.52-.69.52-1.12c0-.35-.11-.67-.34-.94-.23-.27-.75-.61-1.55-1.02-.86-.45-1.45-.88-1.76-1.32s-.47-.93-.47-1.49c0-.73.25-1.33.74-1.81s1.12-.72,1.88-.72c.88,0,1.77.43,2.66,1.29Z"/>
      <path class="cls-3" d="m120.01,185.28h1.23v3.55h1.95v1.06h-1.95v8.5h-1.23v-8.5h-1.68v-1.06h1.68v-3.55Z"/>
      <path class="cls-3" d="m135.86,195.22l1.04.54c-.34.67-.73,1.21-1.18,1.62-.45.41-.95.72-1.5.94-.56.21-1.19.32-1.89.32-1.56,0-2.78-.51-3.66-1.53s-1.32-2.18-1.32-3.47c0-1.21.37-2.29,1.12-3.24.94-1.21,2.21-1.81,3.79-1.81s2.93.62,3.91,1.85c.69.87,1.04,1.96,1.06,3.27h-8.6c.02,1.11.38,2.02,1.06,2.73s1.53,1.07,2.54,1.07c.49,0,.96-.08,1.42-.25.46-.17.85-.39,1.17-.67.32-.28.67-.73,1.05-1.36Zm0-2.58c-.16-.66-.4-1.18-.72-1.57-.31-.39-.73-.71-1.25-.95-.52-.24-1.06-.36-1.63-.36-.94,0-1.75.3-2.42.91-.49.44-.87,1.1-1.12,1.98h7.13Z"/>
      <path class="cls-3" d="m142.27,188.83h1.23v1.65c.43-.61.87-1.05,1.32-1.34.62-.38,1.28-.56,1.96-.56.46,0,.9.09,1.32.27.42.18.76.42,1.02.73.26.3.49.73.69,1.3.41-.75.92-1.32,1.54-1.71.61-.39,1.27-.58,1.98-.58.66,0,1.24.17,1.75.5s.88.8,1.13,1.4c.25.6.37,1.49.37,2.69v5.22h-1.26v-5.22c0-1.03-.07-1.73-.22-2.11-.15-.38-.4-.69-.75-.93s-.78-.35-1.27-.35c-.6,0-1.14.18-1.63.53-.49.35-.85.82-1.08,1.41s-.34,1.56-.34,2.94v3.74h-1.23v-4.9c0-1.15-.07-1.94-.22-2.35-.14-.41-.39-.74-.75-.99-.36-.25-.78-.37-1.27-.37-.57,0-1.1.17-1.6.51-.5.34-.86.8-1.1,1.38-.24.58-.36,1.47-.36,2.66v4.05h-1.23v-9.56Z"/>
      <path class="cls-3" d="m179.24,185.14v13.25h-1.21v-1.64c-.52.63-1.09,1.1-1.74,1.42-.64.32-1.34.47-2.1.47-1.35,0-2.51-.49-3.47-1.47-.96-.98-1.44-2.17-1.44-3.58s.48-2.55,1.45-3.53,2.13-1.47,3.49-1.47c.79,0,1.5.17,2.13.5.63.33,1.19.83,1.67,1.5v-5.45h1.21Zm-4.92,4.63c-.68,0-1.32.17-1.9.5-.58.34-1.04.81-1.38,1.42-.34.61-.51,1.25-.51,1.93s.17,1.32.52,1.93c.35.62.81,1.09,1.39,1.44s1.21.51,1.88.51,1.31-.17,1.91-.51c.6-.34,1.07-.8,1.39-1.38.33-.58.49-1.23.49-1.96,0-1.11-.36-2.03-1.09-2.77s-1.63-1.12-2.69-1.12Z"/>
      <path class="cls-3" d="m192.85,195.22l1.04.54c-.34.67-.73,1.21-1.18,1.62-.45.41-.95.72-1.5.94-.56.21-1.19.32-1.89.32-1.56,0-2.78-.51-3.66-1.53s-1.32-2.18-1.32-3.47c0-1.21.37-2.29,1.12-3.24.94-1.21,2.21-1.81,3.79-1.81s2.93.62,3.91,1.85c.69.87,1.04,1.96,1.06,3.27h-8.6c.02,1.11.38,2.02,1.06,2.73s1.53,1.07,2.54,1.07c.49,0,.96-.08,1.42-.25.46-.17.85-.39,1.17-.67.32-.28.67-.73,1.05-1.36Zm0-2.58c-.16-.66-.4-1.18-.72-1.57-.31-.39-.73-.71-1.25-.95-.52-.24-1.06-.36-1.63-.36-.94,0-1.75.3-2.42.91-.49.44-.87,1.1-1.12,1.98h7.13Z"/>
      <path class="cls-3" d="m198.36,188.83h1.31l3.21,6.97,3.17-6.97h1.32l-4.38,9.56h-.23l-4.4-9.56Z"/>
      <path class="cls-3" d="m220.06,195.22l1.04.54c-.34.67-.73,1.21-1.18,1.62-.45.41-.95.72-1.5.94-.56.21-1.19.32-1.89.32-1.56,0-2.78-.51-3.66-1.53s-1.32-2.18-1.32-3.47c0-1.21.37-2.29,1.12-3.24.94-1.21,2.21-1.81,3.79-1.81s2.93.62,3.91,1.85c.69.87,1.04,1.96,1.06,3.27h-8.6c.02,1.11.38,2.02,1.06,2.73s1.53,1.07,2.54,1.07c.49,0,.96-.08,1.42-.25.46-.17.85-.39,1.17-.67.32-.28.67-.73,1.05-1.36Zm0-2.58c-.16-.66-.4-1.18-.72-1.57-.31-.39-.73-.71-1.25-.95-.52-.24-1.06-.36-1.63-.36-.94,0-1.75.3-2.42.91-.49.44-.87,1.1-1.12,1.98h7.13Z"/>
      <path class="cls-3" d="m226.3,185.14h1.23v13.25h-1.23v-13.25Z"/>
      <path class="cls-3" d="m237.39,188.59c1.47,0,2.69.53,3.66,1.6.88.97,1.32,2.12,1.32,3.45s-.46,2.5-1.4,3.5-2.13,1.5-3.59,1.5-2.67-.5-3.6-1.5-1.4-2.17-1.4-3.5.44-2.47,1.32-3.45c.97-1.07,2.19-1.61,3.67-1.61Zm0,1.2c-1.02,0-1.9.38-2.64,1.13s-1.1,1.67-1.1,2.74c0,.69.17,1.34.5,1.93s.79,1.06,1.36,1.38c.57.32,1.2.49,1.88.49s1.31-.16,1.88-.49c.57-.33,1.02-.79,1.36-1.38s.5-1.24.5-1.93c0-1.07-.37-1.99-1.11-2.74-.74-.76-1.62-1.13-2.63-1.13Z"/>
      <path class="cls-3" d="m247.44,188.83h1.23v1.76c.49-.67,1.04-1.17,1.68-1.5.63-.33,1.34-.5,2.12-.5,1.36,0,2.52.49,3.49,1.47s1.45,2.16,1.45,3.53-.48,2.6-1.44,3.58c-.96.98-2.11,1.47-3.46,1.47-.76,0-1.46-.16-2.1-.47-.64-.32-1.21-.79-1.73-1.42v5.14h-1.23v-13.06Zm4.92.94c-1.06,0-1.96.37-2.69,1.12s-1.09,1.67-1.09,2.77c0,.73.16,1.38.49,1.96.33.58.79,1.04,1.39,1.38.61.34,1.24.51,1.92.51s1.28-.17,1.86-.51,1.04-.82,1.39-1.44c.34-.61.52-1.26.52-1.93s-.17-1.32-.51-1.93c-.34-.61-.8-1.08-1.38-1.42-.58-.34-1.21-.5-1.89-.5Z"/>
      <path class="cls-3" d="m262,188.83h1.26v1.4c.38-.55.77-.96,1.19-1.24.42-.27.85-.41,1.3-.41.34,0,.7.11,1.09.33l-.64,1.04c-.26-.11-.47-.17-.65-.17-.41,0-.81.17-1.19.51s-.67.86-.87,1.57c-.15.54-.23,1.65-.23,3.3v3.23h-1.26v-9.56Z"/>
      <path class="cls-3" d="m286.65,188.83h1.23v7.62c0,1.34-.12,2.32-.35,2.94-.32.88-.88,1.56-1.68,2.03s-1.75.71-2.87.71c-.82,0-1.56-.12-2.21-.35-.65-.23-1.18-.54-1.59-.93-.41-.39-.79-.96-1.13-1.71h1.34c.36.63.83,1.1,1.41,1.41.57.3,1.29.46,2.14.46s1.55-.16,2.13-.47c.58-.31.99-.71,1.24-1.18.25-.47.37-1.24.37-2.29v-.49c-.46.59-1.03,1.04-1.7,1.35-.67.31-1.38.47-2.13.47-.88,0-1.71-.22-2.48-.65-.77-.44-1.37-1.02-1.79-1.76-.42-.74-.63-1.55-.63-2.43s.22-1.71.66-2.47c.44-.76,1.05-1.37,1.83-1.81s1.6-.67,2.46-.67c.72,0,1.38.15,2,.44.62.3,1.21.78,1.79,1.46v-1.66Zm-3.63.94c-.7,0-1.34.17-1.94.5-.6.34-1.07.8-1.41,1.4s-.51,1.24-.51,1.93c0,1.05.35,1.92,1.05,2.6s1.61,1.03,2.73,1.03,2.04-.34,2.73-1.02c.69-.68,1.03-1.57,1.03-2.68,0-.72-.16-1.36-.47-1.93s-.76-1.01-1.34-1.34-1.2-.49-1.87-.49Z"/>
      <path class="cls-3" d="m292.83,188.83h1.26v1.4c.38-.55.77-.96,1.19-1.24.42-.27.85-.41,1.3-.41.34,0,.7.11,1.09.33l-.64,1.04c-.26-.11-.47-.17-.65-.17-.41,0-.81.17-1.19.51s-.67.86-.87,1.57c-.15.54-.23,1.65-.23,3.3v3.23h-1.26v-9.56Z"/>
      <path class="cls-3" d="m306.01,188.59c1.47,0,2.69.53,3.66,1.6.88.97,1.32,2.12,1.32,3.45s-.46,2.5-1.4,3.5-2.13,1.5-3.59,1.5-2.67-.5-3.6-1.5-1.4-2.17-1.4-3.5.44-2.47,1.32-3.45c.97-1.07,2.19-1.61,3.67-1.61Zm0,1.2c-1.02,0-1.9.38-2.64,1.13s-1.1,1.67-1.1,2.74c0,.69.17,1.34.5,1.93s.79,1.06,1.36,1.38c.57.32,1.2.49,1.88.49s1.31-.16,1.88-.49c.57-.33,1.02-.79,1.36-1.38s.5-1.24.5-1.93c0-1.07-.37-1.99-1.11-2.74-.74-.76-1.62-1.13-2.63-1.13Z"/>
      <path class="cls-3" d="m315.88,188.83h1.23v4.46c0,1.09.06,1.84.18,2.25.18.59.51,1.05,1.01,1.39.5.34,1.09.51,1.77.51s1.27-.17,1.75-.5c.48-.33.81-.77.99-1.31.12-.37.18-1.15.18-2.35v-4.46h1.26v4.69c0,1.32-.15,2.31-.46,2.98-.31.67-.77,1.19-1.39,1.57-.62.38-1.39.57-2.33.57s-1.71-.19-2.33-.57c-.62-.38-1.09-.91-1.4-1.58-.31-.68-.46-1.7-.46-3.05v-4.61Z"/>
      <path class="cls-3" d="m329.77,188.83h1.23v1.76c.49-.67,1.04-1.17,1.68-1.5.63-.33,1.34-.5,2.12-.5,1.36,0,2.52.49,3.49,1.47s1.45,2.16,1.45,3.53-.48,2.6-1.44,3.58c-.96.98-2.11,1.47-3.46,1.47-.76,0-1.46-.16-2.1-.47-.64-.32-1.21-.79-1.73-1.42v5.14h-1.23v-13.06Zm4.92.94c-1.06,0-1.96.37-2.69,1.12s-1.09,1.67-1.09,2.77c0,.73.16,1.38.49,1.96.33.58.79,1.04,1.39,1.38.61.34,1.24.51,1.92.51s1.28-.17,1.86-.51,1.04-.82,1.39-1.44c.34-.61.52-1.26.52-1.93s-.17-1.32-.51-1.93c-.34-.61-.8-1.08-1.38-1.42-.58-.34-1.21-.5-1.89-.5Z"/>
    </g>
  </g>
</svg>